M48
; DRILL file {KiCad 7.0.5} date Tue Aug 13 10:45:46 2024
; FORMAT={-:-/ absolute / metric / decimal}
; #@! TF.CreationDate,2024-08-13T10:45:46+03:00
; #@! TF.GenerationSoftware,Kicad,Pcbnew,7.0.5
; #@! TF.FileFunction,MixedPlating,1,2
FMAT,2
METRIC
; #@! TA.AperFunction,Plated,PTH,ViaDrill
T1C0.400
; #@! TA.AperFunction,Plated,PTH,ComponentDrill
T2C0.800
; #@! TA.AperFunction,Plated,PTH,ComponentDrill
T3C0.813
; #@! TA.AperFunction,Plated,PTH,ComponentDrill
T4C0.991
; #@! TA.AperFunction,Plated,PTH,ComponentDrill
T5C1.000
; #@! TA.AperFunction,Plated,PTH,ComponentDrill
T6C1.200
; #@! TA.AperFunction,Plated,PTH,ComponentDrill
T7C1.295
; #@! TA.AperFunction,NonPlated,NPTH,ComponentDrill
T8C3.200
%
G90
G05
T1
X20.9Y-57.0
X23.4Y-47.8
X24.0Y-68.9
X24.3Y-64.1
X25.9Y-60.0
X26.9Y-48.7
X27.3Y-64.2
X27.4Y-43.2
X28.3Y-46.8
X29.4Y-53.0
X29.4Y-57.9
X30.2Y-49.05
X30.2Y-69.8
X30.5Y-55.6
X32.0Y-38.8
X34.0Y-43.8
X34.1Y-49.4
X34.3Y-58.5
X34.3Y-59.5
X34.3Y-60.7
X34.3Y-61.8
X34.4Y-53.1
X34.4Y-62.9
X34.9Y-16.6
X35.0Y-18.3
X35.0Y-20.4
X35.4Y-63.2
X35.5Y-58.5
X35.5Y-59.5
X35.5Y-60.9
X35.5Y-62.2
X35.6Y-14.9
X36.2Y-55.0
X36.6Y-19.4
X36.6Y-78.2
X36.7Y-75.3
X37.0Y-17.8
X37.7Y-16.1
X38.4Y-36.8
X38.9Y-19.4
X39.1Y-14.9
X39.2Y-17.8
X40.1Y-16.5
X40.7Y-37.7
X40.825Y-59.876
X40.825Y-62.025
X41.1Y-19.7
X41.2Y-49.9
X41.2Y-53.6
X41.3Y-69.2
X41.3Y-72.7
X41.4Y-23.0
X41.4Y-42.0
X41.5Y-21.5
X41.6Y-15.1
X41.7Y-17.4
X42.8Y-44.3
X43.5Y-36.8
X43.5Y-81.3
X44.725Y-66.125
X45.025Y-56.725
X45.6Y-42.0
X48.4Y-39.2
X49.3Y-47.9
X49.6Y-37.6
X49.9Y-81.5
X51.2Y-36.7
X53.8Y-74.9
X54.3Y-78.4
X54.4Y-36.7
X57.7Y-58.6
X58.0Y-64.3
X58.4Y-33.2
X60.3Y-35.3
X64.0Y-80.2
X64.7Y-31.9
X66.5Y-82.708
X71.9Y-39.5
X72.7Y-28.5
X72.8Y-69.7
X75.0Y-33.3
X75.6Y-68.7
X75.7Y-55.1
X75.8Y-51.7
X76.3Y-49.3
X76.4Y-28.5
X77.2Y-32.4
X80.5Y-28.4
X80.6Y-56.3
X82.1Y-78.6
X82.4Y-32.3
X82.4Y-59.6
X83.0Y-73.7
X84.0Y-71.2
X84.9Y-48.0
X85.7Y-32.7
X85.7Y-79.3
X86.0Y-54.2
X86.2Y-48.5
X86.2Y-59.9
X86.2Y-63.0
X86.6Y-40.3
X86.6Y-43.8
X86.9Y-78.1
X87.2Y-24.3
X87.2Y-47.4
X87.2Y-52.0
X89.4Y-32.4
X89.599Y-45.5
X89.6Y-59.6
X90.8Y-42.1
X91.1Y-49.2
X91.3Y-53.7
X92.1Y-49.8
X92.8Y-37.5
X92.9Y-84.4
X93.1Y-66.4
X93.2Y-52.7
X93.3Y-31.9
X93.6Y-38.9
X93.6Y-43.4
X94.8Y-49.5
X95.5Y-52.9
X96.0Y-81.2
X96.2Y-69.1
X96.7Y-44.6
X96.8Y-59.5
X97.3Y-24.9
X97.3Y-55.0
X97.7Y-34.0
X98.7Y-78.9
X99.0Y-61.5
X99.0Y-64.1
X99.8Y-37.0
X99.8Y-49.5
X100.8Y-57.6
X100.8Y-76.8
X101.0Y-24.9
X101.0Y-30.6
X101.1Y-63.4
X108.1Y-25.4
X110.1Y-54.2
X110.2Y-42.3
X110.2Y-69.4
X110.5Y-62.2
X111.3Y-31.5
X111.4Y-73.1
X112.8Y-66.3
X113.1Y-39.0
X113.1Y-44.8
X113.3Y-62.2
X113.5Y-54.2
X114.3Y-40.0
X114.3Y-70.5
X115.9Y-39.8
T2
X24.8Y-26.2
X27.3Y-26.2
X43.925Y-47.925
X44.125Y-74.925
X46.425Y-47.925
X46.625Y-74.925
T3
X64.0Y-77.908
X64.0Y-84.158
X66.5Y-84.158
X69.0Y-77.908
X69.0Y-84.158
T4
X84.7Y-85.308
X89.2Y-85.308
T5
X31.7Y-33.2
X50.3Y-27.9
X78.6Y-19.85
X78.7Y-65.6
X79.2Y-35.1
X81.14Y-19.85
X90.4Y-19.825
X92.94Y-19.825
X101.2Y-16.1
X104.26Y-29.5
X104.26Y-32.04
X104.26Y-34.58
X104.26Y-37.12
X104.26Y-39.66
X104.26Y-42.2
X104.26Y-44.74
X104.26Y-47.28
X104.26Y-49.82
X104.26Y-52.36
X104.26Y-54.9
X104.26Y-57.44
X104.26Y-59.98
X104.26Y-62.52
X104.26Y-65.06
X104.26Y-67.6
X104.26Y-70.14
X104.26Y-72.68
X104.26Y-75.22
X104.26Y-77.76
X106.8Y-29.5
X106.8Y-32.04
X106.8Y-34.58
X106.8Y-37.12
X106.8Y-39.66
X106.8Y-42.2
X106.8Y-44.74
X106.8Y-47.28
X106.8Y-49.82
X106.8Y-52.36
X106.8Y-54.9
X106.8Y-57.44
X106.8Y-59.98
X106.8Y-62.52
X106.8Y-65.06
X106.8Y-67.6
X106.8Y-70.14
X106.8Y-72.68
X106.8Y-75.22
X106.8Y-77.76
X116.025Y-44.0
X116.025Y-46.54
X116.025Y-49.08
X116.025Y-51.62
X116.025Y-54.16
X116.025Y-56.7
X116.025Y-59.24
X116.025Y-61.78
X116.025Y-64.32
X116.025Y-66.86
T6
X65.162Y-57.625
X68.662Y-62.625
T7
X83.445Y-82.818
X90.455Y-82.818
T8
X20.0Y-18.6
X20.0Y-84.0
X113.0Y-18.6
X113.0Y-84.0
T5
G00X33.7Y-25.7
M15
G01X33.7Y-23.7
M16
G05
G00X37.4Y-21.7
M15
G01X39.4Y-21.7
M16
G05
G00X37.15Y-27.7
M15
G01X39.65Y-27.7
M16
G05
T0
M30
