%TF.GenerationSoftware,KiCad,Pcbnew,7.0.5*%
%TF.CreationDate,2024-08-13T10:45:48+03:00*%
%TF.ProjectId,Ateja_V4.1,4174656a-615f-4563-942e-312e6b696361,rev?*%
%TF.SameCoordinates,Original*%
%TF.FileFunction,Soldermask,Bot*%
%TF.FilePolarity,Negative*%
%FSLAX46Y46*%
G04 Gerber Fmt 4.6, Leading zero omitted, Abs format (unit mm)*
G04 Created by KiCad (PCBNEW 7.0.5) date 2024-08-13 10:45:48*
%MOMM*%
%LPD*%
G01*
G04 APERTURE LIST*
G04 Aperture macros list*
%AMRoundRect*
0 Rectangle with rounded corners*
0 $1 Rounding radius*
0 $2 $3 $4 $5 $6 $7 $8 $9 X,Y pos of 4 corners*
0 Add a 4 corners polygon primitive as box body*
4,1,4,$2,$3,$4,$5,$6,$7,$8,$9,$2,$3,0*
0 Add four circle primitives for the rounded corners*
1,1,$1+$1,$2,$3*
1,1,$1+$1,$4,$5*
1,1,$1+$1,$6,$7*
1,1,$1+$1,$8,$9*
0 Add four rect primitives between the rounded corners*
20,1,$1+$1,$2,$3,$4,$5,0*
20,1,$1+$1,$4,$5,$6,$7,0*
20,1,$1+$1,$6,$7,$8,$9,0*
20,1,$1+$1,$8,$9,$2,$3,0*%
G04 Aperture macros list end*
%ADD10C,1.498600*%
%ADD11C,1.803400*%
%ADD12R,1.700000X1.700000*%
%ADD13O,1.700000X1.700000*%
%ADD14C,3.200000*%
%ADD15C,1.320800*%
%ADD16R,1.600000X1.600000*%
%ADD17C,1.600000*%
%ADD18O,5.204000X2.704000*%
%ADD19O,4.704000X2.454000*%
%ADD20O,2.454000X4.704000*%
%ADD21RoundRect,0.102000X-0.900000X-0.900000X0.900000X-0.900000X0.900000X0.900000X-0.900000X0.900000X0*%
%ADD22C,2.004000*%
G04 APERTURE END LIST*
D10*
%TO.C,SW1*%
X84699999Y-85307949D03*
X89200000Y-85307949D03*
D11*
X83444999Y-82817650D03*
X90455000Y-82817650D03*
%TD*%
D12*
%TO.C,J11*%
X78600000Y-19850000D03*
D13*
X81140000Y-19850000D03*
%TD*%
D12*
%TO.C,J10*%
X90400000Y-19825000D03*
D13*
X92940000Y-19825000D03*
%TD*%
D12*
%TO.C,J6*%
X79200000Y-35100000D03*
%TD*%
%TO.C,J1*%
X106800000Y-77760000D03*
D13*
X104260000Y-77760000D03*
X106800000Y-75220000D03*
X104260000Y-75220000D03*
X106800000Y-72680000D03*
X104260000Y-72680000D03*
X106800000Y-70140000D03*
X104260000Y-70140000D03*
X106800000Y-67600000D03*
X104260000Y-67600000D03*
X106800000Y-65060000D03*
X104260000Y-65060000D03*
X106800000Y-62520000D03*
X104260000Y-62520000D03*
X106800000Y-59980000D03*
X104260000Y-59980000D03*
X106800000Y-57440000D03*
X104260000Y-57440000D03*
X106800000Y-54900000D03*
X104260000Y-54900000D03*
X106800000Y-52360000D03*
X104260000Y-52360000D03*
X106800000Y-49820000D03*
X104260000Y-49820000D03*
X106800000Y-47280000D03*
X104260000Y-47280000D03*
X106800000Y-44740000D03*
X104260000Y-44740000D03*
X106800000Y-42200000D03*
X104260000Y-42200000D03*
X106800000Y-39660000D03*
X104260000Y-39660000D03*
X106800000Y-37120000D03*
X104260000Y-37120000D03*
X106800000Y-34580000D03*
X104260000Y-34580000D03*
X106800000Y-32040000D03*
X104260000Y-32040000D03*
X106800000Y-29500000D03*
X104260000Y-29500000D03*
%TD*%
D12*
%TO.C,J5*%
X116025000Y-44000000D03*
D13*
X116025000Y-46540000D03*
X116025000Y-49080000D03*
X116025000Y-51620000D03*
X116025000Y-54160000D03*
X116025000Y-56700000D03*
X116025000Y-59240000D03*
X116025000Y-61780000D03*
X116025000Y-64320000D03*
X116025000Y-66860000D03*
%TD*%
D12*
%TO.C,J7*%
X31700000Y-33200000D03*
%TD*%
D14*
%TO.C,H1*%
X113000000Y-18600000D03*
%TD*%
%TO.C,H2*%
X20000000Y-18600000D03*
%TD*%
D15*
%TO.C,U5*%
X64000000Y-84157600D03*
X66500000Y-84157600D03*
X69000000Y-84157600D03*
X64000000Y-77907601D03*
X69000000Y-77907601D03*
%TD*%
D12*
%TO.C,J9*%
X78700000Y-65600000D03*
%TD*%
D16*
%TO.C,C40*%
X27300000Y-26200000D03*
D17*
X24800000Y-26200000D03*
%TD*%
D18*
%TO.C,J3*%
X38400000Y-27700000D03*
D19*
X38400000Y-21700000D03*
D20*
X33700000Y-24700000D03*
%TD*%
D16*
%TO.C,C25*%
X43925000Y-47925000D03*
D17*
X46425000Y-47925000D03*
%TD*%
D16*
%TO.C,C28*%
X44125000Y-74925000D03*
D17*
X46625000Y-74925000D03*
%TD*%
D21*
%TO.C,J4*%
X65162500Y-57625000D03*
D22*
X68662500Y-62625000D03*
%TD*%
D12*
%TO.C,J2*%
X101200000Y-16100000D03*
%TD*%
%TO.C,J8*%
X50300000Y-27900000D03*
%TD*%
D14*
%TO.C,H4*%
X113000000Y-84000000D03*
%TD*%
%TO.C,H3*%
X20000000Y-84000000D03*
%TD*%
M02*
