%TF.GenerationSoftware,KiCad,Pcbnew,7.0.5*%
%TF.CreationDate,2024-08-13T10:45:48+03:00*%
%TF.ProjectId,Ateja_V4.1,4174656a-615f-4563-942e-312e6b696361,rev?*%
%TF.SameCoordinates,Original*%
%TF.FileFunction,Copper,L2,Bot*%
%TF.FilePolarity,Positive*%
%FSLAX46Y46*%
G04 Gerber Fmt 4.6, Leading zero omitted, Abs format (unit mm)*
G04 Created by KiCad (PCBNEW 7.0.5) date 2024-08-13 10:45:48*
%MOMM*%
%LPD*%
G01*
G04 APERTURE LIST*
%TA.AperFunction,ComponentPad*%
%ADD10C,1.498600*%
%TD*%
%TA.AperFunction,ComponentPad*%
%ADD11C,1.803400*%
%TD*%
%TA.AperFunction,ComponentPad*%
%ADD12R,1.700000X1.700000*%
%TD*%
%TA.AperFunction,ComponentPad*%
%ADD13O,1.700000X1.700000*%
%TD*%
%TA.AperFunction,ComponentPad*%
%ADD14C,1.320800*%
%TD*%
%TA.AperFunction,ComponentPad*%
%ADD15R,1.600000X1.600000*%
%TD*%
%TA.AperFunction,ComponentPad*%
%ADD16C,1.600000*%
%TD*%
%TA.AperFunction,ComponentPad*%
%ADD17O,5.000000X2.500000*%
%TD*%
%TA.AperFunction,ComponentPad*%
%ADD18O,4.500000X2.250000*%
%TD*%
%TA.AperFunction,ComponentPad*%
%ADD19O,2.250000X4.500000*%
%TD*%
%TA.AperFunction,ComponentPad*%
%ADD20R,1.800000X1.800000*%
%TD*%
%TA.AperFunction,ComponentPad*%
%ADD21C,1.800000*%
%TD*%
%TA.AperFunction,ViaPad*%
%ADD22C,0.800000*%
%TD*%
%TA.AperFunction,Conductor*%
%ADD23C,0.300000*%
%TD*%
%TA.AperFunction,Conductor*%
%ADD24C,0.500000*%
%TD*%
%TA.AperFunction,Conductor*%
%ADD25C,0.400000*%
%TD*%
%TA.AperFunction,Conductor*%
%ADD26C,0.200000*%
%TD*%
G04 APERTURE END LIST*
D10*
%TO.P,SW1,1,1*%
%TO.N,Net-(SW1-Pad1)*%
X84699999Y-85307949D03*
%TO.P,SW1,2,2*%
%TO.N,/POWER_OFF*%
X89200000Y-85307949D03*
D11*
%TO.P,SW1,3,3*%
%TO.N,Net-(SW1-Pad1)*%
X83444999Y-82817650D03*
%TO.P,SW1,4,4*%
%TO.N,GND*%
X90455000Y-82817650D03*
%TD*%
D12*
%TO.P,J11,1,Pin_1*%
%TO.N,GND*%
X78600000Y-19850000D03*
D13*
%TO.P,J11,2,Pin_2*%
X81140000Y-19850000D03*
%TD*%
D12*
%TO.P,J10,1,Pin_1*%
%TO.N,/3V3*%
X90400000Y-19825000D03*
D13*
%TO.P,J10,2,Pin_2*%
X92940000Y-19825000D03*
%TD*%
D12*
%TO.P,J6,1,Pin_1*%
%TO.N,/5V*%
X79200000Y-35100000D03*
%TD*%
%TO.P,J1,1,Pin_1*%
%TO.N,/5V*%
X106800000Y-77760000D03*
D13*
%TO.P,J1,2,Pin_2*%
%TO.N,unconnected-(J1-Pin_2-Pad2)*%
X104260000Y-77760000D03*
%TO.P,J1,3,Pin_3*%
%TO.N,/5V*%
X106800000Y-75220000D03*
%TO.P,J1,4,Pin_4*%
%TO.N,/GPIO_2*%
X104260000Y-75220000D03*
%TO.P,J1,5,Pin_5*%
%TO.N,GND*%
X106800000Y-72680000D03*
%TO.P,J1,6,Pin_6*%
%TO.N,/GPIO_3*%
X104260000Y-72680000D03*
%TO.P,J1,7,Pin_7*%
%TO.N,unconnected-(J1-Pin_7-Pad7)*%
X106800000Y-70140000D03*
%TO.P,J1,8,Pin_8*%
%TO.N,/POWER_OFF*%
X104260000Y-70140000D03*
%TO.P,J1,9,Pin_9*%
%TO.N,unconnected-(J1-Pin_9-Pad9)*%
X106800000Y-67600000D03*
%TO.P,J1,10,Pin_10*%
%TO.N,GND*%
X104260000Y-67600000D03*
%TO.P,J1,11,Pin_11*%
%TO.N,/BCK*%
X106800000Y-65060000D03*
%TO.P,J1,12,Pin_12*%
%TO.N,/GPIO_17*%
X104260000Y-65060000D03*
%TO.P,J1,13,Pin_13*%
%TO.N,GND*%
X106800000Y-62520000D03*
%TO.P,J1,14,Pin_14*%
%TO.N,unconnected-(J1-Pin_14-Pad14)*%
X104260000Y-62520000D03*
%TO.P,J1,15,Pin_15*%
%TO.N,/LED_ACTIVE*%
X106800000Y-59980000D03*
%TO.P,J1,16,Pin_16*%
%TO.N,/GPIO_22*%
X104260000Y-59980000D03*
%TO.P,J1,17,Pin_17*%
%TO.N,unconnected-(J1-Pin_17-Pad17)*%
X106800000Y-57440000D03*
%TO.P,J1,18,Pin_18*%
%TO.N,unconnected-(J1-Pin_18-Pad18)*%
X104260000Y-57440000D03*
%TO.P,J1,19,Pin_19*%
%TO.N,GND*%
X106800000Y-54900000D03*
%TO.P,J1,20,Pin_20*%
%TO.N,/GPIO_10*%
X104260000Y-54900000D03*
%TO.P,J1,21,Pin_21*%
%TO.N,unconnected-(J1-Pin_21-Pad21)*%
X106800000Y-52360000D03*
%TO.P,J1,22,Pin_22*%
%TO.N,/GPIO_9*%
X104260000Y-52360000D03*
%TO.P,J1,23,Pin_23*%
%TO.N,unconnected-(J1-Pin_23-Pad23)*%
X106800000Y-49820000D03*
%TO.P,J1,24,Pin_24*%
%TO.N,/GPIO_11*%
X104260000Y-49820000D03*
%TO.P,J1,25,Pin_25*%
%TO.N,unconnected-(J1-Pin_25-Pad25)*%
X106800000Y-47280000D03*
%TO.P,J1,26,Pin_26*%
%TO.N,GND*%
X104260000Y-47280000D03*
%TO.P,J1,27,Pin_27*%
%TO.N,unconnected-(J1-Pin_27-Pad27)*%
X106800000Y-44740000D03*
%TO.P,J1,28,Pin_28*%
%TO.N,unconnected-(J1-Pin_28-Pad28)*%
X104260000Y-44740000D03*
%TO.P,J1,29,Pin_29*%
%TO.N,GND*%
X106800000Y-42200000D03*
%TO.P,J1,30,Pin_30*%
%TO.N,/GPIO_5*%
X104260000Y-42200000D03*
%TO.P,J1,31,Pin_31*%
%TO.N,unconnected-(J1-Pin_31-Pad31)*%
X106800000Y-39660000D03*
%TO.P,J1,32,Pin_32*%
%TO.N,/GPIO_6*%
X104260000Y-39660000D03*
%TO.P,J1,33,Pin_33*%
%TO.N,GND*%
X106800000Y-37120000D03*
%TO.P,J1,34,Pin_34*%
%TO.N,/GPIO_13*%
X104260000Y-37120000D03*
%TO.P,J1,35,Pin_35*%
%TO.N,unconnected-(J1-Pin_35-Pad35)*%
X106800000Y-34580000D03*
%TO.P,J1,36,Pin_36*%
%TO.N,/LRCK*%
X104260000Y-34580000D03*
%TO.P,J1,37,Pin_37*%
%TO.N,/MUTE_LOW*%
X106800000Y-32040000D03*
%TO.P,J1,38,Pin_38*%
%TO.N,unconnected-(J1-Pin_38-Pad38)*%
X104260000Y-32040000D03*
%TO.P,J1,39,Pin_39*%
%TO.N,/DIN*%
X106800000Y-29500000D03*
%TO.P,J1,40,Pin_40*%
%TO.N,GND*%
X104260000Y-29500000D03*
%TD*%
D12*
%TO.P,J5,1,Pin_1*%
%TO.N,/GPIO_13*%
X116025000Y-44000000D03*
D13*
%TO.P,J5,2,Pin_2*%
%TO.N,/GPIO_6*%
X116025000Y-46540000D03*
%TO.P,J5,3,Pin_3*%
%TO.N,/GPIO_5*%
X116025000Y-49080000D03*
%TO.P,J5,4,Pin_4*%
%TO.N,/GPIO_11*%
X116025000Y-51620000D03*
%TO.P,J5,5,Pin_5*%
%TO.N,/GPIO_9*%
X116025000Y-54160000D03*
%TO.P,J5,6,Pin_6*%
%TO.N,/GPIO_10*%
X116025000Y-56700000D03*
%TO.P,J5,7,Pin_7*%
%TO.N,/GPIO_22*%
X116025000Y-59240000D03*
%TO.P,J5,8,Pin_8*%
%TO.N,/GPIO_17*%
X116025000Y-61780000D03*
%TO.P,J5,9,Pin_9*%
%TO.N,/GPIO_3*%
X116025000Y-64320000D03*
%TO.P,J5,10,Pin_10*%
%TO.N,/GPIO_2*%
X116025000Y-66860000D03*
%TD*%
D12*
%TO.P,J7,1,Pin_1*%
%TO.N,VCC*%
X31700000Y-33200000D03*
%TD*%
D14*
%TO.P,U5,1,1*%
%TO.N,GND*%
X64000000Y-84157600D03*
%TO.P,U5,2,2*%
%TO.N,Net-(J9-Pin_1)*%
X66500000Y-84157600D03*
%TO.P,U5,3,3*%
%TO.N,/INP*%
X69000000Y-84157600D03*
%TO.P,U5,4,4*%
%TO.N,VCC*%
X64000000Y-77907601D03*
%TO.P,U5,6,6*%
%TO.N,/AMP_SD*%
X69000000Y-77907601D03*
%TD*%
D12*
%TO.P,J9,1,Pin_1*%
%TO.N,Net-(J9-Pin_1)*%
X78700000Y-65600000D03*
%TD*%
D15*
%TO.P,C40,1*%
%TO.N,VCC*%
X27300000Y-26200000D03*
D16*
%TO.P,C40,2*%
%TO.N,GND*%
X24800000Y-26200000D03*
%TD*%
D17*
%TO.P,J3,1*%
%TO.N,VCC*%
X38400000Y-27700000D03*
D18*
%TO.P,J3,2*%
%TO.N,GND*%
X38400000Y-21700000D03*
D19*
%TO.P,J3,3*%
%TO.N,unconnected-(J3-Pad3)*%
X33700000Y-24700000D03*
%TD*%
D15*
%TO.P,C25,1*%
%TO.N,VCC*%
X43925000Y-47925000D03*
D16*
%TO.P,C25,2*%
%TO.N,GND*%
X46425000Y-47925000D03*
%TD*%
D15*
%TO.P,C28,1*%
%TO.N,VCC*%
X44125000Y-74925000D03*
D16*
%TO.P,C28,2*%
%TO.N,GND*%
X46625000Y-74925000D03*
%TD*%
D20*
%TO.P,J4,1,1*%
%TO.N,Net-(C33-Pad2)*%
X65162500Y-57625000D03*
D21*
%TO.P,J4,2,2*%
%TO.N,Net-(C34-Pad1)*%
X68662500Y-62625000D03*
%TD*%
D12*
%TO.P,J2,1,Pin_1*%
%TO.N,/3V3*%
X101200000Y-16100000D03*
%TD*%
%TO.P,J8,1,Pin_1*%
%TO.N,GND*%
X50300000Y-27900000D03*
%TD*%
D22*
%TO.N,VCC*%
X28300000Y-46800000D03*
X25900000Y-60000000D03*
X30200000Y-69800000D03*
X58400000Y-33200001D03*
X64700000Y-31900000D03*
%TO.N,GND*%
X113100000Y-44800000D03*
X24300000Y-64100000D03*
X75600000Y-68700000D03*
X71900000Y-39500000D03*
X32000000Y-38800000D03*
X84900000Y-48000000D03*
X58000000Y-64300000D03*
X35400000Y-63200000D03*
X86600000Y-43800000D03*
X77200000Y-32400000D03*
X45600000Y-42000000D03*
X41100000Y-19700000D03*
X72800000Y-69700000D03*
X24000000Y-68900000D03*
X101100000Y-63400000D03*
X60300000Y-35300000D03*
X49600000Y-37600000D03*
X36700000Y-75300000D03*
X34300000Y-59500000D03*
X35500000Y-60900000D03*
X101000000Y-24900000D03*
X38900000Y-19400000D03*
X40700000Y-37700000D03*
X49900000Y-81500000D03*
X35000000Y-18300000D03*
X110100000Y-54200000D03*
X34900000Y-16600000D03*
X75800000Y-51700000D03*
X113300000Y-62200000D03*
X41400000Y-42000000D03*
X34300000Y-61800000D03*
X41600000Y-15100000D03*
X40100000Y-16500000D03*
X89400000Y-32400000D03*
X108100000Y-25400000D03*
X43500000Y-36800000D03*
X38400000Y-36800000D03*
X96800000Y-59500000D03*
X72700000Y-28500000D03*
X57700000Y-58600000D03*
X91100000Y-49200000D03*
X86200000Y-59900000D03*
X80500000Y-28400000D03*
X86900000Y-78100000D03*
X111300000Y-31500000D03*
X113100000Y-39000000D03*
X42800000Y-44300000D03*
X75000000Y-33300000D03*
X93600000Y-43400000D03*
X41400000Y-23000000D03*
X39200000Y-17800000D03*
X85700000Y-32700000D03*
X82400000Y-59600000D03*
X86600000Y-40300000D03*
X111400000Y-73100000D03*
X98700000Y-78900000D03*
X34300000Y-60700000D03*
X27400000Y-43200000D03*
X34400000Y-62900000D03*
X115900000Y-39800000D03*
X35500000Y-62200000D03*
X95500000Y-52900000D03*
X93300000Y-31900000D03*
X86000000Y-54200000D03*
X41200000Y-49900000D03*
X36600000Y-19400000D03*
X36600000Y-78200000D03*
X110200000Y-42300000D03*
X54300000Y-78400000D03*
X96200000Y-69100000D03*
X35500000Y-58500000D03*
X97300000Y-55000000D03*
X48400000Y-39200000D03*
X89599500Y-45500000D03*
X87200000Y-52000000D03*
X23400000Y-47800000D03*
X100800000Y-76800000D03*
X37700000Y-16100000D03*
X87200000Y-47400000D03*
X34000000Y-43800000D03*
X37000000Y-17800000D03*
X93600000Y-38900000D03*
X41500000Y-21500000D03*
X34300000Y-58500000D03*
X49300000Y-47900000D03*
X51200000Y-36700000D03*
X76300000Y-49300000D03*
X96700000Y-44600000D03*
X86200000Y-48500000D03*
X93100000Y-66400000D03*
X41300000Y-69200000D03*
X112800000Y-66300000D03*
X110200000Y-69400000D03*
X76400000Y-28500000D03*
X114300000Y-40000000D03*
X35600000Y-14900000D03*
X113500000Y-54200000D03*
X87200000Y-24300000D03*
X35500000Y-59500000D03*
X92900000Y-84400000D03*
X41300000Y-72700000D03*
X89600000Y-59600000D03*
X34100000Y-49400000D03*
X114300000Y-70500000D03*
X27300000Y-64200000D03*
X20900000Y-57000000D03*
X35000000Y-20400000D03*
X26900000Y-48700000D03*
X39100000Y-14900000D03*
X54400000Y-36700000D03*
X86200000Y-63000000D03*
X75700000Y-55100000D03*
X41700000Y-17400000D03*
X97300000Y-24900000D03*
X36200000Y-55000000D03*
X91300000Y-53700000D03*
X34400000Y-53100000D03*
X100800000Y-57600000D03*
X101000000Y-30600000D03*
X85700000Y-79300000D03*
X90800000Y-42100000D03*
X110500000Y-62200000D03*
X30200000Y-49050000D03*
X97700000Y-34000000D03*
X41200000Y-53600000D03*
X96000000Y-81200000D03*
%TO.N,/5V*%
X82400000Y-32300000D03*
%TO.N,Net-(C31-Pad2)*%
X45025000Y-56725000D03*
X40825000Y-59875568D03*
%TO.N,Net-(C32-Pad2)*%
X40825000Y-62025000D03*
X44725000Y-66125000D03*
%TO.N,/BCK*%
X93200000Y-52700000D03*
%TO.N,/LRCK*%
X92100000Y-49800000D03*
%TO.N,Net-(U4-GAIN0)*%
X29400000Y-57900000D03*
X29400000Y-53000000D03*
%TO.N,/MUTE_LOW*%
X94800000Y-49500000D03*
X99000000Y-64100000D03*
X99000000Y-61500000D03*
X99800000Y-49500000D03*
%TO.N,/AMP_SD*%
X30500000Y-55600000D03*
X64000000Y-80200000D03*
%TO.N,Net-(J9-Pin_1)*%
X66500000Y-82707601D03*
X84000000Y-71200000D03*
%TO.N,/3V3*%
X92800000Y-37500000D03*
X99800000Y-37000000D03*
X82100000Y-78600000D03*
X80600000Y-56300000D03*
X83000000Y-73700000D03*
%TO.N,/LED_ACTIVE*%
X43500000Y-81300000D03*
X53800000Y-74900000D03*
%TD*%
D23*
%TO.N,VCC*%
X28300000Y-48660661D02*
X28300000Y-46800000D01*
X46792399Y-60700000D02*
X40339339Y-60700000D01*
X59700001Y-31900000D02*
X58400000Y-33200001D01*
D24*
X30200000Y-69800000D02*
X25900000Y-65500000D01*
D23*
X64700000Y-31900000D02*
X59700001Y-31900000D01*
X64000000Y-77907601D02*
X46792399Y-60700000D01*
X40339339Y-60700000D02*
X28300000Y-48660661D01*
D24*
X25900000Y-65500000D02*
X25900000Y-60000000D01*
D25*
%TO.N,/5V*%
X107400000Y-27500000D02*
X108800000Y-28900000D01*
X106800000Y-75220000D02*
X106800000Y-77760000D01*
X82400000Y-32300000D02*
X87200000Y-27500000D01*
X108800000Y-73220000D02*
X106800000Y-75220000D01*
X82400000Y-32300000D02*
X79600000Y-35100000D01*
X108800000Y-28900000D02*
X108800000Y-73220000D01*
D23*
X79600000Y-35100000D02*
X79200000Y-35100000D01*
D25*
X87200000Y-27500000D02*
X107400000Y-27500000D01*
D23*
%TO.N,Net-(C31-Pad2)*%
X41874432Y-59875568D02*
X45025000Y-56725000D01*
X40825000Y-59875568D02*
X41874432Y-59875568D01*
%TO.N,Net-(C32-Pad2)*%
X40825000Y-62025000D02*
X44725000Y-65925000D01*
X44725000Y-65925000D02*
X44725000Y-66125000D01*
D26*
%TO.N,/BCK*%
X93200000Y-52700000D02*
X93200000Y-52800000D01*
X102700000Y-62300000D02*
X102700000Y-63100000D01*
X105540000Y-63800000D02*
X106800000Y-65060000D01*
X102700000Y-63100000D02*
X103400000Y-63800000D01*
X103400000Y-63800000D02*
X105540000Y-63800000D01*
X93200000Y-52800000D02*
X102700000Y-62300000D01*
%TO.N,/LRCK*%
X92100000Y-45900000D02*
X103420000Y-34580000D01*
X92100000Y-49800000D02*
X92100000Y-45900000D01*
X103420000Y-34580000D02*
X104260000Y-34580000D01*
D23*
%TO.N,Net-(U4-GAIN0)*%
X29400000Y-57900000D02*
X29400000Y-53000000D01*
D26*
%TO.N,/MUTE_LOW*%
X99000000Y-64100000D02*
X99000000Y-61500000D01*
X99800000Y-49500000D02*
X94800000Y-49500000D01*
%TO.N,/AMP_SD*%
X34300000Y-55600000D02*
X40025000Y-61325000D01*
X30500000Y-55600000D02*
X34300000Y-55600000D01*
X40025000Y-61325000D02*
X45125000Y-61325000D01*
X45125000Y-61325000D02*
X64000000Y-80200000D01*
D23*
%TO.N,Net-(J9-Pin_1)*%
X66500000Y-75300000D02*
X66500000Y-82707601D01*
D26*
X84000000Y-71200000D02*
X81000000Y-74200000D01*
X67600000Y-74200000D02*
X66500000Y-75300000D01*
X81000000Y-74200000D02*
X67600000Y-74200000D01*
%TO.N,/3V3*%
X99800000Y-37000000D02*
X93300000Y-37000000D01*
D23*
X83000000Y-77700000D02*
X82100000Y-78600000D01*
D26*
X93300000Y-37000000D02*
X92800000Y-37500000D01*
D23*
X83000000Y-73700000D02*
X83000000Y-77700000D01*
X92800000Y-44100000D02*
X92800000Y-37500000D01*
X80600000Y-56300000D02*
X92800000Y-44100000D01*
D26*
%TO.N,/LED_ACTIVE*%
X47400000Y-81300000D02*
X43500000Y-81300000D01*
X53800000Y-74900000D02*
X47400000Y-81300000D01*
%TD*%
%TA.AperFunction,Conductor*%
%TO.N,GND*%
G36*
X105614855Y-70806546D02*
G01*
X105631575Y-70825842D01*
X105761500Y-71011395D01*
X105761505Y-71011401D01*
X105928599Y-71178495D01*
X105966255Y-71204862D01*
X106122165Y-71314032D01*
X106122167Y-71314033D01*
X106122170Y-71314035D01*
X106336337Y-71413903D01*
X106564592Y-71475063D01*
X106752918Y-71491539D01*
X106799999Y-71495659D01*
X106800000Y-71495659D01*
X106800001Y-71495659D01*
X106839234Y-71492226D01*
X107035408Y-71475063D01*
X107263663Y-71413903D01*
X107477830Y-71314035D01*
X107671401Y-71178495D01*
X107838495Y-71011401D01*
X107873925Y-70960800D01*
X107928499Y-70917177D01*
X107997998Y-70909983D01*
X108060353Y-70941505D01*
X108095767Y-71001734D01*
X108099499Y-71031925D01*
X108099499Y-72878480D01*
X108079814Y-72945519D01*
X108063180Y-72966161D01*
X107171994Y-73857347D01*
X107110671Y-73890832D01*
X107052225Y-73889442D01*
X107035410Y-73884937D01*
X106800001Y-73864341D01*
X106799999Y-73864341D01*
X106564596Y-73884936D01*
X106564586Y-73884938D01*
X106336344Y-73946094D01*
X106336335Y-73946098D01*
X106122171Y-74045964D01*
X106122169Y-74045965D01*
X105928597Y-74181505D01*
X105761505Y-74348597D01*
X105631575Y-74534158D01*
X105576998Y-74577783D01*
X105507500Y-74584977D01*
X105445145Y-74553454D01*
X105428425Y-74534158D01*
X105298494Y-74348597D01*
X105131402Y-74181506D01*
X105131396Y-74181501D01*
X104945842Y-74051575D01*
X104902217Y-73996998D01*
X104895023Y-73927500D01*
X104926546Y-73865145D01*
X104945842Y-73848425D01*
X105055386Y-73771721D01*
X105131401Y-73718495D01*
X105298495Y-73551401D01*
X105434035Y-73357830D01*
X105533903Y-73143663D01*
X105595063Y-72915408D01*
X105615659Y-72680000D01*
X105595063Y-72444592D01*
X105533903Y-72216337D01*
X105434035Y-72002171D01*
X105421418Y-71984151D01*
X105298494Y-71808597D01*
X105131402Y-71641506D01*
X105131396Y-71641501D01*
X104945842Y-71511575D01*
X104902217Y-71456998D01*
X104895023Y-71387500D01*
X104926546Y-71325145D01*
X104945842Y-71308425D01*
X104968524Y-71292543D01*
X105131401Y-71178495D01*
X105298495Y-71011401D01*
X105428424Y-70825842D01*
X105483002Y-70782217D01*
X105552500Y-70775023D01*
X105614855Y-70806546D01*
G37*
%TD.AperFunction*%
%TA.AperFunction,Conductor*%
G36*
X105614855Y-60646546D02*
G01*
X105631575Y-60665842D01*
X105761500Y-60851395D01*
X105761505Y-60851401D01*
X105928599Y-61018495D01*
X106025384Y-61086264D01*
X106122165Y-61154032D01*
X106122167Y-61154033D01*
X106122170Y-61154035D01*
X106336337Y-61253903D01*
X106564592Y-61315063D01*
X106752918Y-61331539D01*
X106799999Y-61335659D01*
X106800000Y-61335659D01*
X106800001Y-61335659D01*
X106839234Y-61332226D01*
X107035408Y-61315063D01*
X107263663Y-61253903D01*
X107477830Y-61154035D01*
X107671401Y-61018495D01*
X107838495Y-60851401D01*
X107873924Y-60800802D01*
X107928502Y-60757177D01*
X107998000Y-60749983D01*
X108060355Y-60781506D01*
X108095769Y-60841735D01*
X108099500Y-60871925D01*
X108099500Y-64168074D01*
X108079815Y-64235113D01*
X108027011Y-64280868D01*
X107957853Y-64290812D01*
X107894297Y-64261787D01*
X107873926Y-64239198D01*
X107838495Y-64188598D01*
X107671402Y-64021506D01*
X107671395Y-64021501D01*
X107477834Y-63885967D01*
X107477830Y-63885965D01*
X107477829Y-63885965D01*
X107263663Y-63786097D01*
X107263659Y-63786096D01*
X107263655Y-63786094D01*
X107035413Y-63724938D01*
X107035403Y-63724936D01*
X106800001Y-63704341D01*
X106799999Y-63704341D01*
X106564596Y-63724936D01*
X106564583Y-63724939D01*
X106436241Y-63759327D01*
X106366392Y-63757664D01*
X106316468Y-63727233D01*
X106157019Y-63567784D01*
X105995320Y-63406085D01*
X105989980Y-63399995D01*
X105968282Y-63371718D01*
X105842841Y-63275464D01*
X105696762Y-63214956D01*
X105666768Y-63211007D01*
X105609374Y-63203451D01*
X105545478Y-63175184D01*
X105507007Y-63116860D01*
X105506176Y-63046995D01*
X105513178Y-63028107D01*
X105524885Y-63003002D01*
X105533903Y-62983663D01*
X105595063Y-62755408D01*
X105615659Y-62520000D01*
X105614995Y-62512416D01*
X105604608Y-62393691D01*
X105595063Y-62284592D01*
X105533903Y-62056337D01*
X105434035Y-61842171D01*
X105426169Y-61830936D01*
X105298494Y-61648597D01*
X105131402Y-61481506D01*
X105131396Y-61481501D01*
X104945842Y-61351575D01*
X104902217Y-61296998D01*
X104895023Y-61227500D01*
X104926546Y-61165145D01*
X104945842Y-61148425D01*
X105011902Y-61102169D01*
X105131401Y-61018495D01*
X105298495Y-60851401D01*
X105428424Y-60665842D01*
X105483002Y-60622217D01*
X105552500Y-60615023D01*
X105614855Y-60646546D01*
G37*
%TD.AperFunction*%
%TA.AperFunction,Conductor*%
G36*
X105614854Y-53026546D02*
G01*
X105631574Y-53045841D01*
X105761505Y-53231401D01*
X105928599Y-53398495D01*
X106025384Y-53466264D01*
X106122165Y-53534032D01*
X106122167Y-53534033D01*
X106122170Y-53534035D01*
X106336337Y-53633903D01*
X106336343Y-53633904D01*
X106336344Y-53633905D01*
X106391285Y-53648626D01*
X106564592Y-53695063D01*
X106752918Y-53711539D01*
X106799999Y-53715659D01*
X106800000Y-53715659D01*
X106800001Y-53715659D01*
X106839234Y-53712226D01*
X107035408Y-53695063D01*
X107263663Y-53633903D01*
X107477830Y-53534035D01*
X107671401Y-53398495D01*
X107838495Y-53231401D01*
X107868703Y-53188259D01*
X107873925Y-53180802D01*
X107928502Y-53137177D01*
X107998000Y-53129983D01*
X108060355Y-53161506D01*
X108095769Y-53221735D01*
X108099500Y-53251925D01*
X108099500Y-56548074D01*
X108079815Y-56615113D01*
X108027011Y-56660868D01*
X107957853Y-56670812D01*
X107894297Y-56641787D01*
X107873926Y-56619198D01*
X107838495Y-56568598D01*
X107671402Y-56401506D01*
X107671395Y-56401501D01*
X107648670Y-56385589D01*
X107607434Y-56356715D01*
X107477834Y-56265967D01*
X107477830Y-56265965D01*
X107477828Y-56265964D01*
X107263663Y-56166097D01*
X107263659Y-56166096D01*
X107263655Y-56166094D01*
X107035413Y-56104938D01*
X107035403Y-56104936D01*
X106800001Y-56084341D01*
X106799999Y-56084341D01*
X106564596Y-56104936D01*
X106564586Y-56104938D01*
X106336344Y-56166094D01*
X106336335Y-56166098D01*
X106122171Y-56265964D01*
X106122169Y-56265965D01*
X105928597Y-56401505D01*
X105761505Y-56568597D01*
X105631575Y-56754158D01*
X105576998Y-56797783D01*
X105507500Y-56804977D01*
X105445145Y-56773454D01*
X105428425Y-56754158D01*
X105298494Y-56568597D01*
X105131402Y-56401506D01*
X105131396Y-56401501D01*
X104945842Y-56271575D01*
X104902217Y-56216998D01*
X104895023Y-56147500D01*
X104926546Y-56085145D01*
X104945842Y-56068425D01*
X105128036Y-55940851D01*
X105131401Y-55938495D01*
X105298495Y-55771401D01*
X105434035Y-55577830D01*
X105533903Y-55363663D01*
X105595063Y-55135408D01*
X105615659Y-54900000D01*
X105595063Y-54664592D01*
X105533903Y-54436337D01*
X105434035Y-54222171D01*
X105298495Y-54028599D01*
X105298494Y-54028597D01*
X105131402Y-53861506D01*
X105131396Y-53861501D01*
X104945842Y-53731575D01*
X104902217Y-53676998D01*
X104895023Y-53607500D01*
X104926546Y-53545145D01*
X104945842Y-53528425D01*
X104968026Y-53512891D01*
X105131401Y-53398495D01*
X105298495Y-53231401D01*
X105428426Y-53045840D01*
X105483001Y-53002217D01*
X105552499Y-52995023D01*
X105614854Y-53026546D01*
G37*
%TD.AperFunction*%
%TA.AperFunction,Conductor*%
G36*
X105614855Y-40326546D02*
G01*
X105631575Y-40345842D01*
X105761500Y-40531395D01*
X105761505Y-40531401D01*
X105928599Y-40698495D01*
X106025384Y-40766264D01*
X106122165Y-40834032D01*
X106122167Y-40834033D01*
X106122170Y-40834035D01*
X106336337Y-40933903D01*
X106564592Y-40995063D01*
X106752918Y-41011539D01*
X106799999Y-41015659D01*
X106800000Y-41015659D01*
X106800001Y-41015659D01*
X106839234Y-41012226D01*
X107035408Y-40995063D01*
X107263663Y-40933903D01*
X107477830Y-40834035D01*
X107671401Y-40698495D01*
X107838495Y-40531401D01*
X107873924Y-40480802D01*
X107928502Y-40437177D01*
X107998000Y-40429983D01*
X108060355Y-40461506D01*
X108095769Y-40521735D01*
X108099500Y-40551925D01*
X108099500Y-43848074D01*
X108079815Y-43915113D01*
X108027011Y-43960868D01*
X107957853Y-43970812D01*
X107894297Y-43941787D01*
X107873926Y-43919198D01*
X107838495Y-43868598D01*
X107671402Y-43701506D01*
X107671395Y-43701501D01*
X107477834Y-43565967D01*
X107477830Y-43565965D01*
X107477828Y-43565964D01*
X107263663Y-43466097D01*
X107263659Y-43466096D01*
X107263655Y-43466094D01*
X107035413Y-43404938D01*
X107035403Y-43404936D01*
X106800001Y-43384341D01*
X106799999Y-43384341D01*
X106564596Y-43404936D01*
X106564586Y-43404938D01*
X106336344Y-43466094D01*
X106336335Y-43466098D01*
X106122171Y-43565964D01*
X106122169Y-43565965D01*
X105928597Y-43701505D01*
X105761505Y-43868597D01*
X105631575Y-44054158D01*
X105576998Y-44097783D01*
X105507500Y-44104977D01*
X105445145Y-44073454D01*
X105428425Y-44054158D01*
X105298494Y-43868597D01*
X105131402Y-43701506D01*
X105131396Y-43701501D01*
X104945842Y-43571575D01*
X104902217Y-43516998D01*
X104895023Y-43447500D01*
X104926546Y-43385145D01*
X104945842Y-43368425D01*
X104968026Y-43352891D01*
X105131401Y-43238495D01*
X105298495Y-43071401D01*
X105434035Y-42877830D01*
X105533903Y-42663663D01*
X105595063Y-42435408D01*
X105615659Y-42200000D01*
X105595063Y-41964592D01*
X105533903Y-41736337D01*
X105434035Y-41522171D01*
X105298495Y-41328599D01*
X105298494Y-41328597D01*
X105131402Y-41161506D01*
X105131396Y-41161501D01*
X104945842Y-41031575D01*
X104902217Y-40976998D01*
X104895023Y-40907500D01*
X104926546Y-40845145D01*
X104945842Y-40828425D01*
X104968026Y-40812891D01*
X105131401Y-40698495D01*
X105298495Y-40531401D01*
X105428424Y-40345842D01*
X105483002Y-40302217D01*
X105552500Y-40295023D01*
X105614855Y-40326546D01*
G37*
%TD.AperFunction*%
%TA.AperFunction,Conductor*%
G36*
X99140781Y-37620185D02*
G01*
X99165891Y-37641527D01*
X99194128Y-37672887D01*
X99194133Y-37672892D01*
X99241014Y-37706952D01*
X99283681Y-37762282D01*
X99289660Y-37831895D01*
X99257055Y-37893690D01*
X99255811Y-37894952D01*
X93662181Y-43488583D01*
X93600858Y-43522068D01*
X93531166Y-43517084D01*
X93475233Y-43475212D01*
X93450816Y-43409748D01*
X93450500Y-43400902D01*
X93450500Y-38170921D01*
X93470185Y-38103882D01*
X93482351Y-38087948D01*
X93532533Y-38032216D01*
X93627179Y-37868284D01*
X93685674Y-37688256D01*
X93685673Y-37688256D01*
X93686348Y-37686182D01*
X93725786Y-37628506D01*
X93790144Y-37601308D01*
X93804279Y-37600500D01*
X99073742Y-37600500D01*
X99140781Y-37620185D01*
G37*
%TD.AperFunction*%
%TA.AperFunction,Conductor*%
G36*
X105614855Y-35246546D02*
G01*
X105631575Y-35265842D01*
X105754736Y-35441735D01*
X105761505Y-35451401D01*
X105928599Y-35618495D01*
X106025384Y-35686264D01*
X106122165Y-35754032D01*
X106122167Y-35754033D01*
X106122170Y-35754035D01*
X106336337Y-35853903D01*
X106564592Y-35915063D01*
X106752918Y-35931539D01*
X106799999Y-35935659D01*
X106800000Y-35935659D01*
X106800001Y-35935659D01*
X106839234Y-35932226D01*
X107035408Y-35915063D01*
X107263663Y-35853903D01*
X107477830Y-35754035D01*
X107671401Y-35618495D01*
X107838495Y-35451401D01*
X107873924Y-35400802D01*
X107928502Y-35357177D01*
X107998000Y-35349983D01*
X108060355Y-35381506D01*
X108095769Y-35441735D01*
X108099500Y-35471925D01*
X108099500Y-38768074D01*
X108079815Y-38835113D01*
X108027011Y-38880868D01*
X107957853Y-38890812D01*
X107894297Y-38861787D01*
X107873926Y-38839198D01*
X107838495Y-38788598D01*
X107671402Y-38621506D01*
X107671395Y-38621501D01*
X107477834Y-38485967D01*
X107477830Y-38485965D01*
X107477830Y-38485964D01*
X107263663Y-38386097D01*
X107263659Y-38386096D01*
X107263655Y-38386094D01*
X107035413Y-38324938D01*
X107035403Y-38324936D01*
X106800001Y-38304341D01*
X106799999Y-38304341D01*
X106564596Y-38324936D01*
X106564586Y-38324938D01*
X106336344Y-38386094D01*
X106336335Y-38386098D01*
X106122171Y-38485964D01*
X106122169Y-38485965D01*
X105928597Y-38621505D01*
X105761508Y-38788594D01*
X105631574Y-38974159D01*
X105576997Y-39017784D01*
X105507498Y-39024976D01*
X105445144Y-38993454D01*
X105428424Y-38974158D01*
X105298494Y-38788597D01*
X105131402Y-38621506D01*
X105131396Y-38621501D01*
X104945842Y-38491575D01*
X104902217Y-38436998D01*
X104895023Y-38367500D01*
X104926546Y-38305145D01*
X104945842Y-38288425D01*
X104968026Y-38272891D01*
X105131401Y-38158495D01*
X105298495Y-37991401D01*
X105434035Y-37797830D01*
X105533903Y-37583663D01*
X105595063Y-37355408D01*
X105615659Y-37120000D01*
X105595063Y-36884592D01*
X105533903Y-36656337D01*
X105434035Y-36442171D01*
X105414979Y-36414955D01*
X105298494Y-36248597D01*
X105131402Y-36081506D01*
X105131396Y-36081501D01*
X104945842Y-35951575D01*
X104902217Y-35896998D01*
X104895023Y-35827500D01*
X104926546Y-35765145D01*
X104945842Y-35748425D01*
X104968026Y-35732891D01*
X105131401Y-35618495D01*
X105298495Y-35451401D01*
X105428424Y-35265842D01*
X105483002Y-35222217D01*
X105552500Y-35215023D01*
X105614855Y-35246546D01*
G37*
%TD.AperFunction*%
%TA.AperFunction,Conductor*%
G36*
X116002019Y-13600633D02*
G01*
X116040149Y-13603131D01*
X116083793Y-13605992D01*
X116265459Y-13618985D01*
X116273102Y-13620015D01*
X116389451Y-13643158D01*
X116533666Y-13674531D01*
X116540383Y-13676395D01*
X116658618Y-13716531D01*
X116660224Y-13717103D01*
X116791740Y-13766156D01*
X116797483Y-13768635D01*
X116911830Y-13825024D01*
X116914042Y-13826173D01*
X117034913Y-13892173D01*
X117039641Y-13895037D01*
X117146649Y-13966537D01*
X117149358Y-13968454D01*
X117258652Y-14050271D01*
X117262345Y-14053265D01*
X117359502Y-14138469D01*
X117362448Y-14141228D01*
X117458769Y-14237549D01*
X117461526Y-14240492D01*
X117546729Y-14337648D01*
X117549732Y-14341353D01*
X117601564Y-14410592D01*
X117631543Y-14450639D01*
X117633461Y-14453349D01*
X117704961Y-14560357D01*
X117707828Y-14565091D01*
X117773802Y-14685912D01*
X117774992Y-14688204D01*
X117831356Y-14802499D01*
X117833842Y-14808258D01*
X117882878Y-14939727D01*
X117883497Y-14941465D01*
X117923597Y-15059596D01*
X117925472Y-15066352D01*
X117956848Y-15210590D01*
X117979980Y-15326880D01*
X117981015Y-15334560D01*
X117994021Y-15516413D01*
X117999367Y-15597966D01*
X117999500Y-15602023D01*
X117999500Y-86997976D01*
X117999367Y-87002033D01*
X117994021Y-87083585D01*
X117981015Y-87265438D01*
X117979980Y-87273118D01*
X117956848Y-87389408D01*
X117925472Y-87533646D01*
X117923597Y-87540402D01*
X117883497Y-87658533D01*
X117882878Y-87660271D01*
X117833842Y-87791740D01*
X117831356Y-87797499D01*
X117774992Y-87911794D01*
X117773802Y-87914086D01*
X117707828Y-88034907D01*
X117704961Y-88039641D01*
X117633461Y-88146649D01*
X117631543Y-88149359D01*
X117549744Y-88258631D01*
X117546723Y-88262357D01*
X117461529Y-88359502D01*
X117458755Y-88362464D01*
X117362464Y-88458755D01*
X117359502Y-88461529D01*
X117262357Y-88546723D01*
X117258631Y-88549744D01*
X117149359Y-88631543D01*
X117146649Y-88633461D01*
X117039641Y-88704961D01*
X117034907Y-88707828D01*
X116914086Y-88773802D01*
X116911794Y-88774992D01*
X116797499Y-88831356D01*
X116791740Y-88833842D01*
X116660271Y-88882878D01*
X116658533Y-88883497D01*
X116540402Y-88923597D01*
X116533646Y-88925472D01*
X116389408Y-88956848D01*
X116273118Y-88979980D01*
X116265438Y-88981015D01*
X116083585Y-88994021D01*
X116027608Y-88997690D01*
X116002025Y-88999367D01*
X115997976Y-88999500D01*
X17002024Y-88999500D01*
X16997974Y-88999367D01*
X16967355Y-88997360D01*
X16916413Y-88994021D01*
X16734560Y-88981015D01*
X16726880Y-88979980D01*
X16610590Y-88956848D01*
X16466352Y-88925472D01*
X16459596Y-88923597D01*
X16341465Y-88883497D01*
X16339727Y-88882878D01*
X16208258Y-88833842D01*
X16202499Y-88831356D01*
X16088204Y-88774992D01*
X16085912Y-88773802D01*
X15965091Y-88707828D01*
X15960357Y-88704961D01*
X15853349Y-88633461D01*
X15850639Y-88631543D01*
X15810592Y-88601564D01*
X15741353Y-88549732D01*
X15737648Y-88546729D01*
X15640492Y-88461526D01*
X15637549Y-88458769D01*
X15541228Y-88362448D01*
X15538469Y-88359502D01*
X15505450Y-88321851D01*
X15453265Y-88262345D01*
X15450271Y-88258652D01*
X15368454Y-88149358D01*
X15366537Y-88146649D01*
X15295037Y-88039641D01*
X15292170Y-88034907D01*
X15226173Y-87914042D01*
X15225024Y-87911830D01*
X15168635Y-87797483D01*
X15166156Y-87791740D01*
X15117103Y-87660224D01*
X15116531Y-87658618D01*
X15076395Y-87540383D01*
X15074531Y-87533666D01*
X15043150Y-87389408D01*
X15020015Y-87273102D01*
X15018985Y-87265459D01*
X15005992Y-87083793D01*
X15003256Y-87042056D01*
X15000633Y-87002018D01*
X15000500Y-86997963D01*
X15000500Y-84067763D01*
X18145787Y-84067763D01*
X18175413Y-84337013D01*
X18175415Y-84337024D01*
X18243926Y-84599082D01*
X18243928Y-84599088D01*
X18349870Y-84848390D01*
X18407635Y-84943041D01*
X18490979Y-85079605D01*
X18490986Y-85079615D01*
X18664253Y-85287819D01*
X18664259Y-85287824D01*
X18865998Y-85468582D01*
X19091910Y-85618044D01*
X19337176Y-85733020D01*
X19337183Y-85733022D01*
X19337185Y-85733023D01*
X19596557Y-85811057D01*
X19596564Y-85811058D01*
X19596569Y-85811060D01*
X19864561Y-85850500D01*
X19864566Y-85850500D01*
X20067629Y-85850500D01*
X20067631Y-85850500D01*
X20067636Y-85850499D01*
X20067648Y-85850499D01*
X20105191Y-85847750D01*
X20270156Y-85835677D01*
X20382758Y-85810593D01*
X20534546Y-85776782D01*
X20534548Y-85776781D01*
X20534553Y-85776780D01*
X20787558Y-85680014D01*
X21023777Y-85547441D01*
X21238177Y-85381888D01*
X21426186Y-85186881D01*
X21583799Y-84966579D01*
X21684168Y-84771360D01*
X21707649Y-84725690D01*
X21707651Y-84725684D01*
X21707656Y-84725675D01*
X21795118Y-84469305D01*
X21844319Y-84202933D01*
X21845976Y-84157600D01*
X65334127Y-84157600D01*
X65353977Y-84371828D01*
X65412855Y-84578759D01*
X65412860Y-84578772D01*
X65508751Y-84771346D01*
X65508753Y-84771349D01*
X65508755Y-84771353D01*
X65638409Y-84943044D01*
X65638412Y-84943046D01*
X65638414Y-84943049D01*
X65797402Y-85087985D01*
X65797404Y-85087986D01*
X65797405Y-85087987D01*
X65980326Y-85201247D01*
X66180944Y-85278967D01*
X66392427Y-85318500D01*
X66392429Y-85318500D01*
X66607571Y-85318500D01*
X66607573Y-85318500D01*
X66819056Y-85278967D01*
X67019674Y-85201247D01*
X67202595Y-85087987D01*
X67361591Y-84943044D01*
X67491245Y-84771353D01*
X67587144Y-84578762D01*
X67630734Y-84425559D01*
X67668013Y-84366466D01*
X67731323Y-84336909D01*
X67800562Y-84346271D01*
X67853749Y-84391581D01*
X67869266Y-84425560D01*
X67912854Y-84578757D01*
X67912860Y-84578772D01*
X68008751Y-84771346D01*
X68008753Y-84771349D01*
X68008755Y-84771353D01*
X68138409Y-84943044D01*
X68138412Y-84943046D01*
X68138414Y-84943049D01*
X68297402Y-85087985D01*
X68297404Y-85087986D01*
X68297405Y-85087987D01*
X68480326Y-85201247D01*
X68680944Y-85278967D01*
X68892427Y-85318500D01*
X68892429Y-85318500D01*
X69107571Y-85318500D01*
X69107573Y-85318500D01*
X69319056Y-85278967D01*
X69519674Y-85201247D01*
X69702595Y-85087987D01*
X69861591Y-84943044D01*
X69991245Y-84771353D01*
X70087144Y-84578762D01*
X70146022Y-84371829D01*
X70165873Y-84157600D01*
X70157981Y-84072436D01*
X70146022Y-83943371D01*
X70145498Y-83941528D01*
X70087144Y-83736438D01*
X70059963Y-83681852D01*
X69991248Y-83543853D01*
X69991247Y-83543852D01*
X69991245Y-83543847D01*
X69861591Y-83372156D01*
X69861587Y-83372152D01*
X69861585Y-83372150D01*
X69702597Y-83227214D01*
X69637817Y-83187104D01*
X69519674Y-83113953D01*
X69319056Y-83036233D01*
X69107573Y-82996700D01*
X68892427Y-82996700D01*
X68680944Y-83036233D01*
X68578609Y-83075878D01*
X68480328Y-83113952D01*
X68480327Y-83113952D01*
X68297402Y-83227214D01*
X68138414Y-83372150D01*
X68138407Y-83372158D01*
X68008760Y-83543839D01*
X68008751Y-83543853D01*
X67912860Y-83736427D01*
X67912856Y-83736438D01*
X67873237Y-83875685D01*
X67869266Y-83889640D01*
X67831987Y-83948733D01*
X67768677Y-83978290D01*
X67699437Y-83968928D01*
X67646251Y-83923618D01*
X67630734Y-83889640D01*
X67587144Y-83736438D01*
X67559963Y-83681852D01*
X67491248Y-83543853D01*
X67491247Y-83543852D01*
X67491245Y-83543847D01*
X67361591Y-83372156D01*
X67361587Y-83372152D01*
X67361585Y-83372150D01*
X67300717Y-83316662D01*
X67264436Y-83256951D01*
X67266196Y-83187104D01*
X67276868Y-83163026D01*
X67327179Y-83075885D01*
X67385674Y-82895857D01*
X67393893Y-82817655D01*
X82037993Y-82817655D01*
X82057182Y-83049232D01*
X82114228Y-83274504D01*
X82207574Y-83487312D01*
X82322342Y-83662975D01*
X82334674Y-83681851D01*
X82492060Y-83852818D01*
X82492063Y-83852820D01*
X82492066Y-83852823D01*
X82675431Y-83995542D01*
X82675437Y-83995546D01*
X82675440Y-83995548D01*
X82879811Y-84106149D01*
X83099599Y-84181602D01*
X83328809Y-84219850D01*
X83561188Y-84219850D01*
X83561189Y-84219850D01*
X83730842Y-84191540D01*
X83800208Y-84199922D01*
X83854030Y-84244475D01*
X83875220Y-84311054D01*
X83857052Y-84378520D01*
X83838934Y-84401530D01*
X83738941Y-84501523D01*
X83613505Y-84680662D01*
X83521086Y-84878857D01*
X83521082Y-84878866D01*
X83464486Y-85090089D01*
X83464484Y-85090099D01*
X83445425Y-85307948D01*
X83445425Y-85307949D01*
X83464484Y-85525798D01*
X83464486Y-85525808D01*
X83521082Y-85737031D01*
X83521084Y-85737035D01*
X83521085Y-85737039D01*
X83539616Y-85776779D01*
X83613505Y-85935235D01*
X83613506Y-85935236D01*
X83738940Y-86114374D01*
X83893574Y-86269008D01*
X84072712Y-86394442D01*
X84270909Y-86486863D01*
X84482145Y-86543463D01*
X84656428Y-86558710D01*
X84699998Y-86562523D01*
X84699999Y-86562523D01*
X84700000Y-86562523D01*
X84736307Y-86559346D01*
X84917853Y-86543463D01*
X85129089Y-86486863D01*
X85327286Y-86394442D01*
X85506424Y-86269008D01*
X85661058Y-86114374D01*
X85786492Y-85935236D01*
X85878913Y-85737039D01*
X85935513Y-85525803D01*
X85954573Y-85307949D01*
X87945426Y-85307949D01*
X87964485Y-85525798D01*
X87964487Y-85525808D01*
X88021083Y-85737031D01*
X88021085Y-85737035D01*
X88021086Y-85737039D01*
X88039617Y-85776779D01*
X88113506Y-85935235D01*
X88113507Y-85935236D01*
X88238941Y-86114374D01*
X88393575Y-86269008D01*
X88572713Y-86394442D01*
X88770910Y-86486863D01*
X88982146Y-86543463D01*
X89156429Y-86558710D01*
X89199999Y-86562523D01*
X89200000Y-86562523D01*
X89200001Y-86562523D01*
X89236308Y-86559346D01*
X89417854Y-86543463D01*
X89629090Y-86486863D01*
X89827287Y-86394442D01*
X90006425Y-86269008D01*
X90161059Y-86114374D01*
X90286493Y-85935236D01*
X90378914Y-85737039D01*
X90435514Y-85525803D01*
X90454574Y-85307949D01*
X90435514Y-85090095D01*
X90378914Y-84878859D01*
X90286493Y-84680662D01*
X90161059Y-84501524D01*
X90006425Y-84346890D01*
X89863114Y-84246542D01*
X89827286Y-84221455D01*
X89728188Y-84175245D01*
X89629090Y-84129035D01*
X89629086Y-84129034D01*
X89629082Y-84129032D01*
X89417859Y-84072436D01*
X89417849Y-84072434D01*
X89364459Y-84067763D01*
X111145787Y-84067763D01*
X111175413Y-84337013D01*
X111175415Y-84337024D01*
X111243926Y-84599082D01*
X111243928Y-84599088D01*
X111349870Y-84848390D01*
X111407635Y-84943041D01*
X111490979Y-85079605D01*
X111490986Y-85079615D01*
X111664253Y-85287819D01*
X111664259Y-85287824D01*
X111865998Y-85468582D01*
X112091910Y-85618044D01*
X112337176Y-85733020D01*
X112337183Y-85733022D01*
X112337185Y-85733023D01*
X112596557Y-85811057D01*
X112596564Y-85811058D01*
X112596569Y-85811060D01*
X112864561Y-85850500D01*
X112864566Y-85850500D01*
X113067629Y-85850500D01*
X113067631Y-85850500D01*
X113067636Y-85850499D01*
X113067648Y-85850499D01*
X113105191Y-85847750D01*
X113270156Y-85835677D01*
X113382758Y-85810593D01*
X113534546Y-85776782D01*
X113534548Y-85776781D01*
X113534553Y-85776780D01*
X113787558Y-85680014D01*
X114023777Y-85547441D01*
X114238177Y-85381888D01*
X114426186Y-85186881D01*
X114583799Y-84966579D01*
X114684168Y-84771360D01*
X114707649Y-84725690D01*
X114707651Y-84725684D01*
X114707656Y-84725675D01*
X114795118Y-84469305D01*
X114844319Y-84202933D01*
X114854212Y-83932235D01*
X114824586Y-83662982D01*
X114756072Y-83400912D01*
X114650130Y-83151610D01*
X114509018Y-82920390D01*
X114423522Y-82817655D01*
X114335746Y-82712180D01*
X114335740Y-82712175D01*
X114134002Y-82531418D01*
X113908092Y-82381957D01*
X113908090Y-82381956D01*
X113662824Y-82266980D01*
X113662819Y-82266978D01*
X113662814Y-82266976D01*
X113403442Y-82188942D01*
X113403428Y-82188939D01*
X113287791Y-82171921D01*
X113135439Y-82149500D01*
X112932369Y-82149500D01*
X112932351Y-82149500D01*
X112729844Y-82164323D01*
X112729831Y-82164325D01*
X112465453Y-82223217D01*
X112465446Y-82223220D01*
X112212439Y-82319987D01*
X111976226Y-82452557D01*
X111761822Y-82618112D01*
X111573822Y-82813109D01*
X111573816Y-82813116D01*
X111416202Y-83033419D01*
X111416199Y-83033424D01*
X111292350Y-83274309D01*
X111292343Y-83274327D01*
X111204884Y-83530685D01*
X111204881Y-83530699D01*
X111155681Y-83797068D01*
X111155680Y-83797075D01*
X111145787Y-84067763D01*
X89364459Y-84067763D01*
X89200001Y-84053375D01*
X89199999Y-84053375D01*
X88982150Y-84072434D01*
X88982140Y-84072436D01*
X88770917Y-84129032D01*
X88770908Y-84129036D01*
X88572713Y-84221455D01*
X88453201Y-84305139D01*
X88393575Y-84346890D01*
X88393573Y-84346891D01*
X88393570Y-84346894D01*
X88238945Y-84501519D01*
X88113506Y-84680662D01*
X88021087Y-84878857D01*
X88021083Y-84878866D01*
X87964487Y-85090089D01*
X87964485Y-85090099D01*
X87945426Y-85307948D01*
X87945426Y-85307949D01*
X85954573Y-85307949D01*
X85935513Y-85090095D01*
X85878913Y-84878859D01*
X85786492Y-84680662D01*
X85661058Y-84501524D01*
X85506424Y-84346890D01*
X85363113Y-84246542D01*
X85327285Y-84221455D01*
X85228187Y-84175245D01*
X85129089Y-84129035D01*
X85129085Y-84129034D01*
X85129081Y-84129032D01*
X84917858Y-84072436D01*
X84917848Y-84072434D01*
X84700000Y-84053375D01*
X84699997Y-84053375D01*
X84487811Y-84071939D01*
X84419311Y-84058172D01*
X84369128Y-84009557D01*
X84353195Y-83941528D01*
X84376570Y-83875685D01*
X84394719Y-83856900D01*
X84394162Y-83856294D01*
X84397926Y-83852827D01*
X84397938Y-83852818D01*
X84555324Y-83681851D01*
X84682424Y-83487311D01*
X84775770Y-83274504D01*
X84832815Y-83049236D01*
X84852005Y-82817650D01*
X84851629Y-82813116D01*
X84839211Y-82663259D01*
X84832815Y-82586064D01*
X84775770Y-82360796D01*
X84682424Y-82147989D01*
X84555324Y-81953449D01*
X84397938Y-81782482D01*
X84397933Y-81782478D01*
X84397931Y-81782476D01*
X84214566Y-81639757D01*
X84214560Y-81639753D01*
X84010187Y-81529151D01*
X84010179Y-81529148D01*
X83790401Y-81453698D01*
X83561189Y-81415450D01*
X83328809Y-81415450D01*
X83099596Y-81453698D01*
X82879818Y-81529148D01*
X82879810Y-81529151D01*
X82675437Y-81639753D01*
X82675431Y-81639757D01*
X82492066Y-81782476D01*
X82492063Y-81782479D01*
X82334675Y-81953447D01*
X82334672Y-81953451D01*
X82207574Y-82147987D01*
X82114228Y-82360795D01*
X82057182Y-82586067D01*
X82037993Y-82817644D01*
X82037993Y-82817655D01*
X67393893Y-82817655D01*
X67405460Y-82707601D01*
X67385674Y-82519345D01*
X67327179Y-82339317D01*
X67232533Y-82175385D01*
X67182350Y-82119651D01*
X67152120Y-82056659D01*
X67150500Y-82036679D01*
X67150500Y-77907601D01*
X67834127Y-77907601D01*
X67853977Y-78121829D01*
X67912855Y-78328760D01*
X67912860Y-78328773D01*
X68008751Y-78521347D01*
X68008753Y-78521350D01*
X68008755Y-78521354D01*
X68008758Y-78521358D01*
X68008760Y-78521361D01*
X68064552Y-78595242D01*
X68138409Y-78693045D01*
X68138412Y-78693047D01*
X68138414Y-78693050D01*
X68297402Y-78837986D01*
X68297404Y-78837987D01*
X68297405Y-78837988D01*
X68480326Y-78951248D01*
X68680944Y-79028968D01*
X68892427Y-79068501D01*
X68892429Y-79068501D01*
X69107571Y-79068501D01*
X69107573Y-79068501D01*
X69319056Y-79028968D01*
X69519674Y-78951248D01*
X69702595Y-78837988D01*
X69861591Y-78693045D01*
X69991245Y-78521354D01*
X70087144Y-78328763D01*
X70146022Y-78121830D01*
X70165873Y-77907601D01*
X70165390Y-77902393D01*
X70146022Y-77693372D01*
X70131225Y-77641368D01*
X70087144Y-77486439D01*
X70077401Y-77466873D01*
X69991248Y-77293854D01*
X69991247Y-77293853D01*
X69991245Y-77293848D01*
X69861591Y-77122157D01*
X69861587Y-77122153D01*
X69861585Y-77122151D01*
X69702597Y-76977215D01*
X69662811Y-76952580D01*
X69519674Y-76863954D01*
X69319056Y-76786234D01*
X69107573Y-76746701D01*
X68892427Y-76746701D01*
X68680944Y-76786234D01*
X68638913Y-76802517D01*
X68480328Y-76863953D01*
X68480327Y-76863953D01*
X68297402Y-76977215D01*
X68138414Y-77122151D01*
X68138407Y-77122159D01*
X68008760Y-77293840D01*
X68008751Y-77293854D01*
X67912860Y-77486428D01*
X67912855Y-77486441D01*
X67853977Y-77693372D01*
X67834127Y-77907600D01*
X67834127Y-77907601D01*
X67150500Y-77907601D01*
X67150500Y-75550097D01*
X67170185Y-75483058D01*
X67186819Y-75462416D01*
X67812416Y-74836819D01*
X67873739Y-74803334D01*
X67900097Y-74800500D01*
X80956572Y-74800500D01*
X80964670Y-74801030D01*
X81000000Y-74805682D01*
X81000001Y-74805682D01*
X81082657Y-74794800D01*
X81156762Y-74785044D01*
X81302841Y-74724536D01*
X81350401Y-74688042D01*
X81428282Y-74628282D01*
X81449983Y-74599999D01*
X81455311Y-74593922D01*
X81988325Y-74060908D01*
X82049646Y-74027425D01*
X82119338Y-74032409D01*
X82175271Y-74074281D01*
X82183391Y-74086592D01*
X82267463Y-74232211D01*
X82267465Y-74232213D01*
X82267467Y-74232216D01*
X82317649Y-74287948D01*
X82347880Y-74350940D01*
X82349500Y-74370921D01*
X82349500Y-77379192D01*
X82329815Y-77446231D01*
X82313181Y-77466873D01*
X82116873Y-77663181D01*
X82055550Y-77696666D01*
X82029192Y-77699500D01*
X82005354Y-77699500D01*
X81972897Y-77706398D01*
X81820197Y-77738855D01*
X81820192Y-77738857D01*
X81647270Y-77815848D01*
X81647265Y-77815851D01*
X81494129Y-77927111D01*
X81367466Y-78067785D01*
X81272821Y-78231715D01*
X81272818Y-78231722D01*
X81214327Y-78411740D01*
X81214326Y-78411744D01*
X81194540Y-78600000D01*
X81214326Y-78788256D01*
X81214327Y-78788259D01*
X81272818Y-78968277D01*
X81272821Y-78968284D01*
X81367467Y-79132216D01*
X81439857Y-79212613D01*
X81494129Y-79272888D01*
X81647265Y-79384148D01*
X81647270Y-79384151D01*
X81820192Y-79461142D01*
X81820197Y-79461144D01*
X82005354Y-79500500D01*
X82005355Y-79500500D01*
X82194644Y-79500500D01*
X82194646Y-79500500D01*
X82379803Y-79461144D01*
X82552730Y-79384151D01*
X82705871Y-79272888D01*
X82832533Y-79132216D01*
X82927179Y-78968284D01*
X82985674Y-78788256D01*
X82999168Y-78659855D01*
X83025752Y-78595242D01*
X83034799Y-78585145D01*
X83399513Y-78220431D01*
X83412079Y-78210365D01*
X83411925Y-78210178D01*
X83417933Y-78205205D01*
X83417940Y-78205202D01*
X83466532Y-78153456D01*
X83467856Y-78152088D01*
X83488911Y-78131035D01*
X83493401Y-78125245D01*
X83497183Y-78120815D01*
X83530448Y-78085393D01*
X83540674Y-78066790D01*
X83551353Y-78050533D01*
X83564362Y-78033764D01*
X83583656Y-77989175D01*
X83586212Y-77983956D01*
X83609627Y-77941368D01*
X83614905Y-77920806D01*
X83621207Y-77902399D01*
X83629635Y-77882927D01*
X83637233Y-77834953D01*
X83638414Y-77829247D01*
X83650500Y-77782177D01*
X83650500Y-77760949D01*
X83652027Y-77741549D01*
X83652195Y-77740490D01*
X83655346Y-77720595D01*
X83650775Y-77672238D01*
X83650500Y-77666400D01*
X83650500Y-74370921D01*
X83670185Y-74303882D01*
X83682351Y-74287948D01*
X83732533Y-74232216D01*
X83827179Y-74068284D01*
X83885674Y-73888256D01*
X83905460Y-73700000D01*
X83885674Y-73511744D01*
X83827179Y-73331716D01*
X83732533Y-73167784D01*
X83605871Y-73027112D01*
X83605870Y-73027111D01*
X83452734Y-72915851D01*
X83452729Y-72915848D01*
X83396587Y-72890852D01*
X83343350Y-72845602D01*
X83323029Y-72778752D01*
X83342075Y-72711529D01*
X83359342Y-72689892D01*
X83604639Y-72444596D01*
X83912415Y-72136819D01*
X83973739Y-72103334D01*
X84000097Y-72100500D01*
X84094644Y-72100500D01*
X84094646Y-72100500D01*
X84279803Y-72061144D01*
X84452730Y-71984151D01*
X84605871Y-71872888D01*
X84732533Y-71732216D01*
X84827179Y-71568284D01*
X84885674Y-71388256D01*
X84905460Y-71200000D01*
X84885674Y-71011744D01*
X84827179Y-70831716D01*
X84732533Y-70667784D01*
X84605871Y-70527112D01*
X84605870Y-70527111D01*
X84452734Y-70415851D01*
X84452729Y-70415848D01*
X84279807Y-70338857D01*
X84279802Y-70338855D01*
X84134001Y-70307865D01*
X84094646Y-70299500D01*
X83905354Y-70299500D01*
X83872897Y-70306398D01*
X83720197Y-70338855D01*
X83720192Y-70338857D01*
X83547270Y-70415848D01*
X83547265Y-70415851D01*
X83394129Y-70527111D01*
X83267466Y-70667785D01*
X83172821Y-70831715D01*
X83172818Y-70831722D01*
X83117578Y-71001734D01*
X83114326Y-71011744D01*
X83096800Y-71178495D01*
X83094540Y-71200002D01*
X83094540Y-71204862D01*
X83074855Y-71271901D01*
X83058221Y-71292543D01*
X80787584Y-73563181D01*
X80726261Y-73596666D01*
X80699903Y-73599500D01*
X67643428Y-73599500D01*
X67635329Y-73598969D01*
X67600000Y-73594318D01*
X67560639Y-73599500D01*
X67443239Y-73614955D01*
X67443237Y-73614956D01*
X67297160Y-73675463D01*
X67171714Y-73771721D01*
X67150024Y-73799990D01*
X67144671Y-73806094D01*
X66276250Y-74674513D01*
X66226896Y-74704760D01*
X66220833Y-74706730D01*
X66220830Y-74706731D01*
X66220829Y-74706732D01*
X66097430Y-74785044D01*
X66082057Y-74794800D01*
X65969554Y-74914603D01*
X65969548Y-74914611D01*
X65890374Y-75058628D01*
X65890371Y-75058638D01*
X65849500Y-75217819D01*
X65849499Y-75217827D01*
X65849499Y-82036679D01*
X65829814Y-82103718D01*
X65817650Y-82119650D01*
X65767466Y-82175386D01*
X65672821Y-82339316D01*
X65672818Y-82339323D01*
X65636026Y-82452559D01*
X65614326Y-82519345D01*
X65594540Y-82707601D01*
X65614326Y-82895857D01*
X65614327Y-82895860D01*
X65672818Y-83075878D01*
X65672823Y-83075890D01*
X65723131Y-83163026D01*
X65739604Y-83230926D01*
X65716751Y-83296953D01*
X65699283Y-83316662D01*
X65638408Y-83372156D01*
X65508755Y-83543846D01*
X65508751Y-83543853D01*
X65412860Y-83736427D01*
X65412855Y-83736440D01*
X65353977Y-83943371D01*
X65334127Y-84157599D01*
X65334127Y-84157600D01*
X21845976Y-84157600D01*
X21854212Y-83932235D01*
X21824586Y-83662982D01*
X21756072Y-83400912D01*
X21650130Y-83151610D01*
X21509018Y-82920390D01*
X21423522Y-82817655D01*
X21335746Y-82712180D01*
X21335740Y-82712175D01*
X21134002Y-82531418D01*
X20908092Y-82381957D01*
X20908090Y-82381956D01*
X20662824Y-82266980D01*
X20662819Y-82266978D01*
X20662814Y-82266976D01*
X20403442Y-82188942D01*
X20403428Y-82188939D01*
X20287791Y-82171921D01*
X20135439Y-82149500D01*
X19932369Y-82149500D01*
X19932351Y-82149500D01*
X19729844Y-82164323D01*
X19729831Y-82164325D01*
X19465453Y-82223217D01*
X19465446Y-82223220D01*
X19212439Y-82319987D01*
X18976226Y-82452557D01*
X18761822Y-82618112D01*
X18573822Y-82813109D01*
X18573816Y-82813116D01*
X18416202Y-83033419D01*
X18416199Y-83033424D01*
X18292350Y-83274309D01*
X18292343Y-83274327D01*
X18204884Y-83530685D01*
X18204881Y-83530699D01*
X18155681Y-83797068D01*
X18155680Y-83797075D01*
X18145787Y-84067763D01*
X15000500Y-84067763D01*
X15000500Y-81300000D01*
X42594540Y-81300000D01*
X42614326Y-81488256D01*
X42614327Y-81488259D01*
X42672818Y-81668277D01*
X42672821Y-81668284D01*
X42767467Y-81832216D01*
X42876624Y-81953447D01*
X42894129Y-81972888D01*
X43047265Y-82084148D01*
X43047270Y-82084151D01*
X43220192Y-82161142D01*
X43220197Y-82161144D01*
X43405354Y-82200500D01*
X43405355Y-82200500D01*
X43594644Y-82200500D01*
X43594646Y-82200500D01*
X43779803Y-82161144D01*
X43952730Y-82084151D01*
X44105871Y-81972888D01*
X44134108Y-81941527D01*
X44193595Y-81904879D01*
X44226258Y-81900500D01*
X47356572Y-81900500D01*
X47364670Y-81901030D01*
X47400000Y-81905682D01*
X47400001Y-81905682D01*
X47452253Y-81898802D01*
X47556762Y-81885044D01*
X47702841Y-81824536D01*
X47757647Y-81782482D01*
X47828282Y-81728282D01*
X47849984Y-81699998D01*
X47855310Y-81693923D01*
X53712415Y-75836819D01*
X53773739Y-75803334D01*
X53800097Y-75800500D01*
X53894644Y-75800500D01*
X53894646Y-75800500D01*
X54079803Y-75761144D01*
X54252730Y-75684151D01*
X54405871Y-75572888D01*
X54532533Y-75432216D01*
X54627179Y-75268284D01*
X54685674Y-75088256D01*
X54705460Y-74900000D01*
X54685674Y-74711744D01*
X54627179Y-74531716D01*
X54532533Y-74367784D01*
X54405871Y-74227112D01*
X54405870Y-74227111D01*
X54252734Y-74115851D01*
X54252729Y-74115848D01*
X54079807Y-74038857D01*
X54079802Y-74038855D01*
X53934001Y-74007865D01*
X53894646Y-73999500D01*
X53705354Y-73999500D01*
X53672897Y-74006398D01*
X53520197Y-74038855D01*
X53520192Y-74038857D01*
X53347270Y-74115848D01*
X53347265Y-74115851D01*
X53194129Y-74227111D01*
X53067466Y-74367785D01*
X52972821Y-74531715D01*
X52972818Y-74531722D01*
X52914327Y-74711740D01*
X52914326Y-74711744D01*
X52894540Y-74899999D01*
X52894540Y-74900002D01*
X52894540Y-74904862D01*
X52874855Y-74971901D01*
X52858221Y-74992543D01*
X47187584Y-80663181D01*
X47126261Y-80696666D01*
X47099903Y-80699500D01*
X44226258Y-80699500D01*
X44159219Y-80679815D01*
X44134109Y-80658473D01*
X44105871Y-80627112D01*
X44105864Y-80627106D01*
X43952734Y-80515851D01*
X43952729Y-80515848D01*
X43779807Y-80438857D01*
X43779802Y-80438855D01*
X43634001Y-80407865D01*
X43594646Y-80399500D01*
X43405354Y-80399500D01*
X43372897Y-80406398D01*
X43220197Y-80438855D01*
X43220192Y-80438857D01*
X43047270Y-80515848D01*
X43047265Y-80515851D01*
X42894129Y-80627111D01*
X42767466Y-80767785D01*
X42672821Y-80931715D01*
X42672818Y-80931722D01*
X42630767Y-81061144D01*
X42614326Y-81111744D01*
X42594540Y-81300000D01*
X15000500Y-81300000D01*
X15000500Y-75772870D01*
X42824500Y-75772870D01*
X42824501Y-75772876D01*
X42830908Y-75832483D01*
X42881202Y-75967328D01*
X42881206Y-75967335D01*
X42967452Y-76082544D01*
X42967455Y-76082547D01*
X43082664Y-76168793D01*
X43082671Y-76168797D01*
X43217517Y-76219091D01*
X43217516Y-76219091D01*
X43224444Y-76219835D01*
X43277127Y-76225500D01*
X44972872Y-76225499D01*
X45032483Y-76219091D01*
X45167331Y-76168796D01*
X45282546Y-76082546D01*
X45368796Y-75967331D01*
X45419091Y-75832483D01*
X45425500Y-75772873D01*
X45425499Y-74077128D01*
X45419091Y-74017517D01*
X45392453Y-73946098D01*
X45368797Y-73882671D01*
X45368793Y-73882664D01*
X45282547Y-73767455D01*
X45282544Y-73767452D01*
X45167335Y-73681206D01*
X45167328Y-73681202D01*
X45032482Y-73630908D01*
X45032483Y-73630908D01*
X44972883Y-73624501D01*
X44972881Y-73624500D01*
X44972873Y-73624500D01*
X44972864Y-73624500D01*
X43277129Y-73624500D01*
X43277123Y-73624501D01*
X43217516Y-73630908D01*
X43082671Y-73681202D01*
X43082664Y-73681206D01*
X42967455Y-73767452D01*
X42967452Y-73767455D01*
X42881206Y-73882664D01*
X42881202Y-73882671D01*
X42830908Y-74017517D01*
X42824806Y-74074281D01*
X42824501Y-74077123D01*
X42824500Y-74077135D01*
X42824500Y-75772870D01*
X15000500Y-75772870D01*
X15000500Y-60000000D01*
X24994540Y-60000000D01*
X25014326Y-60188256D01*
X25014327Y-60188259D01*
X25072818Y-60368277D01*
X25072819Y-60368279D01*
X25072821Y-60368284D01*
X25127506Y-60463002D01*
X25132887Y-60472321D01*
X25149500Y-60534321D01*
X25149500Y-65436294D01*
X25148191Y-65454263D01*
X25144710Y-65478025D01*
X25149264Y-65530064D01*
X25149500Y-65535470D01*
X25149500Y-65543712D01*
X25153202Y-65575391D01*
X25153383Y-65577159D01*
X25156065Y-65607811D01*
X25160000Y-65652792D01*
X25161461Y-65659867D01*
X25161403Y-65659878D01*
X25163034Y-65667237D01*
X25163092Y-65667224D01*
X25164757Y-65674249D01*
X25164758Y-65674254D01*
X25164759Y-65674255D01*
X25164977Y-65674855D01*
X25190708Y-65745551D01*
X25191299Y-65747253D01*
X25215182Y-65819326D01*
X25218236Y-65825874D01*
X25218182Y-65825898D01*
X25221470Y-65832688D01*
X25221521Y-65832663D01*
X25224761Y-65839113D01*
X25224762Y-65839114D01*
X25224763Y-65839117D01*
X25266494Y-65902567D01*
X25267443Y-65904058D01*
X25284305Y-65931396D01*
X25307289Y-65968657D01*
X25311766Y-65974319D01*
X25311719Y-65974356D01*
X25316482Y-65980202D01*
X25316528Y-65980164D01*
X25321173Y-65985699D01*
X25376364Y-66037769D01*
X25377658Y-66039026D01*
X29287228Y-69948595D01*
X29317478Y-69997958D01*
X29372818Y-70168277D01*
X29372821Y-70168284D01*
X29467467Y-70332216D01*
X29506362Y-70375413D01*
X29594129Y-70472888D01*
X29747265Y-70584148D01*
X29747270Y-70584151D01*
X29920192Y-70661142D01*
X29920197Y-70661144D01*
X30105354Y-70700500D01*
X30105355Y-70700500D01*
X30294644Y-70700500D01*
X30294646Y-70700500D01*
X30479803Y-70661144D01*
X30652730Y-70584151D01*
X30805871Y-70472888D01*
X30932533Y-70332216D01*
X31027179Y-70168284D01*
X31085674Y-69988256D01*
X31105460Y-69800000D01*
X31085674Y-69611744D01*
X31027179Y-69431716D01*
X30932533Y-69267784D01*
X30805871Y-69127112D01*
X30805870Y-69127111D01*
X30652734Y-69015851D01*
X30652729Y-69015848D01*
X30479807Y-68938857D01*
X30479803Y-68938856D01*
X30414669Y-68925011D01*
X30353188Y-68891818D01*
X30352770Y-68891402D01*
X26686819Y-65225451D01*
X26653334Y-65164128D01*
X26650500Y-65137770D01*
X26650500Y-62856297D01*
X26650500Y-60534317D01*
X26667110Y-60472325D01*
X26727179Y-60368284D01*
X26785674Y-60188256D01*
X26805460Y-60000000D01*
X26785674Y-59811744D01*
X26727179Y-59631716D01*
X26632533Y-59467784D01*
X26505871Y-59327112D01*
X26505870Y-59327111D01*
X26352734Y-59215851D01*
X26352729Y-59215848D01*
X26179807Y-59138857D01*
X26179802Y-59138855D01*
X26034001Y-59107865D01*
X25994646Y-59099500D01*
X25805354Y-59099500D01*
X25772897Y-59106398D01*
X25620197Y-59138855D01*
X25620192Y-59138857D01*
X25447270Y-59215848D01*
X25447265Y-59215851D01*
X25294129Y-59327111D01*
X25167466Y-59467785D01*
X25072821Y-59631715D01*
X25072818Y-59631722D01*
X25014327Y-59811740D01*
X25014326Y-59811744D01*
X24994540Y-60000000D01*
X15000500Y-60000000D01*
X15000500Y-46800000D01*
X27394540Y-46800000D01*
X27414326Y-46988256D01*
X27414327Y-46988259D01*
X27472818Y-47168277D01*
X27472821Y-47168284D01*
X27567467Y-47332216D01*
X27594219Y-47361926D01*
X27617649Y-47387949D01*
X27647879Y-47450941D01*
X27649499Y-47470921D01*
X27649500Y-48575155D01*
X27647732Y-48591166D01*
X27647974Y-48591189D01*
X27647239Y-48598955D01*
X27649469Y-48669896D01*
X27649500Y-48671844D01*
X27649500Y-48701581D01*
X27649501Y-48701601D01*
X27650418Y-48708867D01*
X27650876Y-48714685D01*
X27652402Y-48763228D01*
X27652403Y-48763231D01*
X27658323Y-48783609D01*
X27662268Y-48802657D01*
X27664928Y-48823715D01*
X27664931Y-48823725D01*
X27682813Y-48868891D01*
X27684705Y-48874419D01*
X27698254Y-48921056D01*
X27698255Y-48921058D01*
X27709060Y-48939327D01*
X27717617Y-48956795D01*
X27721969Y-48967785D01*
X27725432Y-48976533D01*
X27753983Y-49015831D01*
X27757188Y-49020710D01*
X27781919Y-49062526D01*
X27781923Y-49062530D01*
X27796925Y-49077532D01*
X27809563Y-49092330D01*
X27822033Y-49109494D01*
X27822036Y-49109497D01*
X27822037Y-49109498D01*
X27859476Y-49140470D01*
X27863776Y-49144383D01*
X30711260Y-51991867D01*
X33507212Y-54787819D01*
X33540697Y-54849142D01*
X33535713Y-54918834D01*
X33493841Y-54974767D01*
X33428377Y-54999184D01*
X33419531Y-54999500D01*
X31226258Y-54999500D01*
X31159219Y-54979815D01*
X31134109Y-54958473D01*
X31105871Y-54927112D01*
X31105864Y-54927106D01*
X30952734Y-54815851D01*
X30952729Y-54815848D01*
X30779807Y-54738857D01*
X30779802Y-54738855D01*
X30634001Y-54707865D01*
X30594646Y-54699500D01*
X30405354Y-54699500D01*
X30372897Y-54706398D01*
X30220197Y-54738855D01*
X30214010Y-54740866D01*
X30213187Y-54738334D01*
X30155614Y-54746019D01*
X30092354Y-54716354D01*
X30055175Y-54657198D01*
X30050499Y-54623472D01*
X30050499Y-53670920D01*
X30070184Y-53603882D01*
X30082348Y-53587950D01*
X30132533Y-53532216D01*
X30227179Y-53368284D01*
X30285674Y-53188256D01*
X30305460Y-53000000D01*
X30285674Y-52811744D01*
X30227179Y-52631716D01*
X30132533Y-52467784D01*
X30005871Y-52327112D01*
X30005870Y-52327111D01*
X29852734Y-52215851D01*
X29852729Y-52215848D01*
X29679807Y-52138857D01*
X29679802Y-52138855D01*
X29534000Y-52107865D01*
X29494646Y-52099500D01*
X29305354Y-52099500D01*
X29272897Y-52106398D01*
X29120197Y-52138855D01*
X29120192Y-52138857D01*
X28947270Y-52215848D01*
X28947265Y-52215851D01*
X28794129Y-52327111D01*
X28667466Y-52467785D01*
X28572821Y-52631715D01*
X28572818Y-52631722D01*
X28520080Y-52794035D01*
X28514326Y-52811744D01*
X28494540Y-53000000D01*
X28514326Y-53188256D01*
X28514327Y-53188259D01*
X28572818Y-53368277D01*
X28572821Y-53368284D01*
X28639716Y-53484151D01*
X28667467Y-53532216D01*
X28713195Y-53583002D01*
X28717649Y-53587948D01*
X28747880Y-53650940D01*
X28749500Y-53670921D01*
X28749500Y-57229078D01*
X28729815Y-57296117D01*
X28717650Y-57312050D01*
X28667466Y-57367785D01*
X28572821Y-57531715D01*
X28572818Y-57531722D01*
X28514327Y-57711740D01*
X28514326Y-57711744D01*
X28494540Y-57900000D01*
X28514326Y-58088256D01*
X28514327Y-58088259D01*
X28572818Y-58268277D01*
X28572821Y-58268284D01*
X28667467Y-58432216D01*
X28709137Y-58478495D01*
X28794129Y-58572888D01*
X28947265Y-58684148D01*
X28947270Y-58684151D01*
X29120192Y-58761142D01*
X29120197Y-58761144D01*
X29305354Y-58800500D01*
X29305355Y-58800500D01*
X29494644Y-58800500D01*
X29494646Y-58800500D01*
X29679803Y-58761144D01*
X29852730Y-58684151D01*
X30005871Y-58572888D01*
X30132533Y-58432216D01*
X30227179Y-58268284D01*
X30285674Y-58088256D01*
X30305460Y-57900000D01*
X30285674Y-57711744D01*
X30227179Y-57531716D01*
X30132533Y-57367784D01*
X30101657Y-57333493D01*
X30082349Y-57312049D01*
X30052119Y-57249058D01*
X30050499Y-57229077D01*
X30050499Y-56832214D01*
X30050499Y-56576530D01*
X30070184Y-56509494D01*
X30122988Y-56463739D01*
X30192146Y-56453795D01*
X30213725Y-56460020D01*
X30214013Y-56459135D01*
X30220196Y-56461144D01*
X30220197Y-56461144D01*
X30405354Y-56500500D01*
X30405355Y-56500500D01*
X30594644Y-56500500D01*
X30594646Y-56500500D01*
X30779803Y-56461144D01*
X30952730Y-56384151D01*
X31105871Y-56272888D01*
X31134108Y-56241527D01*
X31193595Y-56204879D01*
X31226258Y-56200500D01*
X33999903Y-56200500D01*
X34066942Y-56220185D01*
X34087584Y-56236819D01*
X39569669Y-61718904D01*
X39575020Y-61725005D01*
X39596718Y-61753282D01*
X39697919Y-61830936D01*
X39722159Y-61849536D01*
X39722161Y-61849536D01*
X39722163Y-61849538D01*
X39843430Y-61899768D01*
X39897834Y-61943608D01*
X39919899Y-62009902D01*
X39919540Y-62020328D01*
X39919540Y-62024997D01*
X39919540Y-62025000D01*
X39939326Y-62213256D01*
X39939327Y-62213259D01*
X39997818Y-62393277D01*
X39997821Y-62393284D01*
X40092467Y-62557216D01*
X40177272Y-62651401D01*
X40219129Y-62697888D01*
X40372265Y-62809148D01*
X40372270Y-62809151D01*
X40545192Y-62886142D01*
X40545197Y-62886144D01*
X40730354Y-62925500D01*
X40754192Y-62925500D01*
X40821231Y-62945185D01*
X40841873Y-62961819D01*
X43795361Y-65915307D01*
X43828846Y-65976630D01*
X43831001Y-66015948D01*
X43819540Y-66125000D01*
X43839326Y-66313256D01*
X43839327Y-66313259D01*
X43897818Y-66493277D01*
X43897821Y-66493284D01*
X43992467Y-66657216D01*
X44119128Y-66797888D01*
X44119129Y-66797888D01*
X44272265Y-66909148D01*
X44272270Y-66909151D01*
X44445192Y-66986142D01*
X44445197Y-66986144D01*
X44630354Y-67025500D01*
X44630355Y-67025500D01*
X44819644Y-67025500D01*
X44819646Y-67025500D01*
X45004803Y-66986144D01*
X45177730Y-66909151D01*
X45330871Y-66797888D01*
X45457533Y-66657216D01*
X45552179Y-66493284D01*
X45610674Y-66313256D01*
X45630460Y-66125000D01*
X45610674Y-65936744D01*
X45552179Y-65756716D01*
X45457533Y-65592784D01*
X45330871Y-65452112D01*
X45321534Y-65445328D01*
X45177734Y-65340851D01*
X45177729Y-65340848D01*
X45004811Y-65263859D01*
X45004806Y-65263857D01*
X45004803Y-65263856D01*
X45004799Y-65263855D01*
X45002007Y-65262948D01*
X44999992Y-65261713D01*
X44998866Y-65261212D01*
X44998932Y-65261063D01*
X44952643Y-65232697D01*
X41857127Y-62137181D01*
X41823642Y-62075858D01*
X41828626Y-62006166D01*
X41870498Y-61950233D01*
X41935962Y-61925816D01*
X41944808Y-61925500D01*
X44824903Y-61925500D01*
X44891942Y-61945185D01*
X44912584Y-61961819D01*
X63058221Y-80107456D01*
X63091706Y-80168779D01*
X63094540Y-80195137D01*
X63094540Y-80199997D01*
X63094540Y-80200000D01*
X63114326Y-80388256D01*
X63114327Y-80388259D01*
X63172818Y-80568277D01*
X63172821Y-80568284D01*
X63267467Y-80732216D01*
X63299493Y-80767784D01*
X63394129Y-80872888D01*
X63547265Y-80984148D01*
X63547270Y-80984151D01*
X63720192Y-81061142D01*
X63720197Y-81061144D01*
X63905354Y-81100500D01*
X63905355Y-81100500D01*
X64094644Y-81100500D01*
X64094646Y-81100500D01*
X64279803Y-81061144D01*
X64452730Y-80984151D01*
X64605871Y-80872888D01*
X64732533Y-80732216D01*
X64827179Y-80568284D01*
X64885674Y-80388256D01*
X64905460Y-80200000D01*
X64885674Y-80011744D01*
X64827179Y-79831716D01*
X64732533Y-79667784D01*
X64605871Y-79527112D01*
X64569243Y-79500500D01*
X64452734Y-79415851D01*
X64452729Y-79415848D01*
X64279807Y-79338857D01*
X64279802Y-79338855D01*
X64129780Y-79306968D01*
X64068298Y-79273776D01*
X64034522Y-79212613D01*
X64039174Y-79142898D01*
X64080779Y-79086766D01*
X64132773Y-79063790D01*
X64319056Y-79028968D01*
X64519674Y-78951248D01*
X64702595Y-78837988D01*
X64861591Y-78693045D01*
X64991245Y-78521354D01*
X65087144Y-78328763D01*
X65146022Y-78121830D01*
X65165873Y-77907601D01*
X65165390Y-77902393D01*
X65146022Y-77693372D01*
X65131225Y-77641368D01*
X65087144Y-77486439D01*
X65077401Y-77466873D01*
X64991248Y-77293854D01*
X64991247Y-77293853D01*
X64991245Y-77293848D01*
X64861591Y-77122157D01*
X64861587Y-77122153D01*
X64861585Y-77122151D01*
X64702597Y-76977215D01*
X64662811Y-76952580D01*
X64519674Y-76863954D01*
X64319056Y-76786234D01*
X64107573Y-76746701D01*
X63892427Y-76746701D01*
X63892425Y-76746701D01*
X63844298Y-76755697D01*
X63774783Y-76748665D01*
X63733834Y-76721489D01*
X53510215Y-66497870D01*
X77349500Y-66497870D01*
X77349501Y-66497876D01*
X77355908Y-66557483D01*
X77406202Y-66692328D01*
X77406206Y-66692335D01*
X77492452Y-66807544D01*
X77492455Y-66807547D01*
X77607664Y-66893793D01*
X77607671Y-66893797D01*
X77742517Y-66944091D01*
X77742516Y-66944091D01*
X77749444Y-66944835D01*
X77802127Y-66950500D01*
X79597872Y-66950499D01*
X79657483Y-66944091D01*
X79792331Y-66893796D01*
X79907546Y-66807546D01*
X79993796Y-66692331D01*
X80044091Y-66557483D01*
X80050500Y-66497873D01*
X80050499Y-64702128D01*
X80044091Y-64642517D01*
X80040248Y-64632214D01*
X79993797Y-64507671D01*
X79993793Y-64507664D01*
X79907547Y-64392455D01*
X79907544Y-64392452D01*
X79792335Y-64306206D01*
X79792328Y-64306202D01*
X79657482Y-64255908D01*
X79657483Y-64255908D01*
X79597883Y-64249501D01*
X79597881Y-64249500D01*
X79597873Y-64249500D01*
X79597864Y-64249500D01*
X77802129Y-64249500D01*
X77802123Y-64249501D01*
X77742516Y-64255908D01*
X77607671Y-64306202D01*
X77607664Y-64306206D01*
X77492455Y-64392452D01*
X77492452Y-64392455D01*
X77406206Y-64507664D01*
X77406202Y-64507671D01*
X77355908Y-64642517D01*
X77350603Y-64691867D01*
X77349501Y-64702123D01*
X77349500Y-64702135D01*
X77349500Y-66497870D01*
X53510215Y-66497870D01*
X51112345Y-64100000D01*
X98094540Y-64100000D01*
X98114326Y-64288256D01*
X98116292Y-64294309D01*
X98172818Y-64468277D01*
X98172821Y-64468284D01*
X98267467Y-64632216D01*
X98330423Y-64702135D01*
X98394129Y-64772888D01*
X98547265Y-64884148D01*
X98547270Y-64884151D01*
X98720192Y-64961142D01*
X98720197Y-64961144D01*
X98905354Y-65000500D01*
X98905355Y-65000500D01*
X99094644Y-65000500D01*
X99094646Y-65000500D01*
X99279803Y-64961144D01*
X99452730Y-64884151D01*
X99605871Y-64772888D01*
X99732533Y-64632216D01*
X99827179Y-64468284D01*
X99885674Y-64288256D01*
X99905460Y-64100000D01*
X99885674Y-63911744D01*
X99827179Y-63731716D01*
X99732533Y-63567784D01*
X99716498Y-63549975D01*
X99632349Y-63456517D01*
X99602119Y-63393525D01*
X99600499Y-63373545D01*
X99600499Y-62226453D01*
X99620184Y-62159414D01*
X99632349Y-62143481D01*
X99632350Y-62143480D01*
X99732533Y-62032216D01*
X99827179Y-61868284D01*
X99885674Y-61688256D01*
X99905460Y-61500000D01*
X99885674Y-61311744D01*
X99827179Y-61131716D01*
X99732533Y-60967784D01*
X99605871Y-60827112D01*
X99605870Y-60827111D01*
X99452734Y-60715851D01*
X99452729Y-60715848D01*
X99279807Y-60638857D01*
X99279802Y-60638855D01*
X99134000Y-60607865D01*
X99094646Y-60599500D01*
X98905354Y-60599500D01*
X98874938Y-60605965D01*
X98720197Y-60638855D01*
X98720192Y-60638857D01*
X98547270Y-60715848D01*
X98547265Y-60715851D01*
X98394129Y-60827111D01*
X98267466Y-60967785D01*
X98172821Y-61131715D01*
X98172818Y-61131722D01*
X98127077Y-61272500D01*
X98114326Y-61311744D01*
X98094540Y-61500000D01*
X98114326Y-61688256D01*
X98114327Y-61688259D01*
X98172818Y-61868277D01*
X98172821Y-61868284D01*
X98267467Y-62032216D01*
X98306763Y-62075858D01*
X98367650Y-62143480D01*
X98397880Y-62206471D01*
X98399500Y-62226452D01*
X98399500Y-63373547D01*
X98379815Y-63440586D01*
X98367650Y-63456519D01*
X98267466Y-63567785D01*
X98172821Y-63731715D01*
X98172818Y-63731722D01*
X98114327Y-63911740D01*
X98114326Y-63911744D01*
X98094540Y-64100000D01*
X51112345Y-64100000D01*
X49637351Y-62625006D01*
X67257200Y-62625006D01*
X67276364Y-62856297D01*
X67276366Y-62856308D01*
X67333342Y-63081300D01*
X67426575Y-63293848D01*
X67553516Y-63488147D01*
X67553519Y-63488151D01*
X67553521Y-63488153D01*
X67710716Y-63658913D01*
X67710719Y-63658915D01*
X67710722Y-63658918D01*
X67893865Y-63801464D01*
X67893871Y-63801468D01*
X67893874Y-63801470D01*
X68097997Y-63911936D01*
X68211987Y-63951068D01*
X68317515Y-63987297D01*
X68317517Y-63987297D01*
X68317519Y-63987298D01*
X68546451Y-64025500D01*
X68546452Y-64025500D01*
X68778548Y-64025500D01*
X68778549Y-64025500D01*
X69007481Y-63987298D01*
X69227003Y-63911936D01*
X69431126Y-63801470D01*
X69450878Y-63786097D01*
X69492629Y-63753600D01*
X69614284Y-63658913D01*
X69771479Y-63488153D01*
X69898424Y-63293849D01*
X69991657Y-63081300D01*
X70048634Y-62856305D01*
X70051767Y-62818493D01*
X70067800Y-62625006D01*
X70067800Y-62624993D01*
X70048635Y-62393702D01*
X70048633Y-62393691D01*
X69991657Y-62168699D01*
X69898424Y-61956151D01*
X69771483Y-61761852D01*
X69771480Y-61761849D01*
X69771479Y-61761847D01*
X69614284Y-61591087D01*
X69614279Y-61591083D01*
X69614277Y-61591081D01*
X69431134Y-61448535D01*
X69431128Y-61448531D01*
X69227004Y-61338064D01*
X69226995Y-61338061D01*
X69007484Y-61262702D01*
X68835782Y-61234050D01*
X68778549Y-61224500D01*
X68546451Y-61224500D01*
X68500664Y-61232140D01*
X68317515Y-61262702D01*
X68098004Y-61338061D01*
X68097995Y-61338064D01*
X67893871Y-61448531D01*
X67893865Y-61448535D01*
X67710722Y-61591081D01*
X67710719Y-61591084D01*
X67553516Y-61761852D01*
X67426575Y-61956151D01*
X67333342Y-62168699D01*
X67276366Y-62393691D01*
X67276364Y-62393702D01*
X67257200Y-62624993D01*
X67257200Y-62625006D01*
X49637351Y-62625006D01*
X47312833Y-60300488D01*
X47302760Y-60287914D01*
X47302573Y-60288070D01*
X47297597Y-60282055D01*
X47264781Y-60251240D01*
X47245831Y-60233445D01*
X47244457Y-60232112D01*
X47223434Y-60211089D01*
X47217639Y-60206594D01*
X47213197Y-60202799D01*
X47177795Y-60169554D01*
X47177787Y-60169548D01*
X47159191Y-60159325D01*
X47142930Y-60148644D01*
X47126162Y-60135637D01*
X47102694Y-60125482D01*
X47081577Y-60116343D01*
X47076355Y-60113786D01*
X47033767Y-60090373D01*
X47033764Y-60090372D01*
X47013200Y-60085092D01*
X46994795Y-60078790D01*
X46975326Y-60070365D01*
X46975320Y-60070363D01*
X46927350Y-60062766D01*
X46921635Y-60061582D01*
X46905171Y-60057355D01*
X46874579Y-60049500D01*
X46874576Y-60049500D01*
X46853354Y-60049500D01*
X46833954Y-60047973D01*
X46812995Y-60044653D01*
X46812994Y-60044653D01*
X46789185Y-60046903D01*
X46764629Y-60049225D01*
X46758791Y-60049500D01*
X42919808Y-60049500D01*
X42852769Y-60029815D01*
X42807014Y-59977011D01*
X42797070Y-59907853D01*
X42826095Y-59844297D01*
X42832127Y-59837819D01*
X44097076Y-58572870D01*
X63762000Y-58572870D01*
X63762001Y-58572876D01*
X63768408Y-58632483D01*
X63818702Y-58767328D01*
X63818706Y-58767335D01*
X63904952Y-58882544D01*
X63904955Y-58882547D01*
X64020164Y-58968793D01*
X64020171Y-58968797D01*
X64155017Y-59019091D01*
X64155016Y-59019091D01*
X64161944Y-59019835D01*
X64214627Y-59025500D01*
X66110372Y-59025499D01*
X66169983Y-59019091D01*
X66304831Y-58968796D01*
X66420046Y-58882546D01*
X66506296Y-58767331D01*
X66556591Y-58632483D01*
X66563000Y-58572873D01*
X66562999Y-56677128D01*
X66556591Y-56617517D01*
X66555694Y-56615113D01*
X66506297Y-56482671D01*
X66506293Y-56482664D01*
X66420047Y-56367455D01*
X66420044Y-56367452D01*
X66304835Y-56281206D01*
X66304828Y-56281202D01*
X66169982Y-56230908D01*
X66169983Y-56230908D01*
X66110383Y-56224501D01*
X66110381Y-56224500D01*
X66110373Y-56224500D01*
X66110364Y-56224500D01*
X64214629Y-56224500D01*
X64214623Y-56224501D01*
X64155016Y-56230908D01*
X64020171Y-56281202D01*
X64020164Y-56281206D01*
X63904955Y-56367452D01*
X63904952Y-56367455D01*
X63818706Y-56482664D01*
X63818702Y-56482671D01*
X63768408Y-56617517D01*
X63762679Y-56670812D01*
X63762001Y-56677123D01*
X63762000Y-56677135D01*
X63762000Y-58572870D01*
X44097076Y-58572870D01*
X45008127Y-57661819D01*
X45069450Y-57628334D01*
X45095808Y-57625500D01*
X45119644Y-57625500D01*
X45119646Y-57625500D01*
X45304803Y-57586144D01*
X45477730Y-57509151D01*
X45630871Y-57397888D01*
X45757533Y-57257216D01*
X45852179Y-57093284D01*
X45910674Y-56913256D01*
X45930460Y-56725000D01*
X45910674Y-56536744D01*
X45852179Y-56356716D01*
X45757533Y-56192784D01*
X45630871Y-56052112D01*
X45589658Y-56022169D01*
X45477734Y-55940851D01*
X45477729Y-55940848D01*
X45304807Y-55863857D01*
X45304802Y-55863855D01*
X45138921Y-55828597D01*
X45119646Y-55824500D01*
X44930354Y-55824500D01*
X44911079Y-55828597D01*
X44745197Y-55863855D01*
X44745192Y-55863857D01*
X44572270Y-55940848D01*
X44572265Y-55940851D01*
X44419129Y-56052111D01*
X44292466Y-56192785D01*
X44197821Y-56356715D01*
X44197818Y-56356722D01*
X44139327Y-56536739D01*
X44139326Y-56536741D01*
X44125831Y-56665142D01*
X44099246Y-56729757D01*
X44090191Y-56739861D01*
X41641305Y-59188749D01*
X41579982Y-59222234D01*
X41553624Y-59225068D01*
X41501975Y-59225068D01*
X41434936Y-59205383D01*
X41429090Y-59201386D01*
X41277734Y-59091419D01*
X41277729Y-59091416D01*
X41104807Y-59014425D01*
X41104802Y-59014423D01*
X40959001Y-58983433D01*
X40919646Y-58975068D01*
X40730354Y-58975068D01*
X40697897Y-58981966D01*
X40545197Y-59014423D01*
X40545192Y-59014425D01*
X40372270Y-59091416D01*
X40372265Y-59091419D01*
X40219129Y-59202679D01*
X40219128Y-59202680D01*
X40089959Y-59346136D01*
X40030473Y-59382784D01*
X39960616Y-59381453D01*
X39910129Y-59350844D01*
X29332155Y-48772870D01*
X42624500Y-48772870D01*
X42624501Y-48772876D01*
X42630908Y-48832483D01*
X42681202Y-48967328D01*
X42681206Y-48967335D01*
X42767452Y-49082544D01*
X42767455Y-49082547D01*
X42882664Y-49168793D01*
X42882671Y-49168797D01*
X43017517Y-49219091D01*
X43017516Y-49219091D01*
X43024444Y-49219835D01*
X43077127Y-49225500D01*
X44772872Y-49225499D01*
X44832483Y-49219091D01*
X44967331Y-49168796D01*
X45082546Y-49082546D01*
X45168796Y-48967331D01*
X45219091Y-48832483D01*
X45225500Y-48772873D01*
X45225499Y-47077128D01*
X45219091Y-47017517D01*
X45213924Y-47003664D01*
X45168797Y-46882671D01*
X45168793Y-46882664D01*
X45082547Y-46767455D01*
X45082544Y-46767452D01*
X44967335Y-46681206D01*
X44967328Y-46681202D01*
X44832482Y-46630908D01*
X44832483Y-46630908D01*
X44772883Y-46624501D01*
X44772881Y-46624500D01*
X44772873Y-46624500D01*
X44772864Y-46624500D01*
X43077129Y-46624500D01*
X43077123Y-46624501D01*
X43017516Y-46630908D01*
X42882671Y-46681202D01*
X42882664Y-46681206D01*
X42767455Y-46767452D01*
X42767452Y-46767455D01*
X42681206Y-46882664D01*
X42681202Y-46882671D01*
X42630908Y-47017517D01*
X42624501Y-47077116D01*
X42624501Y-47077123D01*
X42624500Y-47077135D01*
X42624500Y-48772870D01*
X29332155Y-48772870D01*
X28986818Y-48427533D01*
X28953333Y-48366210D01*
X28950499Y-48339861D01*
X28950500Y-47470921D01*
X28970185Y-47403881D01*
X28982351Y-47387948D01*
X29032533Y-47332216D01*
X29127179Y-47168284D01*
X29185674Y-46988256D01*
X29205460Y-46800000D01*
X29185674Y-46611744D01*
X29127179Y-46431716D01*
X29032533Y-46267784D01*
X28905871Y-46127112D01*
X28905870Y-46127111D01*
X28752734Y-46015851D01*
X28752729Y-46015848D01*
X28579807Y-45938857D01*
X28579802Y-45938855D01*
X28434001Y-45907865D01*
X28394646Y-45899500D01*
X28205354Y-45899500D01*
X28172897Y-45906398D01*
X28020197Y-45938855D01*
X28020192Y-45938857D01*
X27847270Y-46015848D01*
X27847265Y-46015851D01*
X27694129Y-46127111D01*
X27567466Y-46267785D01*
X27472821Y-46431715D01*
X27472818Y-46431722D01*
X27437637Y-46540000D01*
X27414326Y-46611744D01*
X27394540Y-46800000D01*
X15000500Y-46800000D01*
X15000500Y-35997870D01*
X77849500Y-35997870D01*
X77849501Y-35997876D01*
X77855908Y-36057483D01*
X77906202Y-36192328D01*
X77906206Y-36192335D01*
X77992452Y-36307544D01*
X77992455Y-36307547D01*
X78107664Y-36393793D01*
X78107671Y-36393797D01*
X78242517Y-36444091D01*
X78242516Y-36444091D01*
X78249444Y-36444835D01*
X78302127Y-36450500D01*
X80097872Y-36450499D01*
X80157483Y-36444091D01*
X80292331Y-36393796D01*
X80407546Y-36307546D01*
X80493796Y-36192331D01*
X80544091Y-36057483D01*
X80550500Y-35997873D01*
X80550499Y-35191517D01*
X80570183Y-35124479D01*
X80586813Y-35103842D01*
X82462975Y-33227681D01*
X82524296Y-33194198D01*
X82524362Y-33194183D01*
X82679803Y-33161144D01*
X82679807Y-33161142D01*
X82679808Y-33161142D01*
X82738058Y-33135206D01*
X82852730Y-33084151D01*
X83005871Y-32972888D01*
X83132533Y-32832216D01*
X83227179Y-32668284D01*
X83285674Y-32488256D01*
X83290864Y-32438869D01*
X83317447Y-32374258D01*
X83326494Y-32364161D01*
X87453837Y-28236819D01*
X87515161Y-28203334D01*
X87541519Y-28200500D01*
X105908075Y-28200500D01*
X105975114Y-28220185D01*
X106020869Y-28272989D01*
X106030813Y-28342147D01*
X106001788Y-28405703D01*
X105979198Y-28426075D01*
X105928597Y-28461505D01*
X105761505Y-28628597D01*
X105625965Y-28822169D01*
X105625964Y-28822171D01*
X105526098Y-29036335D01*
X105526094Y-29036344D01*
X105464938Y-29264586D01*
X105464936Y-29264596D01*
X105444341Y-29499999D01*
X105444341Y-29500000D01*
X105464936Y-29735403D01*
X105464938Y-29735413D01*
X105526094Y-29963655D01*
X105526096Y-29963659D01*
X105526097Y-29963663D01*
X105625964Y-30177829D01*
X105625965Y-30177830D01*
X105625967Y-30177834D01*
X105712564Y-30301506D01*
X105761501Y-30371396D01*
X105761506Y-30371402D01*
X105928597Y-30538493D01*
X105928603Y-30538498D01*
X106114158Y-30668425D01*
X106157783Y-30723002D01*
X106164977Y-30792500D01*
X106133454Y-30854855D01*
X106114158Y-30871575D01*
X105928597Y-31001505D01*
X105761508Y-31168594D01*
X105631574Y-31354159D01*
X105576997Y-31397784D01*
X105507498Y-31404976D01*
X105445144Y-31373454D01*
X105428424Y-31354158D01*
X105428301Y-31353983D01*
X105339466Y-31227112D01*
X105298494Y-31168597D01*
X105131402Y-31001506D01*
X105131395Y-31001501D01*
X105128537Y-30999500D01*
X105092521Y-30974281D01*
X104937834Y-30865967D01*
X104937830Y-30865965D01*
X104937829Y-30865964D01*
X104723663Y-30766097D01*
X104723659Y-30766096D01*
X104723655Y-30766094D01*
X104495413Y-30704938D01*
X104495403Y-30704936D01*
X104260001Y-30684341D01*
X104259999Y-30684341D01*
X104024596Y-30704936D01*
X104024586Y-30704938D01*
X103796344Y-30766094D01*
X103796335Y-30766098D01*
X103582171Y-30865964D01*
X103582169Y-30865965D01*
X103388597Y-31001505D01*
X103221505Y-31168597D01*
X103085965Y-31362169D01*
X103085964Y-31362171D01*
X102986098Y-31576335D01*
X102986094Y-31576344D01*
X102924938Y-31804586D01*
X102924936Y-31804596D01*
X102904341Y-32039999D01*
X102904341Y-32040000D01*
X102924936Y-32275403D01*
X102924938Y-32275413D01*
X102986094Y-32503655D01*
X102986096Y-32503659D01*
X102986097Y-32503663D01*
X103062629Y-32667785D01*
X103085965Y-32717830D01*
X103085967Y-32717834D01*
X103166059Y-32832216D01*
X103221501Y-32911396D01*
X103221506Y-32911402D01*
X103388597Y-33078493D01*
X103388603Y-33078498D01*
X103574158Y-33208425D01*
X103617783Y-33263002D01*
X103624977Y-33332500D01*
X103593454Y-33394855D01*
X103574158Y-33411575D01*
X103388597Y-33541505D01*
X103221505Y-33708597D01*
X103085965Y-33902169D01*
X103085964Y-33902171D01*
X102986098Y-34116335D01*
X102977005Y-34150267D01*
X102944912Y-34205851D01*
X100696210Y-36454553D01*
X100634887Y-36488038D01*
X100565195Y-36483054D01*
X100516380Y-36449845D01*
X100405871Y-36327112D01*
X100405863Y-36327106D01*
X100252734Y-36215851D01*
X100252729Y-36215848D01*
X100079807Y-36138857D01*
X100079802Y-36138855D01*
X99934001Y-36107865D01*
X99894646Y-36099500D01*
X99705354Y-36099500D01*
X99672897Y-36106398D01*
X99520197Y-36138855D01*
X99520192Y-36138857D01*
X99347270Y-36215848D01*
X99347265Y-36215851D01*
X99194135Y-36327106D01*
X99194128Y-36327112D01*
X99165891Y-36358473D01*
X99106405Y-36395121D01*
X99073742Y-36399500D01*
X93343428Y-36399500D01*
X93335329Y-36398969D01*
X93300000Y-36394318D01*
X93260639Y-36399500D01*
X93143239Y-36414955D01*
X93143237Y-36414956D01*
X92997160Y-36475463D01*
X92997158Y-36475464D01*
X92997159Y-36475464D01*
X92871718Y-36571718D01*
X92871716Y-36571720D01*
X92868907Y-36573876D01*
X92803737Y-36599070D01*
X92793420Y-36599500D01*
X92705354Y-36599500D01*
X92672897Y-36606398D01*
X92520197Y-36638855D01*
X92520192Y-36638857D01*
X92347270Y-36715848D01*
X92347265Y-36715851D01*
X92194129Y-36827111D01*
X92067466Y-36967785D01*
X91972821Y-37131715D01*
X91972818Y-37131722D01*
X91914327Y-37311740D01*
X91914326Y-37311744D01*
X91894540Y-37500000D01*
X91914326Y-37688256D01*
X91914327Y-37688259D01*
X91972818Y-37868277D01*
X91972821Y-37868284D01*
X92067466Y-38032215D01*
X92117649Y-38087948D01*
X92147880Y-38150940D01*
X92149500Y-38170921D01*
X92149500Y-43779192D01*
X92129815Y-43846231D01*
X92113181Y-43866873D01*
X80616873Y-55363181D01*
X80555550Y-55396666D01*
X80529192Y-55399500D01*
X80505354Y-55399500D01*
X80472897Y-55406398D01*
X80320197Y-55438855D01*
X80320192Y-55438857D01*
X80147270Y-55515848D01*
X80147265Y-55515851D01*
X79994129Y-55627111D01*
X79867466Y-55767785D01*
X79772821Y-55931715D01*
X79772818Y-55931722D01*
X79716537Y-56104938D01*
X79714326Y-56111744D01*
X79694540Y-56300000D01*
X79714326Y-56488256D01*
X79714327Y-56488259D01*
X79772818Y-56668277D01*
X79772821Y-56668284D01*
X79867467Y-56832216D01*
X79940436Y-56913256D01*
X79994129Y-56972888D01*
X80147265Y-57084148D01*
X80147270Y-57084151D01*
X80320192Y-57161142D01*
X80320197Y-57161144D01*
X80505354Y-57200500D01*
X80505355Y-57200500D01*
X80694644Y-57200500D01*
X80694646Y-57200500D01*
X80879803Y-57161144D01*
X81052730Y-57084151D01*
X81205871Y-56972888D01*
X81332533Y-56832216D01*
X81427179Y-56668284D01*
X81485674Y-56488256D01*
X81499168Y-56359855D01*
X81525752Y-56295242D01*
X81534799Y-56285145D01*
X91287818Y-46532126D01*
X91349142Y-46498641D01*
X91418834Y-46503625D01*
X91474767Y-46545497D01*
X91499184Y-46610961D01*
X91499500Y-46619807D01*
X91499500Y-49073547D01*
X91479815Y-49140586D01*
X91467650Y-49156519D01*
X91367466Y-49267785D01*
X91272821Y-49431715D01*
X91272818Y-49431722D01*
X91223150Y-49584586D01*
X91214326Y-49611744D01*
X91194540Y-49800000D01*
X91214326Y-49988256D01*
X91214327Y-49988259D01*
X91272818Y-50168277D01*
X91272821Y-50168284D01*
X91367467Y-50332216D01*
X91474939Y-50451575D01*
X91494129Y-50472888D01*
X91647265Y-50584148D01*
X91647270Y-50584151D01*
X91820192Y-50661142D01*
X91820197Y-50661144D01*
X92005354Y-50700500D01*
X92005355Y-50700500D01*
X92194644Y-50700500D01*
X92194646Y-50700500D01*
X92379803Y-50661144D01*
X92552730Y-50584151D01*
X92705871Y-50472888D01*
X92832533Y-50332216D01*
X92927179Y-50168284D01*
X92985674Y-49988256D01*
X93005460Y-49800000D01*
X92985674Y-49611744D01*
X92949366Y-49500000D01*
X93894540Y-49500000D01*
X93914326Y-49688256D01*
X93914327Y-49688259D01*
X93972818Y-49868277D01*
X93972821Y-49868284D01*
X94067467Y-50032216D01*
X94189977Y-50168277D01*
X94194129Y-50172888D01*
X94347265Y-50284148D01*
X94347270Y-50284151D01*
X94520192Y-50361142D01*
X94520197Y-50361144D01*
X94705354Y-50400500D01*
X94705355Y-50400500D01*
X94894644Y-50400500D01*
X94894646Y-50400500D01*
X95079803Y-50361144D01*
X95252730Y-50284151D01*
X95405871Y-50172888D01*
X95434108Y-50141527D01*
X95493595Y-50104879D01*
X95526258Y-50100500D01*
X99073742Y-50100500D01*
X99140781Y-50120185D01*
X99165891Y-50141527D01*
X99194128Y-50172887D01*
X99194135Y-50172893D01*
X99347265Y-50284148D01*
X99347270Y-50284151D01*
X99520192Y-50361142D01*
X99520197Y-50361144D01*
X99705354Y-50400500D01*
X99705355Y-50400500D01*
X99894644Y-50400500D01*
X99894646Y-50400500D01*
X100079803Y-50361144D01*
X100252730Y-50284151D01*
X100405871Y-50172888D01*
X100532533Y-50032216D01*
X100627179Y-49868284D01*
X100685674Y-49688256D01*
X100705460Y-49500000D01*
X100685674Y-49311744D01*
X100627179Y-49131716D01*
X100532533Y-48967784D01*
X100405871Y-48827112D01*
X100405863Y-48827106D01*
X100252734Y-48715851D01*
X100252729Y-48715848D01*
X100079807Y-48638857D01*
X100079802Y-48638855D01*
X99934001Y-48607865D01*
X99894646Y-48599500D01*
X99705354Y-48599500D01*
X99672897Y-48606398D01*
X99520197Y-48638855D01*
X99520192Y-48638857D01*
X99347270Y-48715848D01*
X99347265Y-48715851D01*
X99194135Y-48827106D01*
X99194128Y-48827112D01*
X99165891Y-48858473D01*
X99106405Y-48895121D01*
X99073742Y-48899500D01*
X95526258Y-48899500D01*
X95459219Y-48879815D01*
X95434109Y-48858473D01*
X95405871Y-48827112D01*
X95405864Y-48827106D01*
X95252734Y-48715851D01*
X95252729Y-48715848D01*
X95079807Y-48638857D01*
X95079802Y-48638855D01*
X94934001Y-48607865D01*
X94894646Y-48599500D01*
X94705354Y-48599500D01*
X94672897Y-48606398D01*
X94520197Y-48638855D01*
X94520192Y-48638857D01*
X94347270Y-48715848D01*
X94347265Y-48715851D01*
X94194129Y-48827111D01*
X94067466Y-48967785D01*
X93972821Y-49131715D01*
X93972818Y-49131722D01*
X93928609Y-49267785D01*
X93914326Y-49311744D01*
X93894540Y-49500000D01*
X92949366Y-49500000D01*
X92927179Y-49431716D01*
X92832533Y-49267784D01*
X92757972Y-49184976D01*
X92732350Y-49156519D01*
X92702120Y-49093527D01*
X92700500Y-49073547D01*
X92700500Y-46200096D01*
X92720185Y-46133057D01*
X92736814Y-46112420D01*
X103222420Y-35626813D01*
X103283741Y-35593330D01*
X103353433Y-35598314D01*
X103383750Y-35615980D01*
X103384164Y-35615390D01*
X103574158Y-35748425D01*
X103617783Y-35803002D01*
X103624977Y-35872500D01*
X103593454Y-35934855D01*
X103574158Y-35951575D01*
X103388597Y-36081505D01*
X103221505Y-36248597D01*
X103085965Y-36442169D01*
X103085964Y-36442171D01*
X102986098Y-36656335D01*
X102986094Y-36656344D01*
X102924938Y-36884586D01*
X102924936Y-36884596D01*
X102904341Y-37119999D01*
X102904341Y-37120000D01*
X102924936Y-37355403D01*
X102924938Y-37355413D01*
X102986094Y-37583655D01*
X102986096Y-37583659D01*
X102986097Y-37583663D01*
X103033903Y-37686182D01*
X103085965Y-37797830D01*
X103085967Y-37797834D01*
X103221501Y-37991395D01*
X103221506Y-37991402D01*
X103388597Y-38158493D01*
X103388603Y-38158498D01*
X103574158Y-38288425D01*
X103617783Y-38343002D01*
X103624977Y-38412500D01*
X103593454Y-38474855D01*
X103574158Y-38491575D01*
X103388597Y-38621505D01*
X103221505Y-38788597D01*
X103085965Y-38982169D01*
X103085964Y-38982171D01*
X102986098Y-39196335D01*
X102986094Y-39196344D01*
X102924938Y-39424586D01*
X102924936Y-39424596D01*
X102904341Y-39659999D01*
X102904341Y-39660000D01*
X102924936Y-39895403D01*
X102924938Y-39895413D01*
X102986094Y-40123655D01*
X102986096Y-40123659D01*
X102986097Y-40123663D01*
X102990000Y-40132032D01*
X103085965Y-40337830D01*
X103085967Y-40337834D01*
X103172564Y-40461506D01*
X103221501Y-40531396D01*
X103221506Y-40531402D01*
X103388597Y-40698493D01*
X103388603Y-40698498D01*
X103574158Y-40828425D01*
X103617783Y-40883002D01*
X103624977Y-40952500D01*
X103593454Y-41014855D01*
X103574158Y-41031575D01*
X103388597Y-41161505D01*
X103221505Y-41328597D01*
X103085965Y-41522169D01*
X103085964Y-41522171D01*
X102986098Y-41736335D01*
X102986094Y-41736344D01*
X102924938Y-41964586D01*
X102924936Y-41964596D01*
X102904341Y-42199999D01*
X102904341Y-42200000D01*
X102924936Y-42435403D01*
X102924938Y-42435413D01*
X102986094Y-42663655D01*
X102986096Y-42663659D01*
X102986097Y-42663663D01*
X103046154Y-42792455D01*
X103085965Y-42877830D01*
X103085967Y-42877834D01*
X103194281Y-43032521D01*
X103201279Y-43042516D01*
X103221501Y-43071395D01*
X103221506Y-43071402D01*
X103388597Y-43238493D01*
X103388603Y-43238498D01*
X103574158Y-43368425D01*
X103617783Y-43423002D01*
X103624977Y-43492500D01*
X103593454Y-43554855D01*
X103574158Y-43571575D01*
X103388597Y-43701505D01*
X103221505Y-43868597D01*
X103085965Y-44062169D01*
X103085964Y-44062171D01*
X102986098Y-44276335D01*
X102986094Y-44276344D01*
X102924938Y-44504586D01*
X102924936Y-44504596D01*
X102904341Y-44739999D01*
X102904341Y-44740000D01*
X102924936Y-44975403D01*
X102924938Y-44975413D01*
X102986094Y-45203655D01*
X102986096Y-45203659D01*
X102986097Y-45203663D01*
X103058870Y-45359725D01*
X103085965Y-45417830D01*
X103085967Y-45417834D01*
X103186075Y-45560802D01*
X103221505Y-45611401D01*
X103388599Y-45778495D01*
X103485384Y-45846264D01*
X103582165Y-45914032D01*
X103582167Y-45914033D01*
X103582170Y-45914035D01*
X103796337Y-46013903D01*
X103796343Y-46013904D01*
X103796344Y-46013905D01*
X103803607Y-46015851D01*
X104024592Y-46075063D01*
X104212918Y-46091539D01*
X104259999Y-46095659D01*
X104260000Y-46095659D01*
X104260001Y-46095659D01*
X104299234Y-46092226D01*
X104495408Y-46075063D01*
X104723663Y-46013903D01*
X104937830Y-45914035D01*
X105131401Y-45778495D01*
X105298495Y-45611401D01*
X105428424Y-45425842D01*
X105483002Y-45382217D01*
X105552500Y-45375023D01*
X105614855Y-45406546D01*
X105631575Y-45425842D01*
X105761501Y-45611396D01*
X105761506Y-45611402D01*
X105928597Y-45778493D01*
X105928603Y-45778498D01*
X106114158Y-45908425D01*
X106157783Y-45963002D01*
X106164977Y-46032500D01*
X106133454Y-46094855D01*
X106114158Y-46111575D01*
X105928597Y-46241505D01*
X105761505Y-46408597D01*
X105625965Y-46602169D01*
X105625964Y-46602171D01*
X105526098Y-46816335D01*
X105526094Y-46816344D01*
X105464938Y-47044586D01*
X105464936Y-47044596D01*
X105444341Y-47279999D01*
X105444341Y-47280000D01*
X105464936Y-47515403D01*
X105464938Y-47515413D01*
X105526094Y-47743655D01*
X105526096Y-47743659D01*
X105526097Y-47743663D01*
X105578946Y-47856998D01*
X105625965Y-47957830D01*
X105625967Y-47957834D01*
X105712564Y-48081506D01*
X105761501Y-48151396D01*
X105761506Y-48151402D01*
X105928597Y-48318493D01*
X105928603Y-48318498D01*
X106114158Y-48448425D01*
X106157783Y-48503002D01*
X106164977Y-48572500D01*
X106133454Y-48634855D01*
X106114158Y-48651575D01*
X105928597Y-48781505D01*
X105761508Y-48948594D01*
X105631574Y-49134159D01*
X105576997Y-49177784D01*
X105507498Y-49184976D01*
X105445144Y-49153454D01*
X105428424Y-49134158D01*
X105426718Y-49131722D01*
X105348990Y-49020714D01*
X105298494Y-48948597D01*
X105131402Y-48781506D01*
X105131395Y-48781501D01*
X105119087Y-48772883D01*
X105092521Y-48754281D01*
X104937834Y-48645967D01*
X104937830Y-48645965D01*
X104922583Y-48638855D01*
X104723663Y-48546097D01*
X104723659Y-48546096D01*
X104723655Y-48546094D01*
X104495413Y-48484938D01*
X104495403Y-48484936D01*
X104260001Y-48464341D01*
X104259999Y-48464341D01*
X104024596Y-48484936D01*
X104024586Y-48484938D01*
X103796344Y-48546094D01*
X103796335Y-48546098D01*
X103582171Y-48645964D01*
X103582169Y-48645965D01*
X103388597Y-48781505D01*
X103221505Y-48948597D01*
X103085965Y-49142169D01*
X103085964Y-49142171D01*
X102986098Y-49356335D01*
X102986094Y-49356344D01*
X102924938Y-49584586D01*
X102924936Y-49584596D01*
X102904341Y-49819999D01*
X102904341Y-49820000D01*
X102924936Y-50055403D01*
X102924938Y-50055413D01*
X102986094Y-50283655D01*
X102986096Y-50283659D01*
X102986097Y-50283663D01*
X103038946Y-50396998D01*
X103085965Y-50497830D01*
X103085967Y-50497834D01*
X103172564Y-50621506D01*
X103221501Y-50691396D01*
X103221506Y-50691402D01*
X103388597Y-50858493D01*
X103388603Y-50858498D01*
X103574158Y-50988425D01*
X103617783Y-51043002D01*
X103624977Y-51112500D01*
X103593454Y-51174855D01*
X103574158Y-51191575D01*
X103388597Y-51321505D01*
X103221505Y-51488597D01*
X103085965Y-51682169D01*
X103085964Y-51682171D01*
X102986098Y-51896335D01*
X102986094Y-51896344D01*
X102924938Y-52124586D01*
X102924936Y-52124596D01*
X102904341Y-52359999D01*
X102904341Y-52360000D01*
X102924936Y-52595403D01*
X102924938Y-52595413D01*
X102986094Y-52823655D01*
X102986096Y-52823659D01*
X102986097Y-52823663D01*
X103038946Y-52936998D01*
X103085965Y-53037830D01*
X103085967Y-53037834D01*
X103191297Y-53188259D01*
X103221504Y-53231400D01*
X103221506Y-53231402D01*
X103388597Y-53398493D01*
X103388603Y-53398498D01*
X103574158Y-53528425D01*
X103617783Y-53583002D01*
X103624977Y-53652500D01*
X103593454Y-53714855D01*
X103574158Y-53731575D01*
X103388597Y-53861505D01*
X103221505Y-54028597D01*
X103085965Y-54222169D01*
X103085964Y-54222171D01*
X102986098Y-54436335D01*
X102986094Y-54436344D01*
X102924938Y-54664586D01*
X102924936Y-54664596D01*
X102904341Y-54899999D01*
X102904341Y-54900000D01*
X102924936Y-55135403D01*
X102924938Y-55135413D01*
X102986094Y-55363655D01*
X102986096Y-55363659D01*
X102986097Y-55363663D01*
X103038946Y-55476998D01*
X103085965Y-55577830D01*
X103085967Y-55577834D01*
X103194281Y-55732521D01*
X103218972Y-55767784D01*
X103221501Y-55771395D01*
X103221506Y-55771402D01*
X103388597Y-55938493D01*
X103388603Y-55938498D01*
X103574158Y-56068425D01*
X103617783Y-56123002D01*
X103624977Y-56192500D01*
X103593454Y-56254855D01*
X103574158Y-56271575D01*
X103388597Y-56401505D01*
X103221505Y-56568597D01*
X103085965Y-56762169D01*
X103085964Y-56762171D01*
X102986098Y-56976335D01*
X102986094Y-56976344D01*
X102924938Y-57204586D01*
X102924936Y-57204596D01*
X102904341Y-57439999D01*
X102904341Y-57440000D01*
X102924936Y-57675403D01*
X102924938Y-57675413D01*
X102986094Y-57903655D01*
X102986096Y-57903659D01*
X102986097Y-57903663D01*
X103038946Y-58016998D01*
X103085965Y-58117830D01*
X103085967Y-58117834D01*
X103172564Y-58241506D01*
X103221501Y-58311396D01*
X103221506Y-58311402D01*
X103388597Y-58478493D01*
X103388603Y-58478498D01*
X103574158Y-58608425D01*
X103617783Y-58663002D01*
X103624977Y-58732500D01*
X103593454Y-58794855D01*
X103574158Y-58811575D01*
X103388597Y-58941505D01*
X103221505Y-59108597D01*
X103085965Y-59302169D01*
X103085964Y-59302171D01*
X102986098Y-59516335D01*
X102986094Y-59516344D01*
X102924938Y-59744586D01*
X102924936Y-59744596D01*
X102904341Y-59979999D01*
X102904341Y-59980000D01*
X102924936Y-60215403D01*
X102924938Y-60215413D01*
X102986094Y-60443655D01*
X102986096Y-60443659D01*
X102986097Y-60443663D01*
X103028372Y-60534321D01*
X103085965Y-60657830D01*
X103085967Y-60657834D01*
X103172564Y-60781506D01*
X103221501Y-60851396D01*
X103221506Y-60851402D01*
X103388597Y-61018493D01*
X103388603Y-61018498D01*
X103574158Y-61148425D01*
X103617783Y-61203002D01*
X103624977Y-61272500D01*
X103593454Y-61334855D01*
X103574158Y-61351575D01*
X103388597Y-61481505D01*
X103221508Y-61648595D01*
X103221503Y-61648601D01*
X103172965Y-61717919D01*
X103118387Y-61761543D01*
X103048888Y-61768735D01*
X102986534Y-61737212D01*
X102983710Y-61734475D01*
X94132424Y-52883189D01*
X94098939Y-52821866D01*
X94096784Y-52782547D01*
X94102503Y-52728132D01*
X94105460Y-52700000D01*
X94085674Y-52511744D01*
X94027179Y-52331716D01*
X93932533Y-52167784D01*
X93805871Y-52027112D01*
X93805870Y-52027111D01*
X93652734Y-51915851D01*
X93652729Y-51915848D01*
X93479807Y-51838857D01*
X93479802Y-51838855D01*
X93334001Y-51807865D01*
X93294646Y-51799500D01*
X93105354Y-51799500D01*
X93072897Y-51806398D01*
X92920197Y-51838855D01*
X92920192Y-51838857D01*
X92747270Y-51915848D01*
X92747265Y-51915851D01*
X92594129Y-52027111D01*
X92467466Y-52167785D01*
X92372821Y-52331715D01*
X92372818Y-52331722D01*
X92314327Y-52511740D01*
X92314326Y-52511744D01*
X92294540Y-52700000D01*
X92314326Y-52888256D01*
X92314327Y-52888259D01*
X92372818Y-53068277D01*
X92372821Y-53068284D01*
X92467467Y-53232216D01*
X92518233Y-53288597D01*
X92594129Y-53372888D01*
X92747265Y-53484148D01*
X92747270Y-53484151D01*
X92920192Y-53561142D01*
X92920197Y-53561144D01*
X93105354Y-53600500D01*
X93105355Y-53600500D01*
X93111822Y-53601180D01*
X93111534Y-53603915D01*
X93166942Y-53620185D01*
X93187584Y-53636819D01*
X102063181Y-62512416D01*
X102096666Y-62573739D01*
X102099500Y-62600097D01*
X102099499Y-63056571D01*
X102098968Y-63064670D01*
X102094781Y-63096476D01*
X102094318Y-63100000D01*
X102107417Y-63199500D01*
X102114956Y-63256762D01*
X102175464Y-63402841D01*
X102271718Y-63528282D01*
X102299995Y-63549980D01*
X102306085Y-63555320D01*
X102944681Y-64193917D01*
X102950026Y-64200013D01*
X102971718Y-64228282D01*
X103001909Y-64251448D01*
X103001915Y-64251453D01*
X103029753Y-64272814D01*
X103070955Y-64329242D01*
X103075110Y-64398988D01*
X103066648Y-64423595D01*
X102986098Y-64596335D01*
X102986094Y-64596344D01*
X102924938Y-64824586D01*
X102924936Y-64824596D01*
X102904341Y-65059999D01*
X102904341Y-65060000D01*
X102924936Y-65295403D01*
X102924938Y-65295413D01*
X102986094Y-65523655D01*
X102986096Y-65523659D01*
X102986097Y-65523663D01*
X103056599Y-65674855D01*
X103085965Y-65737830D01*
X103085967Y-65737834D01*
X103156884Y-65839113D01*
X103221505Y-65931401D01*
X103388599Y-66098495D01*
X103426451Y-66124999D01*
X103582165Y-66234032D01*
X103582167Y-66234033D01*
X103582170Y-66234035D01*
X103796337Y-66333903D01*
X104024592Y-66395063D01*
X104212918Y-66411539D01*
X104259999Y-66415659D01*
X104260000Y-66415659D01*
X104260001Y-66415659D01*
X104299234Y-66412226D01*
X104495408Y-66395063D01*
X104723663Y-66333903D01*
X104937830Y-66234035D01*
X105131401Y-66098495D01*
X105298495Y-65931401D01*
X105428424Y-65745842D01*
X105483002Y-65702217D01*
X105552500Y-65695023D01*
X105614855Y-65726546D01*
X105631575Y-65745842D01*
X105761501Y-65931396D01*
X105761506Y-65931402D01*
X105928597Y-66098493D01*
X105928603Y-66098498D01*
X106114158Y-66228425D01*
X106157783Y-66283002D01*
X106164977Y-66352500D01*
X106133454Y-66414855D01*
X106114158Y-66431575D01*
X105928597Y-66561505D01*
X105761505Y-66728597D01*
X105625965Y-66922169D01*
X105625964Y-66922171D01*
X105526098Y-67136335D01*
X105526094Y-67136344D01*
X105464938Y-67364586D01*
X105464936Y-67364596D01*
X105444341Y-67599999D01*
X105444341Y-67600000D01*
X105464936Y-67835403D01*
X105464938Y-67835413D01*
X105526094Y-68063655D01*
X105526096Y-68063659D01*
X105526097Y-68063663D01*
X105587369Y-68195061D01*
X105625965Y-68277830D01*
X105625967Y-68277834D01*
X105712564Y-68401506D01*
X105761501Y-68471396D01*
X105761506Y-68471402D01*
X105928597Y-68638493D01*
X105928603Y-68638498D01*
X106114158Y-68768425D01*
X106157783Y-68823002D01*
X106164977Y-68892500D01*
X106133454Y-68954855D01*
X106114158Y-68971575D01*
X105928597Y-69101505D01*
X105761508Y-69268594D01*
X105631574Y-69454159D01*
X105576997Y-69497784D01*
X105507498Y-69504976D01*
X105445144Y-69473454D01*
X105428424Y-69454158D01*
X105412709Y-69431715D01*
X105333925Y-69319198D01*
X105298494Y-69268597D01*
X105131402Y-69101506D01*
X105131395Y-69101501D01*
X104937834Y-68965967D01*
X104937830Y-68965965D01*
X104937828Y-68965964D01*
X104723663Y-68866097D01*
X104723659Y-68866096D01*
X104723655Y-68866094D01*
X104495413Y-68804938D01*
X104495403Y-68804936D01*
X104260001Y-68784341D01*
X104259999Y-68784341D01*
X104024596Y-68804936D01*
X104024586Y-68804938D01*
X103796344Y-68866094D01*
X103796335Y-68866098D01*
X103582171Y-68965964D01*
X103582169Y-68965965D01*
X103388597Y-69101505D01*
X103221505Y-69268597D01*
X103085965Y-69462169D01*
X103085964Y-69462171D01*
X102986098Y-69676335D01*
X102986094Y-69676344D01*
X102924938Y-69904586D01*
X102924936Y-69904596D01*
X102904341Y-70139999D01*
X102904341Y-70140000D01*
X102924936Y-70375403D01*
X102924938Y-70375413D01*
X102986094Y-70603655D01*
X102986096Y-70603659D01*
X102986097Y-70603663D01*
X103015998Y-70667785D01*
X103085965Y-70817830D01*
X103085967Y-70817834D01*
X103172563Y-70941505D01*
X103221501Y-71011396D01*
X103221506Y-71011402D01*
X103388597Y-71178493D01*
X103388603Y-71178498D01*
X103574158Y-71308425D01*
X103617783Y-71363002D01*
X103624977Y-71432500D01*
X103593454Y-71494855D01*
X103574158Y-71511575D01*
X103388597Y-71641505D01*
X103221505Y-71808597D01*
X103085965Y-72002169D01*
X103085964Y-72002171D01*
X102986098Y-72216335D01*
X102986094Y-72216344D01*
X102924938Y-72444586D01*
X102924936Y-72444596D01*
X102904341Y-72679999D01*
X102904341Y-72680000D01*
X102924936Y-72915403D01*
X102924938Y-72915413D01*
X102986094Y-73143655D01*
X102986096Y-73143659D01*
X102986097Y-73143663D01*
X103041560Y-73262603D01*
X103085965Y-73357830D01*
X103085967Y-73357834D01*
X103221501Y-73551395D01*
X103221506Y-73551402D01*
X103388597Y-73718493D01*
X103388603Y-73718498D01*
X103574158Y-73848425D01*
X103617783Y-73903002D01*
X103624977Y-73972500D01*
X103593454Y-74034855D01*
X103574158Y-74051575D01*
X103388597Y-74181505D01*
X103221505Y-74348597D01*
X103085965Y-74542169D01*
X103085964Y-74542171D01*
X102986098Y-74756335D01*
X102986094Y-74756344D01*
X102924938Y-74984586D01*
X102924936Y-74984596D01*
X102904341Y-75219999D01*
X102904341Y-75220000D01*
X102924936Y-75455403D01*
X102924938Y-75455413D01*
X102986094Y-75683655D01*
X102986096Y-75683659D01*
X102986097Y-75683663D01*
X103027698Y-75772876D01*
X103085965Y-75897830D01*
X103085967Y-75897834D01*
X103134628Y-75967328D01*
X103221501Y-76091396D01*
X103221506Y-76091402D01*
X103388597Y-76258493D01*
X103388603Y-76258498D01*
X103574158Y-76388425D01*
X103617783Y-76443002D01*
X103624977Y-76512500D01*
X103593454Y-76574855D01*
X103574158Y-76591575D01*
X103388597Y-76721505D01*
X103221505Y-76888597D01*
X103085965Y-77082169D01*
X103085964Y-77082171D01*
X102986098Y-77296335D01*
X102986094Y-77296344D01*
X102924938Y-77524586D01*
X102924936Y-77524596D01*
X102904341Y-77759999D01*
X102904341Y-77760000D01*
X102924936Y-77995403D01*
X102924938Y-77995413D01*
X102986094Y-78223655D01*
X102986096Y-78223659D01*
X102986097Y-78223663D01*
X102989855Y-78231722D01*
X103085965Y-78437830D01*
X103085967Y-78437834D01*
X103144444Y-78521347D01*
X103221505Y-78631401D01*
X103388599Y-78798495D01*
X103485384Y-78866264D01*
X103582165Y-78934032D01*
X103582167Y-78934033D01*
X103582170Y-78934035D01*
X103796337Y-79033903D01*
X104024592Y-79095063D01*
X104201034Y-79110500D01*
X104259999Y-79115659D01*
X104260000Y-79115659D01*
X104260001Y-79115659D01*
X104318966Y-79110500D01*
X104495408Y-79095063D01*
X104723663Y-79033903D01*
X104937830Y-78934035D01*
X105131401Y-78798495D01*
X105253329Y-78676566D01*
X105314648Y-78643084D01*
X105384340Y-78648068D01*
X105440274Y-78689939D01*
X105457189Y-78720917D01*
X105506202Y-78852328D01*
X105506206Y-78852335D01*
X105592452Y-78967544D01*
X105592455Y-78967547D01*
X105707664Y-79053793D01*
X105707671Y-79053797D01*
X105842517Y-79104091D01*
X105842516Y-79104091D01*
X105849444Y-79104835D01*
X105902127Y-79110500D01*
X107697872Y-79110499D01*
X107757483Y-79104091D01*
X107892331Y-79053796D01*
X108007546Y-78967546D01*
X108093796Y-78852331D01*
X108144091Y-78717483D01*
X108150500Y-78657873D01*
X108150499Y-76862128D01*
X108144091Y-76802517D01*
X108142810Y-76799083D01*
X108093797Y-76667671D01*
X108093793Y-76667664D01*
X108007547Y-76552455D01*
X108007544Y-76552452D01*
X107892335Y-76466206D01*
X107892328Y-76466202D01*
X107760917Y-76417189D01*
X107704983Y-76375318D01*
X107680566Y-76309853D01*
X107695418Y-76241580D01*
X107716563Y-76213332D01*
X107838495Y-76091401D01*
X107974035Y-75897830D01*
X108073903Y-75683663D01*
X108135063Y-75455408D01*
X108155659Y-75220000D01*
X108135063Y-74984592D01*
X108130558Y-74967779D01*
X108132219Y-74897932D01*
X108162649Y-74848006D01*
X109279056Y-73731599D01*
X109281748Y-73729065D01*
X109328183Y-73687929D01*
X109363436Y-73636855D01*
X109365613Y-73633896D01*
X109403878Y-73585057D01*
X109408037Y-73575815D01*
X109419062Y-73556268D01*
X109424818Y-73547930D01*
X109446820Y-73489912D01*
X109448235Y-73486495D01*
X109473694Y-73429932D01*
X109475520Y-73419965D01*
X109481548Y-73398340D01*
X109485140Y-73388872D01*
X109492615Y-73327309D01*
X109493179Y-73323605D01*
X109497456Y-73300258D01*
X109504357Y-73262606D01*
X109500613Y-73200707D01*
X109500500Y-73196963D01*
X109500500Y-66860000D01*
X114669341Y-66860000D01*
X114689936Y-67095403D01*
X114689938Y-67095413D01*
X114751094Y-67323655D01*
X114751096Y-67323659D01*
X114751097Y-67323663D01*
X114850964Y-67537829D01*
X114850965Y-67537830D01*
X114850967Y-67537834D01*
X114959281Y-67692521D01*
X114986505Y-67731401D01*
X115153599Y-67898495D01*
X115250384Y-67966264D01*
X115347165Y-68034032D01*
X115347167Y-68034033D01*
X115347170Y-68034035D01*
X115561337Y-68133903D01*
X115789592Y-68195063D01*
X115977918Y-68211539D01*
X116024999Y-68215659D01*
X116025000Y-68215659D01*
X116025001Y-68215659D01*
X116064234Y-68212226D01*
X116260408Y-68195063D01*
X116488663Y-68133903D01*
X116702830Y-68034035D01*
X116896401Y-67898495D01*
X117063495Y-67731401D01*
X117199035Y-67537830D01*
X117298903Y-67323663D01*
X117360063Y-67095408D01*
X117380659Y-66860000D01*
X117360063Y-66624592D01*
X117298903Y-66396337D01*
X117199035Y-66182171D01*
X117140444Y-66098493D01*
X117063494Y-65988597D01*
X116896402Y-65821506D01*
X116896396Y-65821501D01*
X116710842Y-65691575D01*
X116667217Y-65636998D01*
X116660023Y-65567500D01*
X116691546Y-65505145D01*
X116710842Y-65488425D01*
X116762702Y-65452112D01*
X116896401Y-65358495D01*
X117063495Y-65191401D01*
X117199035Y-64997830D01*
X117298903Y-64783663D01*
X117360063Y-64555408D01*
X117380659Y-64320000D01*
X117360063Y-64084592D01*
X117298903Y-63856337D01*
X117199035Y-63642171D01*
X117138228Y-63555328D01*
X117063494Y-63448597D01*
X116896402Y-63281506D01*
X116896396Y-63281501D01*
X116710842Y-63151575D01*
X116667217Y-63096998D01*
X116660023Y-63027500D01*
X116691546Y-62965145D01*
X116710842Y-62948425D01*
X116842398Y-62856308D01*
X116896401Y-62818495D01*
X117063495Y-62651401D01*
X117199035Y-62457830D01*
X117298903Y-62243663D01*
X117360063Y-62015408D01*
X117380659Y-61780000D01*
X117360063Y-61544592D01*
X117298903Y-61316337D01*
X117199035Y-61102171D01*
X117140444Y-61018493D01*
X117063494Y-60908597D01*
X116896402Y-60741506D01*
X116896396Y-60741501D01*
X116710842Y-60611575D01*
X116667217Y-60556998D01*
X116660023Y-60487500D01*
X116691546Y-60425145D01*
X116710842Y-60408425D01*
X116796949Y-60348132D01*
X116896401Y-60278495D01*
X117063495Y-60111401D01*
X117199035Y-59917830D01*
X117298903Y-59703663D01*
X117360063Y-59475408D01*
X117380659Y-59240000D01*
X117360063Y-59004592D01*
X117298903Y-58776337D01*
X117199035Y-58562171D01*
X117140444Y-58478493D01*
X117063494Y-58368597D01*
X116896402Y-58201506D01*
X116896396Y-58201501D01*
X116710842Y-58071575D01*
X116667217Y-58016998D01*
X116660023Y-57947500D01*
X116691546Y-57885145D01*
X116710842Y-57868425D01*
X116796949Y-57808132D01*
X116896401Y-57738495D01*
X117063495Y-57571401D01*
X117199035Y-57377830D01*
X117298903Y-57163663D01*
X117360063Y-56935408D01*
X117380659Y-56700000D01*
X117378657Y-56677123D01*
X117373590Y-56619198D01*
X117360063Y-56464592D01*
X117313626Y-56291285D01*
X117298905Y-56236344D01*
X117298904Y-56236343D01*
X117298903Y-56236337D01*
X117199035Y-56022171D01*
X117142095Y-55940851D01*
X117063494Y-55828597D01*
X116896402Y-55661506D01*
X116896396Y-55661501D01*
X116710842Y-55531575D01*
X116667217Y-55476998D01*
X116660023Y-55407500D01*
X116691546Y-55345145D01*
X116710842Y-55328425D01*
X116733026Y-55312891D01*
X116896401Y-55198495D01*
X117063495Y-55031401D01*
X117199035Y-54837830D01*
X117298903Y-54623663D01*
X117360063Y-54395408D01*
X117380659Y-54160000D01*
X117360063Y-53924592D01*
X117298903Y-53696337D01*
X117199035Y-53482171D01*
X117140444Y-53398493D01*
X117063494Y-53288597D01*
X116896402Y-53121506D01*
X116896396Y-53121501D01*
X116710842Y-52991575D01*
X116667217Y-52936998D01*
X116660023Y-52867500D01*
X116691546Y-52805145D01*
X116710842Y-52788425D01*
X116796949Y-52728132D01*
X116896401Y-52658495D01*
X117063495Y-52491401D01*
X117199035Y-52297830D01*
X117298903Y-52083663D01*
X117360063Y-51855408D01*
X117380659Y-51620000D01*
X117360063Y-51384592D01*
X117298903Y-51156337D01*
X117199035Y-50942171D01*
X117140444Y-50858493D01*
X117063494Y-50748597D01*
X116896402Y-50581506D01*
X116896396Y-50581501D01*
X116710842Y-50451575D01*
X116667217Y-50396998D01*
X116660023Y-50327500D01*
X116691546Y-50265145D01*
X116710842Y-50248425D01*
X116796949Y-50188132D01*
X116896401Y-50118495D01*
X117063495Y-49951401D01*
X117199035Y-49757830D01*
X117298903Y-49543663D01*
X117360063Y-49315408D01*
X117380659Y-49080000D01*
X117379129Y-49062518D01*
X117373232Y-48995113D01*
X117360063Y-48844592D01*
X117298903Y-48616337D01*
X117199035Y-48402171D01*
X117140444Y-48318493D01*
X117063494Y-48208597D01*
X116896402Y-48041506D01*
X116896396Y-48041501D01*
X116710842Y-47911575D01*
X116667217Y-47856998D01*
X116660023Y-47787500D01*
X116691546Y-47725145D01*
X116710842Y-47708425D01*
X116796949Y-47648132D01*
X116896401Y-47578495D01*
X117063495Y-47411401D01*
X117199035Y-47217830D01*
X117298903Y-47003663D01*
X117360063Y-46775408D01*
X117380659Y-46540000D01*
X117360063Y-46304592D01*
X117298903Y-46076337D01*
X117199035Y-45862171D01*
X117140443Y-45778493D01*
X117063496Y-45668600D01*
X117006291Y-45611395D01*
X116941567Y-45546671D01*
X116908084Y-45485351D01*
X116913068Y-45415659D01*
X116954939Y-45359725D01*
X116985915Y-45342810D01*
X117117331Y-45293796D01*
X117232546Y-45207546D01*
X117318796Y-45092331D01*
X117369091Y-44957483D01*
X117375500Y-44897873D01*
X117375499Y-43102128D01*
X117369091Y-43042517D01*
X117318796Y-42907669D01*
X117318795Y-42907668D01*
X117318793Y-42907664D01*
X117232547Y-42792455D01*
X117232544Y-42792452D01*
X117117335Y-42706206D01*
X117117328Y-42706202D01*
X116982482Y-42655908D01*
X116982483Y-42655908D01*
X116922883Y-42649501D01*
X116922881Y-42649500D01*
X116922873Y-42649500D01*
X116922864Y-42649500D01*
X115127129Y-42649500D01*
X115127123Y-42649501D01*
X115067516Y-42655908D01*
X114932671Y-42706202D01*
X114932664Y-42706206D01*
X114817455Y-42792452D01*
X114817452Y-42792455D01*
X114731206Y-42907664D01*
X114731202Y-42907671D01*
X114680908Y-43042517D01*
X114677803Y-43071402D01*
X114674501Y-43102123D01*
X114674500Y-43102135D01*
X114674500Y-44897870D01*
X114674501Y-44897876D01*
X114680908Y-44957483D01*
X114731202Y-45092328D01*
X114731206Y-45092335D01*
X114817452Y-45207544D01*
X114817455Y-45207547D01*
X114932664Y-45293793D01*
X114932671Y-45293797D01*
X115064081Y-45342810D01*
X115120015Y-45384681D01*
X115144432Y-45450145D01*
X115129580Y-45518418D01*
X115108430Y-45546673D01*
X114986503Y-45668600D01*
X114850965Y-45862169D01*
X114850964Y-45862171D01*
X114751098Y-46076335D01*
X114751094Y-46076344D01*
X114689938Y-46304586D01*
X114689936Y-46304596D01*
X114669341Y-46539999D01*
X114669341Y-46540000D01*
X114689936Y-46775403D01*
X114689938Y-46775413D01*
X114751094Y-47003655D01*
X114751096Y-47003659D01*
X114751097Y-47003663D01*
X114785355Y-47077129D01*
X114850965Y-47217830D01*
X114850967Y-47217834D01*
X114931058Y-47332215D01*
X114981239Y-47403881D01*
X114986501Y-47411395D01*
X114986506Y-47411402D01*
X115153597Y-47578493D01*
X115153603Y-47578498D01*
X115339158Y-47708425D01*
X115382783Y-47763002D01*
X115389977Y-47832500D01*
X115358454Y-47894855D01*
X115339158Y-47911575D01*
X115153597Y-48041505D01*
X114986505Y-48208597D01*
X114850965Y-48402169D01*
X114850964Y-48402171D01*
X114751098Y-48616335D01*
X114751094Y-48616344D01*
X114689938Y-48844586D01*
X114689936Y-48844596D01*
X114669341Y-49079999D01*
X114669341Y-49080000D01*
X114689936Y-49315403D01*
X114689938Y-49315413D01*
X114751094Y-49543655D01*
X114751096Y-49543659D01*
X114751097Y-49543663D01*
X114850965Y-49757829D01*
X114850965Y-49757830D01*
X114850967Y-49757834D01*
X114986501Y-49951395D01*
X114986506Y-49951402D01*
X115153597Y-50118493D01*
X115153603Y-50118498D01*
X115339158Y-50248425D01*
X115382783Y-50303002D01*
X115389977Y-50372500D01*
X115358454Y-50434855D01*
X115339158Y-50451575D01*
X115153597Y-50581505D01*
X114986505Y-50748597D01*
X114850965Y-50942169D01*
X114850964Y-50942171D01*
X114751098Y-51156335D01*
X114751094Y-51156344D01*
X114689938Y-51384586D01*
X114689936Y-51384596D01*
X114669341Y-51619999D01*
X114669341Y-51620000D01*
X114689936Y-51855403D01*
X114689938Y-51855413D01*
X114751094Y-52083655D01*
X114751096Y-52083659D01*
X114751097Y-52083663D01*
X114850964Y-52297829D01*
X114850965Y-52297830D01*
X114850967Y-52297834D01*
X114986501Y-52491395D01*
X114986506Y-52491402D01*
X115153597Y-52658493D01*
X115153603Y-52658498D01*
X115339158Y-52788425D01*
X115382783Y-52843002D01*
X115389977Y-52912500D01*
X115358454Y-52974855D01*
X115339158Y-52991575D01*
X115153597Y-53121505D01*
X114986505Y-53288597D01*
X114850965Y-53482169D01*
X114850964Y-53482171D01*
X114751098Y-53696335D01*
X114751094Y-53696344D01*
X114689938Y-53924586D01*
X114689936Y-53924596D01*
X114669341Y-54159999D01*
X114669341Y-54160000D01*
X114689936Y-54395403D01*
X114689938Y-54395413D01*
X114751094Y-54623655D01*
X114751096Y-54623659D01*
X114751097Y-54623663D01*
X114840044Y-54814410D01*
X114850965Y-54837830D01*
X114850967Y-54837834D01*
X114986501Y-55031395D01*
X114986506Y-55031402D01*
X115153597Y-55198493D01*
X115153603Y-55198498D01*
X115339158Y-55328425D01*
X115382783Y-55383002D01*
X115389977Y-55452500D01*
X115358454Y-55514855D01*
X115339158Y-55531575D01*
X115153597Y-55661505D01*
X114986505Y-55828597D01*
X114850965Y-56022169D01*
X114850964Y-56022171D01*
X114751098Y-56236335D01*
X114751094Y-56236344D01*
X114689938Y-56464586D01*
X114689936Y-56464596D01*
X114669341Y-56699999D01*
X114669341Y-56700000D01*
X114689936Y-56935403D01*
X114689938Y-56935413D01*
X114751094Y-57163655D01*
X114751096Y-57163659D01*
X114751097Y-57163663D01*
X114820291Y-57312049D01*
X114850965Y-57377830D01*
X114850967Y-57377834D01*
X114986501Y-57571395D01*
X114986506Y-57571402D01*
X115153597Y-57738493D01*
X115153603Y-57738498D01*
X115339158Y-57868425D01*
X115382783Y-57923002D01*
X115389977Y-57992500D01*
X115358454Y-58054855D01*
X115339158Y-58071575D01*
X115153597Y-58201505D01*
X114986505Y-58368597D01*
X114850965Y-58562169D01*
X114850964Y-58562171D01*
X114751098Y-58776335D01*
X114751094Y-58776344D01*
X114689938Y-59004586D01*
X114689936Y-59004596D01*
X114669341Y-59239999D01*
X114669341Y-59240000D01*
X114689936Y-59475403D01*
X114689938Y-59475413D01*
X114751094Y-59703655D01*
X114751096Y-59703659D01*
X114751097Y-59703663D01*
X114801496Y-59811744D01*
X114850965Y-59917830D01*
X114850967Y-59917834D01*
X114986501Y-60111395D01*
X114986506Y-60111402D01*
X115153597Y-60278493D01*
X115153603Y-60278498D01*
X115339158Y-60408425D01*
X115382783Y-60463002D01*
X115389977Y-60532500D01*
X115358454Y-60594855D01*
X115339158Y-60611575D01*
X115153597Y-60741505D01*
X114986505Y-60908597D01*
X114850965Y-61102169D01*
X114850964Y-61102171D01*
X114751098Y-61316335D01*
X114751094Y-61316344D01*
X114689938Y-61544586D01*
X114689936Y-61544596D01*
X114669341Y-61779999D01*
X114669341Y-61780000D01*
X114689936Y-62015403D01*
X114689938Y-62015413D01*
X114751094Y-62243655D01*
X114751096Y-62243659D01*
X114751097Y-62243663D01*
X114821058Y-62393695D01*
X114850965Y-62457830D01*
X114850967Y-62457834D01*
X114986501Y-62651395D01*
X114986506Y-62651402D01*
X115153597Y-62818493D01*
X115153603Y-62818498D01*
X115339158Y-62948425D01*
X115382783Y-63003002D01*
X115389977Y-63072500D01*
X115358454Y-63134855D01*
X115339158Y-63151575D01*
X115153597Y-63281505D01*
X114986505Y-63448597D01*
X114850965Y-63642169D01*
X114850964Y-63642171D01*
X114751098Y-63856335D01*
X114751094Y-63856344D01*
X114689938Y-64084586D01*
X114689936Y-64084596D01*
X114669341Y-64319999D01*
X114669341Y-64320000D01*
X114689936Y-64555403D01*
X114689938Y-64555413D01*
X114751094Y-64783655D01*
X114751096Y-64783659D01*
X114751097Y-64783663D01*
X114833857Y-64961142D01*
X114850965Y-64997830D01*
X114850967Y-64997834D01*
X114986501Y-65191395D01*
X114986506Y-65191402D01*
X115153597Y-65358493D01*
X115153603Y-65358498D01*
X115339158Y-65488425D01*
X115382783Y-65543002D01*
X115389977Y-65612500D01*
X115358454Y-65674855D01*
X115339158Y-65691575D01*
X115153597Y-65821505D01*
X114986505Y-65988597D01*
X114850965Y-66182169D01*
X114850964Y-66182171D01*
X114751098Y-66396335D01*
X114751094Y-66396344D01*
X114689938Y-66624586D01*
X114689936Y-66624596D01*
X114669341Y-66859999D01*
X114669341Y-66860000D01*
X109500500Y-66860000D01*
X109500500Y-28923047D01*
X109500613Y-28919302D01*
X109501026Y-28912468D01*
X109504358Y-28857394D01*
X109493175Y-28796370D01*
X109492613Y-28792673D01*
X109485140Y-28731127D01*
X109481548Y-28721656D01*
X109475522Y-28700042D01*
X109473695Y-28690068D01*
X109448234Y-28633496D01*
X109446806Y-28630049D01*
X109446256Y-28628599D01*
X109424818Y-28572070D01*
X109419063Y-28563733D01*
X109408036Y-28544182D01*
X109403879Y-28534946D01*
X109403878Y-28534943D01*
X109386287Y-28512490D01*
X109365630Y-28486122D01*
X109363410Y-28483106D01*
X109328182Y-28432070D01*
X109321415Y-28426075D01*
X109281750Y-28390935D01*
X109279056Y-28388399D01*
X107911598Y-27020941D01*
X107909064Y-27018250D01*
X107867929Y-26971817D01*
X107867928Y-26971816D01*
X107867924Y-26971812D01*
X107816896Y-26936591D01*
X107813887Y-26934377D01*
X107765060Y-26896124D01*
X107765055Y-26896120D01*
X107755813Y-26891961D01*
X107736266Y-26880936D01*
X107727931Y-26875183D01*
X107727932Y-26875183D01*
X107727930Y-26875182D01*
X107669941Y-26853189D01*
X107666490Y-26851759D01*
X107609930Y-26826304D01*
X107599946Y-26824474D01*
X107578343Y-26818451D01*
X107568874Y-26814860D01*
X107568870Y-26814859D01*
X107507313Y-26807384D01*
X107503612Y-26806821D01*
X107442608Y-26795642D01*
X107442603Y-26795642D01*
X107380697Y-26799387D01*
X107376952Y-26799500D01*
X87223037Y-26799500D01*
X87219293Y-26799387D01*
X87157397Y-26795643D01*
X87157390Y-26795643D01*
X87116413Y-26803152D01*
X87096387Y-26806821D01*
X87092698Y-26807383D01*
X87031128Y-26814859D01*
X87031127Y-26814860D01*
X87021653Y-26818453D01*
X87000042Y-26824477D01*
X86990068Y-26826305D01*
X86933513Y-26851757D01*
X86930055Y-26853189D01*
X86872077Y-26875179D01*
X86872074Y-26875180D01*
X86872070Y-26875182D01*
X86872067Y-26875183D01*
X86872061Y-26875187D01*
X86863723Y-26880942D01*
X86844188Y-26891960D01*
X86834948Y-26896119D01*
X86834939Y-26896124D01*
X86786124Y-26934368D01*
X86783109Y-26936586D01*
X86732068Y-26971818D01*
X86690942Y-27018240D01*
X86688375Y-27020966D01*
X82337026Y-31372316D01*
X82275703Y-31405801D01*
X82275126Y-31405925D01*
X82120197Y-31438855D01*
X82120192Y-31438857D01*
X81947270Y-31515848D01*
X81947265Y-31515851D01*
X81794129Y-31627111D01*
X81667466Y-31767785D01*
X81572821Y-31931715D01*
X81572818Y-31931722D01*
X81514327Y-32111739D01*
X81514325Y-32111750D01*
X81509134Y-32161129D01*
X81482549Y-32225743D01*
X81473495Y-32235846D01*
X79996160Y-33713181D01*
X79934837Y-33746666D01*
X79908479Y-33749500D01*
X78302129Y-33749500D01*
X78302123Y-33749501D01*
X78242516Y-33755908D01*
X78107671Y-33806202D01*
X78107664Y-33806206D01*
X77992455Y-33892452D01*
X77992452Y-33892455D01*
X77906206Y-34007664D01*
X77906202Y-34007671D01*
X77855908Y-34142517D01*
X77849501Y-34202116D01*
X77849500Y-34202135D01*
X77849500Y-35997870D01*
X15000500Y-35997870D01*
X15000500Y-34097870D01*
X30349500Y-34097870D01*
X30349501Y-34097876D01*
X30355908Y-34157483D01*
X30406202Y-34292328D01*
X30406206Y-34292335D01*
X30492452Y-34407544D01*
X30492455Y-34407547D01*
X30607664Y-34493793D01*
X30607671Y-34493797D01*
X30742517Y-34544091D01*
X30742516Y-34544091D01*
X30749444Y-34544835D01*
X30802127Y-34550500D01*
X32597872Y-34550499D01*
X32657483Y-34544091D01*
X32792331Y-34493796D01*
X32907546Y-34407546D01*
X32993796Y-34292331D01*
X33044091Y-34157483D01*
X33050500Y-34097873D01*
X33050500Y-33200001D01*
X57494540Y-33200001D01*
X57514326Y-33388257D01*
X57514327Y-33388260D01*
X57572818Y-33568278D01*
X57572821Y-33568285D01*
X57667467Y-33732217D01*
X57794128Y-33872889D01*
X57794129Y-33872889D01*
X57947265Y-33984149D01*
X57947270Y-33984152D01*
X58120192Y-34061143D01*
X58120197Y-34061145D01*
X58305354Y-34100501D01*
X58305355Y-34100501D01*
X58494644Y-34100501D01*
X58494646Y-34100501D01*
X58679803Y-34061145D01*
X58852730Y-33984152D01*
X59005871Y-33872889D01*
X59132533Y-33732217D01*
X59227179Y-33568285D01*
X59285674Y-33388257D01*
X59299168Y-33259856D01*
X59325752Y-33195243D01*
X59334798Y-33185147D01*
X59933127Y-32586819D01*
X59994451Y-32553334D01*
X60020809Y-32550500D01*
X64023025Y-32550500D01*
X64090064Y-32570185D01*
X64095910Y-32574182D01*
X64247265Y-32684148D01*
X64247270Y-32684151D01*
X64420192Y-32761142D01*
X64420197Y-32761144D01*
X64605354Y-32800500D01*
X64605355Y-32800500D01*
X64794644Y-32800500D01*
X64794646Y-32800500D01*
X64979803Y-32761144D01*
X65152730Y-32684151D01*
X65305871Y-32572888D01*
X65432533Y-32432216D01*
X65527179Y-32268284D01*
X65585674Y-32088256D01*
X65605460Y-31900000D01*
X65585674Y-31711744D01*
X65527179Y-31531716D01*
X65432533Y-31367784D01*
X65305871Y-31227112D01*
X65304090Y-31225818D01*
X65152734Y-31115851D01*
X65152729Y-31115848D01*
X64979807Y-31038857D01*
X64979802Y-31038855D01*
X64834001Y-31007865D01*
X64794646Y-30999500D01*
X64605354Y-30999500D01*
X64572897Y-31006398D01*
X64420197Y-31038855D01*
X64420192Y-31038857D01*
X64247270Y-31115848D01*
X64247265Y-31115851D01*
X64095910Y-31225818D01*
X64030104Y-31249298D01*
X64023025Y-31249500D01*
X59785506Y-31249500D01*
X59769495Y-31247732D01*
X59769473Y-31247974D01*
X59761706Y-31247239D01*
X59690766Y-31249469D01*
X59688818Y-31249500D01*
X59659076Y-31249500D01*
X59659072Y-31249500D01*
X59659062Y-31249501D01*
X59651794Y-31250419D01*
X59645977Y-31250876D01*
X59597437Y-31252402D01*
X59597426Y-31252404D01*
X59577050Y-31258323D01*
X59558009Y-31262266D01*
X59536954Y-31264926D01*
X59536938Y-31264930D01*
X59491772Y-31282812D01*
X59486245Y-31284704D01*
X59439600Y-31298256D01*
X59421328Y-31309062D01*
X59403862Y-31317619D01*
X59384129Y-31325432D01*
X59344831Y-31353983D01*
X59339954Y-31357186D01*
X59326282Y-31365272D01*
X59298133Y-31381920D01*
X59283127Y-31396926D01*
X59268337Y-31409558D01*
X59251168Y-31422032D01*
X59251166Y-31422034D01*
X59220195Y-31459470D01*
X59216263Y-31463791D01*
X58416873Y-32263182D01*
X58355550Y-32296667D01*
X58329192Y-32299501D01*
X58305354Y-32299501D01*
X58272897Y-32306399D01*
X58120197Y-32338856D01*
X58120192Y-32338858D01*
X57947270Y-32415849D01*
X57947265Y-32415852D01*
X57794129Y-32527112D01*
X57667466Y-32667786D01*
X57572821Y-32831716D01*
X57572818Y-32831723D01*
X57540261Y-32931925D01*
X57514326Y-33011745D01*
X57494540Y-33200001D01*
X33050500Y-33200001D01*
X33050499Y-32302128D01*
X33044091Y-32242517D01*
X33030022Y-32204797D01*
X32993797Y-32107671D01*
X32993793Y-32107664D01*
X32907547Y-31992455D01*
X32907544Y-31992452D01*
X32792335Y-31906206D01*
X32792328Y-31906202D01*
X32657482Y-31855908D01*
X32657483Y-31855908D01*
X32597883Y-31849501D01*
X32597881Y-31849500D01*
X32597873Y-31849500D01*
X32597864Y-31849500D01*
X30802129Y-31849500D01*
X30802123Y-31849501D01*
X30742516Y-31855908D01*
X30607671Y-31906202D01*
X30607664Y-31906206D01*
X30492455Y-31992452D01*
X30492452Y-31992455D01*
X30406206Y-32107664D01*
X30406202Y-32107671D01*
X30355908Y-32242517D01*
X30352372Y-32275413D01*
X30349501Y-32302123D01*
X30349500Y-32302135D01*
X30349500Y-34097870D01*
X15000500Y-34097870D01*
X15000500Y-27831187D01*
X35399500Y-27831187D01*
X35419794Y-27965823D01*
X35438604Y-28090615D01*
X35438605Y-28090617D01*
X35438606Y-28090623D01*
X35515938Y-28341326D01*
X35629767Y-28577696D01*
X35629768Y-28577697D01*
X35629770Y-28577700D01*
X35629772Y-28577704D01*
X35667821Y-28633511D01*
X35777567Y-28794479D01*
X35956014Y-28986801D01*
X35956018Y-28986804D01*
X35956019Y-28986805D01*
X36161143Y-29150386D01*
X36388357Y-29281568D01*
X36632584Y-29377420D01*
X36888370Y-29435802D01*
X36888376Y-29435802D01*
X36888379Y-29435803D01*
X37084484Y-29450499D01*
X37084503Y-29450499D01*
X37084506Y-29450500D01*
X37084508Y-29450500D01*
X39715492Y-29450500D01*
X39715494Y-29450500D01*
X39715496Y-29450499D01*
X39715515Y-29450499D01*
X39911620Y-29435803D01*
X39911622Y-29435802D01*
X39911630Y-29435802D01*
X40167416Y-29377420D01*
X40411643Y-29281568D01*
X40638857Y-29150386D01*
X40843981Y-28986805D01*
X41022433Y-28794479D01*
X41170228Y-28577704D01*
X41284063Y-28341323D01*
X41361396Y-28090615D01*
X41400500Y-27831182D01*
X41400500Y-27568818D01*
X41361396Y-27309385D01*
X41284063Y-27058677D01*
X41245190Y-26977956D01*
X41170232Y-26822303D01*
X41170231Y-26822302D01*
X41170230Y-26822301D01*
X41170228Y-26822296D01*
X41022433Y-26605521D01*
X40985057Y-26565239D01*
X40843985Y-26413198D01*
X40738228Y-26328860D01*
X40638857Y-26249614D01*
X40411643Y-26118432D01*
X40167416Y-26022580D01*
X40167411Y-26022578D01*
X40167402Y-26022576D01*
X39949818Y-25972914D01*
X39911630Y-25964198D01*
X39911629Y-25964197D01*
X39911625Y-25964197D01*
X39911620Y-25964196D01*
X39715515Y-25949500D01*
X39715494Y-25949500D01*
X37084506Y-25949500D01*
X37084484Y-25949500D01*
X36888379Y-25964196D01*
X36888374Y-25964197D01*
X36632597Y-26022576D01*
X36632578Y-26022582D01*
X36388356Y-26118432D01*
X36161143Y-26249614D01*
X35956014Y-26413198D01*
X35777567Y-26605520D01*
X35656294Y-26783396D01*
X35632394Y-26818451D01*
X35629768Y-26822302D01*
X35629767Y-26822303D01*
X35515938Y-27058673D01*
X35438606Y-27309376D01*
X35438605Y-27309381D01*
X35438604Y-27309385D01*
X35428605Y-27375722D01*
X35399500Y-27568812D01*
X35399500Y-27831187D01*
X15000500Y-27831187D01*
X15000500Y-27047870D01*
X25999500Y-27047870D01*
X25999501Y-27047876D01*
X26005908Y-27107483D01*
X26056202Y-27242328D01*
X26056206Y-27242335D01*
X26142452Y-27357544D01*
X26142455Y-27357547D01*
X26257664Y-27443793D01*
X26257671Y-27443797D01*
X26392517Y-27494091D01*
X26392516Y-27494091D01*
X26399444Y-27494835D01*
X26452127Y-27500500D01*
X28147872Y-27500499D01*
X28207483Y-27494091D01*
X28342331Y-27443796D01*
X28457546Y-27357546D01*
X28543796Y-27242331D01*
X28594091Y-27107483D01*
X28600500Y-27047873D01*
X28600499Y-25888868D01*
X32074500Y-25888868D01*
X32089547Y-26080065D01*
X32089547Y-26080068D01*
X32089548Y-26080070D01*
X32149278Y-26328860D01*
X32149279Y-26328864D01*
X32247188Y-26565239D01*
X32247190Y-26565242D01*
X32380875Y-26783396D01*
X32380878Y-26783401D01*
X32456200Y-26871591D01*
X32547044Y-26977956D01*
X32671579Y-27084319D01*
X32741598Y-27144121D01*
X32741603Y-27144124D01*
X32959757Y-27277809D01*
X32959760Y-27277811D01*
X33196135Y-27375720D01*
X33196140Y-27375722D01*
X33444930Y-27435452D01*
X33700000Y-27455526D01*
X33955070Y-27435452D01*
X34203860Y-27375722D01*
X34364019Y-27309382D01*
X34440239Y-27277811D01*
X34440240Y-27277810D01*
X34440243Y-27277809D01*
X34658399Y-27144123D01*
X34852956Y-26977956D01*
X35019123Y-26783399D01*
X35152809Y-26565243D01*
X35250722Y-26328860D01*
X35310452Y-26080070D01*
X35325500Y-25888863D01*
X35325500Y-23511137D01*
X35310452Y-23319930D01*
X35250722Y-23071140D01*
X35250720Y-23071135D01*
X35152811Y-22834760D01*
X35152809Y-22834757D01*
X35019124Y-22616603D01*
X35019121Y-22616598D01*
X34959319Y-22546579D01*
X34852956Y-22422044D01*
X34746591Y-22331200D01*
X34658401Y-22255878D01*
X34658396Y-22255875D01*
X34440242Y-22122190D01*
X34440239Y-22122188D01*
X34203864Y-22024279D01*
X34203860Y-22024278D01*
X33955070Y-21964548D01*
X33955067Y-21964547D01*
X33955064Y-21964547D01*
X33700000Y-21944474D01*
X33444935Y-21964547D01*
X33444931Y-21964547D01*
X33444930Y-21964548D01*
X33320534Y-21994412D01*
X33196135Y-22024279D01*
X32959760Y-22122188D01*
X32959757Y-22122190D01*
X32741603Y-22255875D01*
X32741598Y-22255878D01*
X32547044Y-22422044D01*
X32380878Y-22616598D01*
X32380875Y-22616603D01*
X32247190Y-22834757D01*
X32247188Y-22834760D01*
X32149279Y-23071135D01*
X32089547Y-23319934D01*
X32074500Y-23511131D01*
X32074500Y-25888868D01*
X28600499Y-25888868D01*
X28600499Y-25352128D01*
X28594091Y-25292517D01*
X28543796Y-25157669D01*
X28543795Y-25157668D01*
X28543793Y-25157664D01*
X28457547Y-25042455D01*
X28457544Y-25042452D01*
X28342335Y-24956206D01*
X28342328Y-24956202D01*
X28207482Y-24905908D01*
X28207483Y-24905908D01*
X28147883Y-24899501D01*
X28147881Y-24899500D01*
X28147873Y-24899500D01*
X28147864Y-24899500D01*
X26452129Y-24899500D01*
X26452123Y-24899501D01*
X26392516Y-24905908D01*
X26257671Y-24956202D01*
X26257664Y-24956206D01*
X26142455Y-25042452D01*
X26142452Y-25042455D01*
X26056206Y-25157664D01*
X26056202Y-25157671D01*
X26005908Y-25292517D01*
X25999501Y-25352116D01*
X25999501Y-25352123D01*
X25999500Y-25352135D01*
X25999500Y-27047870D01*
X15000500Y-27047870D01*
X15000500Y-20722870D01*
X89049500Y-20722870D01*
X89049501Y-20722876D01*
X89055908Y-20782483D01*
X89106202Y-20917328D01*
X89106206Y-20917335D01*
X89192452Y-21032544D01*
X89192455Y-21032547D01*
X89307664Y-21118793D01*
X89307671Y-21118797D01*
X89442517Y-21169091D01*
X89442516Y-21169091D01*
X89449444Y-21169835D01*
X89502127Y-21175500D01*
X91297872Y-21175499D01*
X91357483Y-21169091D01*
X91492331Y-21118796D01*
X91607546Y-21032546D01*
X91693796Y-20917331D01*
X91742810Y-20785916D01*
X91784681Y-20729984D01*
X91850145Y-20705566D01*
X91918418Y-20720417D01*
X91946673Y-20741568D01*
X92068599Y-20863495D01*
X92165384Y-20931265D01*
X92262165Y-20999032D01*
X92262167Y-20999033D01*
X92262170Y-20999035D01*
X92476337Y-21098903D01*
X92704592Y-21160063D01*
X92881034Y-21175500D01*
X92939999Y-21180659D01*
X92940000Y-21180659D01*
X92940001Y-21180659D01*
X92998966Y-21175500D01*
X93175408Y-21160063D01*
X93403663Y-21098903D01*
X93617830Y-20999035D01*
X93811401Y-20863495D01*
X93978495Y-20696401D01*
X94114035Y-20502830D01*
X94213903Y-20288663D01*
X94275063Y-20060408D01*
X94295659Y-19825000D01*
X94275063Y-19589592D01*
X94213903Y-19361337D01*
X94114035Y-19147171D01*
X94059520Y-19069314D01*
X93978494Y-18953597D01*
X93811402Y-18786506D01*
X93811395Y-18786501D01*
X93641821Y-18667763D01*
X111145787Y-18667763D01*
X111175413Y-18937013D01*
X111175415Y-18937024D01*
X111243926Y-19199082D01*
X111243928Y-19199088D01*
X111349870Y-19448390D01*
X111421998Y-19566575D01*
X111490979Y-19679605D01*
X111490986Y-19679615D01*
X111664253Y-19887819D01*
X111664259Y-19887824D01*
X111865998Y-20068582D01*
X112091910Y-20218044D01*
X112337176Y-20333020D01*
X112337183Y-20333022D01*
X112337185Y-20333023D01*
X112596557Y-20411057D01*
X112596564Y-20411058D01*
X112596569Y-20411060D01*
X112864561Y-20450500D01*
X112864566Y-20450500D01*
X113067629Y-20450500D01*
X113067631Y-20450500D01*
X113067636Y-20450499D01*
X113067648Y-20450499D01*
X113105191Y-20447750D01*
X113270156Y-20435677D01*
X113382758Y-20410593D01*
X113534546Y-20376782D01*
X113534548Y-20376781D01*
X113534553Y-20376780D01*
X113787558Y-20280014D01*
X114023777Y-20147441D01*
X114238177Y-19981888D01*
X114426186Y-19786881D01*
X114583799Y-19566579D01*
X114657787Y-19422669D01*
X114707649Y-19325690D01*
X114707651Y-19325684D01*
X114707656Y-19325675D01*
X114795118Y-19069305D01*
X114844319Y-18802933D01*
X114854212Y-18532235D01*
X114824586Y-18262982D01*
X114756072Y-18000912D01*
X114650130Y-17751610D01*
X114509018Y-17520390D01*
X114507845Y-17518981D01*
X114335746Y-17312180D01*
X114335740Y-17312175D01*
X114134002Y-17131418D01*
X113908092Y-16981957D01*
X113908090Y-16981956D01*
X113662824Y-16866980D01*
X113662819Y-16866978D01*
X113662814Y-16866976D01*
X113403442Y-16788942D01*
X113403428Y-16788939D01*
X113287791Y-16771921D01*
X113135439Y-16749500D01*
X112932369Y-16749500D01*
X112932351Y-16749500D01*
X112729844Y-16764323D01*
X112729831Y-16764325D01*
X112465453Y-16823217D01*
X112465446Y-16823220D01*
X112212439Y-16919987D01*
X111976226Y-17052557D01*
X111976224Y-17052558D01*
X111976223Y-17052559D01*
X111913893Y-17100688D01*
X111761822Y-17218112D01*
X111573822Y-17413109D01*
X111573816Y-17413116D01*
X111416202Y-17633419D01*
X111416199Y-17633424D01*
X111292350Y-17874309D01*
X111292343Y-17874327D01*
X111204884Y-18130685D01*
X111204881Y-18130699D01*
X111155681Y-18397068D01*
X111155680Y-18397075D01*
X111145787Y-18667763D01*
X93641821Y-18667763D01*
X93617834Y-18650967D01*
X93617830Y-18650965D01*
X93617830Y-18650964D01*
X93403663Y-18551097D01*
X93403659Y-18551096D01*
X93403655Y-18551094D01*
X93175413Y-18489938D01*
X93175403Y-18489936D01*
X92940001Y-18469341D01*
X92939999Y-18469341D01*
X92704596Y-18489936D01*
X92704586Y-18489938D01*
X92476344Y-18551094D01*
X92476335Y-18551098D01*
X92262171Y-18650964D01*
X92262169Y-18650965D01*
X92068600Y-18786503D01*
X91946673Y-18908430D01*
X91885350Y-18941914D01*
X91815658Y-18936930D01*
X91759725Y-18895058D01*
X91742810Y-18864081D01*
X91693797Y-18732671D01*
X91693793Y-18732664D01*
X91607547Y-18617455D01*
X91607544Y-18617452D01*
X91492335Y-18531206D01*
X91492328Y-18531202D01*
X91357482Y-18480908D01*
X91357483Y-18480908D01*
X91297883Y-18474501D01*
X91297881Y-18474500D01*
X91297873Y-18474500D01*
X91297864Y-18474500D01*
X89502129Y-18474500D01*
X89502123Y-18474501D01*
X89442516Y-18480908D01*
X89307671Y-18531202D01*
X89307664Y-18531206D01*
X89192455Y-18617452D01*
X89192452Y-18617455D01*
X89106206Y-18732664D01*
X89106202Y-18732671D01*
X89055908Y-18867517D01*
X89049501Y-18927116D01*
X89049500Y-18927135D01*
X89049500Y-20722870D01*
X15000500Y-20722870D01*
X15000500Y-18667763D01*
X18145787Y-18667763D01*
X18175413Y-18937013D01*
X18175415Y-18937024D01*
X18243926Y-19199082D01*
X18243928Y-19199088D01*
X18349870Y-19448390D01*
X18421998Y-19566575D01*
X18490979Y-19679605D01*
X18490986Y-19679615D01*
X18664253Y-19887819D01*
X18664259Y-19887824D01*
X18865998Y-20068582D01*
X19091910Y-20218044D01*
X19337176Y-20333020D01*
X19337183Y-20333022D01*
X19337185Y-20333023D01*
X19596557Y-20411057D01*
X19596564Y-20411058D01*
X19596569Y-20411060D01*
X19864561Y-20450500D01*
X19864566Y-20450500D01*
X20067629Y-20450500D01*
X20067631Y-20450500D01*
X20067636Y-20450499D01*
X20067648Y-20450499D01*
X20105191Y-20447750D01*
X20270156Y-20435677D01*
X20382758Y-20410593D01*
X20534546Y-20376782D01*
X20534548Y-20376781D01*
X20534553Y-20376780D01*
X20787558Y-20280014D01*
X21023777Y-20147441D01*
X21238177Y-19981888D01*
X21426186Y-19786881D01*
X21583799Y-19566579D01*
X21657787Y-19422669D01*
X21707649Y-19325690D01*
X21707651Y-19325684D01*
X21707656Y-19325675D01*
X21795118Y-19069305D01*
X21844319Y-18802933D01*
X21854212Y-18532235D01*
X21824586Y-18262982D01*
X21756072Y-18000912D01*
X21650130Y-17751610D01*
X21509018Y-17520390D01*
X21507845Y-17518981D01*
X21335746Y-17312180D01*
X21335740Y-17312175D01*
X21134002Y-17131418D01*
X20932144Y-16997870D01*
X99849500Y-16997870D01*
X99849501Y-16997876D01*
X99855908Y-17057483D01*
X99906202Y-17192328D01*
X99906206Y-17192335D01*
X99992452Y-17307544D01*
X99992455Y-17307547D01*
X100107664Y-17393793D01*
X100107671Y-17393797D01*
X100242517Y-17444091D01*
X100242516Y-17444091D01*
X100249444Y-17444835D01*
X100302127Y-17450500D01*
X102097872Y-17450499D01*
X102157483Y-17444091D01*
X102292331Y-17393796D01*
X102407546Y-17307546D01*
X102493796Y-17192331D01*
X102544091Y-17057483D01*
X102550500Y-16997873D01*
X102550499Y-15202128D01*
X102544091Y-15142517D01*
X102515683Y-15066352D01*
X102493797Y-15007671D01*
X102493793Y-15007664D01*
X102407547Y-14892455D01*
X102407544Y-14892452D01*
X102292335Y-14806206D01*
X102292328Y-14806202D01*
X102157482Y-14755908D01*
X102157483Y-14755908D01*
X102097883Y-14749501D01*
X102097881Y-14749500D01*
X102097873Y-14749500D01*
X102097864Y-14749500D01*
X100302129Y-14749500D01*
X100302123Y-14749501D01*
X100242516Y-14755908D01*
X100107671Y-14806202D01*
X100107664Y-14806206D01*
X99992455Y-14892452D01*
X99992452Y-14892455D01*
X99906206Y-15007664D01*
X99906202Y-15007671D01*
X99855908Y-15142517D01*
X99849501Y-15202116D01*
X99849501Y-15202123D01*
X99849500Y-15202135D01*
X99849500Y-16997870D01*
X20932144Y-16997870D01*
X20908092Y-16981957D01*
X20908090Y-16981956D01*
X20662824Y-16866980D01*
X20662819Y-16866978D01*
X20662814Y-16866976D01*
X20403442Y-16788942D01*
X20403428Y-16788939D01*
X20287791Y-16771921D01*
X20135439Y-16749500D01*
X19932369Y-16749500D01*
X19932351Y-16749500D01*
X19729844Y-16764323D01*
X19729831Y-16764325D01*
X19465453Y-16823217D01*
X19465446Y-16823220D01*
X19212439Y-16919987D01*
X18976226Y-17052557D01*
X18976224Y-17052558D01*
X18976223Y-17052559D01*
X18913893Y-17100688D01*
X18761822Y-17218112D01*
X18573822Y-17413109D01*
X18573816Y-17413116D01*
X18416202Y-17633419D01*
X18416199Y-17633424D01*
X18292350Y-17874309D01*
X18292343Y-17874327D01*
X18204884Y-18130685D01*
X18204881Y-18130699D01*
X18155681Y-18397068D01*
X18155680Y-18397075D01*
X18145787Y-18667763D01*
X15000500Y-18667763D01*
X15000500Y-15602036D01*
X15000633Y-15597981D01*
X15004023Y-15546237D01*
X15005986Y-15516290D01*
X15018986Y-15334536D01*
X15020015Y-15326901D01*
X15043155Y-15210567D01*
X15074533Y-15066323D01*
X15076392Y-15059625D01*
X15116547Y-14941335D01*
X15117087Y-14939817D01*
X15166162Y-14808242D01*
X15168628Y-14802530D01*
X15225044Y-14688129D01*
X15226152Y-14685996D01*
X15292184Y-14565066D01*
X15295029Y-14560368D01*
X15366563Y-14453311D01*
X15368428Y-14450676D01*
X15450291Y-14341321D01*
X15453244Y-14337678D01*
X15538503Y-14240459D01*
X15541198Y-14237581D01*
X15637581Y-14141198D01*
X15640459Y-14138503D01*
X15737678Y-14053244D01*
X15741321Y-14050291D01*
X15850676Y-13968428D01*
X15853311Y-13966563D01*
X15960368Y-13895029D01*
X15965066Y-13892184D01*
X16085996Y-13826152D01*
X16088129Y-13825044D01*
X16202530Y-13768628D01*
X16208242Y-13766162D01*
X16339817Y-13717087D01*
X16341335Y-13716547D01*
X16459625Y-13676392D01*
X16466323Y-13674533D01*
X16610567Y-13643155D01*
X16726901Y-13620015D01*
X16734536Y-13618986D01*
X16916290Y-13605986D01*
X16946237Y-13604023D01*
X16997981Y-13600633D01*
X17002036Y-13600500D01*
X115997964Y-13600500D01*
X116002019Y-13600633D01*
G37*
%TD.AperFunction*%
%TD*%
M02*
