%TF.GenerationSoftware,KiCad,Pcbnew,7.0.5*%
%TF.CreationDate,2024-08-13T10:45:48+03:00*%
%TF.ProjectId,Ateja_V4.1,4174656a-615f-4563-942e-312e6b696361,rev?*%
%TF.SameCoordinates,Original*%
%TF.FileFunction,Paste,Top*%
%TF.FilePolarity,Positive*%
%FSLAX46Y46*%
G04 Gerber Fmt 4.6, Leading zero omitted, Abs format (unit mm)*
G04 Created by KiCad (PCBNEW 7.0.5) date 2024-08-13 10:45:48*
%MOMM*%
%LPD*%
G01*
G04 APERTURE LIST*
G04 Aperture macros list*
%AMRoundRect*
0 Rectangle with rounded corners*
0 $1 Rounding radius*
0 $2 $3 $4 $5 $6 $7 $8 $9 X,Y pos of 4 corners*
0 Add a 4 corners polygon primitive as box body*
4,1,4,$2,$3,$4,$5,$6,$7,$8,$9,$2,$3,0*
0 Add four circle primitives for the rounded corners*
1,1,$1+$1,$2,$3*
1,1,$1+$1,$4,$5*
1,1,$1+$1,$6,$7*
1,1,$1+$1,$8,$9*
0 Add four rect primitives between the rounded corners*
20,1,$1+$1,$2,$3,$4,$5,0*
20,1,$1+$1,$4,$5,$6,$7,0*
20,1,$1+$1,$6,$7,$8,$9,0*
20,1,$1+$1,$8,$9,$2,$3,0*%
G04 Aperture macros list end*
%ADD10RoundRect,0.250000X0.250000X0.475000X-0.250000X0.475000X-0.250000X-0.475000X0.250000X-0.475000X0*%
%ADD11RoundRect,0.250000X0.262500X0.450000X-0.262500X0.450000X-0.262500X-0.450000X0.262500X-0.450000X0*%
%ADD12RoundRect,0.250000X0.475000X-0.250000X0.475000X0.250000X-0.475000X0.250000X-0.475000X-0.250000X0*%
%ADD13RoundRect,0.250000X0.450000X-0.262500X0.450000X0.262500X-0.450000X0.262500X-0.450000X-0.262500X0*%
%ADD14RoundRect,0.250000X-0.475000X0.250000X-0.475000X-0.250000X0.475000X-0.250000X0.475000X0.250000X0*%
%ADD15R,2.400000X6.170001*%
%ADD16R,1.778000X0.355600*%
%ADD17RoundRect,0.250000X-0.250000X-0.475000X0.250000X-0.475000X0.250000X0.475000X-0.250000X0.475000X0*%
%ADD18RoundRect,0.250000X-0.450000X0.262500X-0.450000X-0.262500X0.450000X-0.262500X0.450000X0.262500X0*%
%ADD19R,1.500000X2.400000*%
%ADD20RoundRect,0.030000X-0.545000X-0.220000X0.545000X-0.220000X0.545000X0.220000X-0.545000X0.220000X0*%
%ADD21R,2.150000X0.950000*%
%ADD22R,2.150000X3.250000*%
%ADD23RoundRect,0.100000X-0.637500X-0.100000X0.637500X-0.100000X0.637500X0.100000X-0.637500X0.100000X0*%
%ADD24RoundRect,0.250000X-0.262500X-0.450000X0.262500X-0.450000X0.262500X0.450000X-0.262500X0.450000X0*%
%ADD25R,0.711200X0.228600*%
%ADD26R,2.900000X5.400000*%
%ADD27RoundRect,0.243750X-0.243750X-0.456250X0.243750X-0.456250X0.243750X0.456250X-0.243750X0.456250X0*%
G04 APERTURE END LIST*
%TO.C,U4*%
G36*
X36053200Y-63935074D02*
G01*
X33853200Y-63935074D01*
X33853200Y-62592574D01*
X36053200Y-62592574D01*
X36053200Y-63935074D01*
G37*
G36*
X36053200Y-62392574D02*
G01*
X33853200Y-62392574D01*
X33853200Y-61050074D01*
X36053200Y-61050074D01*
X36053200Y-62392574D01*
G37*
G36*
X36053200Y-60850074D02*
G01*
X33853200Y-60850074D01*
X33853200Y-59507574D01*
X36053200Y-59507574D01*
X36053200Y-60850074D01*
G37*
G36*
X36053200Y-59307574D02*
G01*
X33853200Y-59307574D01*
X33853200Y-57965074D01*
X36053200Y-57965074D01*
X36053200Y-59307574D01*
G37*
%TD*%
D10*
%TO.C,C22*%
X89550000Y-61400000D03*
X87650000Y-61400000D03*
%TD*%
%TO.C,C20*%
X79750000Y-49300000D03*
X77850000Y-49300000D03*
%TD*%
D11*
%TO.C,R3*%
X62412500Y-38100000D03*
X60587500Y-38100000D03*
%TD*%
D12*
%TO.C,C33*%
X56025000Y-58575000D03*
X56025000Y-56675000D03*
%TD*%
D10*
%TO.C,C36*%
X28850000Y-66500000D03*
X26950000Y-66500000D03*
%TD*%
D13*
%TO.C,R4*%
X70100000Y-39512500D03*
X70100000Y-37687500D03*
%TD*%
D14*
%TO.C,C24*%
X22100000Y-60250000D03*
X22100000Y-58350000D03*
%TD*%
D12*
%TO.C,C10*%
X74600000Y-30350000D03*
X74600000Y-28450000D03*
%TD*%
D11*
%TO.C,R19*%
X47212500Y-81300000D03*
X45387500Y-81300000D03*
%TD*%
D15*
%TO.C,U4*%
X34953200Y-60950074D03*
D16*
X37925000Y-56725000D03*
X37925000Y-57375011D03*
X37925000Y-58025023D03*
X37925000Y-58675034D03*
X37925000Y-59325046D03*
X37925000Y-59975057D03*
X37925000Y-60625068D03*
X37925000Y-61275080D03*
X37925000Y-61925091D03*
X37925000Y-62575102D03*
X37925000Y-63225114D03*
X37925000Y-63875125D03*
X37925000Y-64525137D03*
X37925000Y-65175148D03*
X31981400Y-65175148D03*
X31981400Y-64525137D03*
X31981400Y-63875125D03*
X31981400Y-63225114D03*
X31981400Y-62575102D03*
X31981400Y-61925091D03*
X31981400Y-61275080D03*
X31981400Y-60625068D03*
X31981400Y-59975057D03*
X31981400Y-59325046D03*
X31981400Y-58675034D03*
X31981400Y-58025023D03*
X31981400Y-57375011D03*
X31981400Y-56725000D03*
%TD*%
D12*
%TO.C,C4*%
X97300000Y-28150000D03*
X97300000Y-26250000D03*
%TD*%
D17*
%TO.C,C37*%
X27050000Y-62600000D03*
X28950000Y-62600000D03*
%TD*%
D14*
%TO.C,C2*%
X55900000Y-33250000D03*
X55900000Y-35150000D03*
%TD*%
D11*
%TO.C,R14*%
X29012500Y-59400000D03*
X27187500Y-59400000D03*
%TD*%
D18*
%TO.C,R11*%
X32000000Y-69812500D03*
X32000000Y-67987500D03*
%TD*%
D17*
%TO.C,C27*%
X37875000Y-53625000D03*
X39775000Y-53625000D03*
%TD*%
D14*
%TO.C,C7*%
X38400000Y-33250000D03*
X38400000Y-35150000D03*
%TD*%
D17*
%TO.C,C26*%
X37875000Y-49925000D03*
X39775000Y-49925000D03*
%TD*%
D13*
%TO.C,R9*%
X84400000Y-66412500D03*
X84400000Y-64587500D03*
%TD*%
D17*
%TO.C,C38*%
X24350000Y-62600000D03*
X22450000Y-62600000D03*
%TD*%
D13*
%TO.C,R7*%
X84400000Y-57612500D03*
X84400000Y-55787500D03*
%TD*%
%TO.C,R21*%
X78500000Y-83212500D03*
X78500000Y-81387500D03*
%TD*%
D12*
%TO.C,C14*%
X96800000Y-48150000D03*
X96800000Y-46250000D03*
%TD*%
D10*
%TO.C,C21*%
X84350000Y-61400000D03*
X82450000Y-61400000D03*
%TD*%
D17*
%TO.C,C30*%
X37975000Y-69125000D03*
X39875000Y-69125000D03*
%TD*%
D19*
%TO.C,L3*%
X46475000Y-66125000D03*
X51975000Y-66125000D03*
%TD*%
D11*
%TO.C,R13*%
X28012500Y-53000000D03*
X26187500Y-53000000D03*
%TD*%
D13*
%TO.C,R6*%
X87700000Y-57612500D03*
X87700000Y-55787500D03*
%TD*%
D10*
%TO.C,C5*%
X79150000Y-53300000D03*
X77250000Y-53300000D03*
%TD*%
D18*
%TO.C,R20*%
X99800000Y-46187500D03*
X99800000Y-48012500D03*
%TD*%
D12*
%TO.C,C11*%
X82300000Y-30350000D03*
X82300000Y-28450000D03*
%TD*%
D17*
%TO.C,C18*%
X83050000Y-40200000D03*
X84950000Y-40200000D03*
%TD*%
D20*
%TO.C,Q1*%
X78520000Y-77950000D03*
X78520000Y-79250000D03*
X80480000Y-78600000D03*
%TD*%
D21*
%TO.C,U2*%
X87200000Y-25800000D03*
X87200000Y-28100000D03*
X87200000Y-30400000D03*
D22*
X93000000Y-28100000D03*
%TD*%
D23*
%TO.C,U3*%
X83137500Y-46675000D03*
X83137500Y-47325000D03*
X83137500Y-47975000D03*
X83137500Y-48625000D03*
X83137500Y-49275000D03*
X83137500Y-49925000D03*
X83137500Y-50575000D03*
X83137500Y-51225000D03*
X83137500Y-51875000D03*
X83137500Y-52525000D03*
X88862500Y-52525000D03*
X88862500Y-51875000D03*
X88862500Y-51225000D03*
X88862500Y-50575000D03*
X88862500Y-49925000D03*
X88862500Y-49275000D03*
X88862500Y-48625000D03*
X88862500Y-47975000D03*
X88862500Y-47325000D03*
X88862500Y-46675000D03*
%TD*%
D17*
%TO.C,C29*%
X37975000Y-72725000D03*
X39875000Y-72725000D03*
%TD*%
D14*
%TO.C,C23*%
X43500000Y-33250000D03*
X43500000Y-35150000D03*
%TD*%
D17*
%TO.C,C8*%
X70050000Y-33500000D03*
X71950000Y-33500000D03*
%TD*%
D12*
%TO.C,C12*%
X93800000Y-48150000D03*
X93800000Y-46250000D03*
%TD*%
D11*
%TO.C,R10*%
X28112500Y-50400000D03*
X26287500Y-50400000D03*
%TD*%
D17*
%TO.C,C17*%
X83150000Y-43800000D03*
X85050000Y-43800000D03*
%TD*%
%TO.C,C6*%
X55950000Y-38100000D03*
X57850000Y-38100000D03*
%TD*%
D24*
%TO.C,R2*%
X62387500Y-29700000D03*
X64212500Y-29700000D03*
%TD*%
D14*
%TO.C,C31*%
X41725000Y-56775000D03*
X41725000Y-58675000D03*
%TD*%
D18*
%TO.C,R1*%
X66300000Y-33712500D03*
X66300000Y-31887500D03*
%TD*%
%TO.C,R17*%
X89000000Y-69387500D03*
X89000000Y-71212500D03*
%TD*%
D13*
%TO.C,R18*%
X73800000Y-79812500D03*
X73800000Y-77987500D03*
%TD*%
D12*
%TO.C,C32*%
X41625000Y-65075000D03*
X41625000Y-63175000D03*
%TD*%
%TO.C,C34*%
X56125000Y-66175000D03*
X56125000Y-64275000D03*
%TD*%
D25*
%TO.C,U1*%
X62400100Y-33200001D03*
X62400100Y-33700000D03*
X62400100Y-34199999D03*
X60799900Y-34199999D03*
X60799900Y-33700000D03*
X60799900Y-33200001D03*
%TD*%
D17*
%TO.C,C13*%
X90750000Y-43800000D03*
X88850000Y-43800000D03*
%TD*%
D26*
%TO.C,L1*%
X58550000Y-20500000D03*
X68450000Y-20500000D03*
%TD*%
D19*
%TO.C,L2*%
X46475000Y-56625000D03*
X51975000Y-56625000D03*
%TD*%
D12*
%TO.C,C9*%
X78300000Y-30350000D03*
X78300000Y-28450000D03*
%TD*%
%TO.C,C3*%
X101100000Y-28150000D03*
X101100000Y-26250000D03*
%TD*%
D11*
%TO.C,R16*%
X22712500Y-55100000D03*
X20887500Y-55100000D03*
%TD*%
D27*
%TO.C,D1*%
X45362500Y-85300000D03*
X47237500Y-85300000D03*
%TD*%
D10*
%TO.C,C16*%
X79150000Y-56000000D03*
X77250000Y-56000000D03*
%TD*%
D24*
%TO.C,R5*%
X67587500Y-29700000D03*
X69412500Y-29700000D03*
%TD*%
%TO.C,R12*%
X26212500Y-56725000D03*
X28037500Y-56725000D03*
%TD*%
D14*
%TO.C,C39*%
X86100000Y-69350000D03*
X86100000Y-71250000D03*
%TD*%
D13*
%TO.C,R8*%
X87700000Y-66412500D03*
X87700000Y-64587500D03*
%TD*%
D14*
%TO.C,C19*%
X78100000Y-45050000D03*
X78100000Y-46950000D03*
%TD*%
%TO.C,C35*%
X24000000Y-65550000D03*
X24000000Y-67450000D03*
%TD*%
D17*
%TO.C,C15*%
X90550000Y-40200000D03*
X88650000Y-40200000D03*
%TD*%
D18*
%TO.C,R22*%
X32000000Y-52387500D03*
X32000000Y-54212500D03*
%TD*%
D14*
%TO.C,C1*%
X51200000Y-33250000D03*
X51200000Y-35150000D03*
%TD*%
M02*
